<svg version="1.1" id="Layer_1" xmlns="http://www.w3.org/2000/svg" xmlns:xlink="http://www.w3.org/1999/xlink" x="0px" y="0px"
	 width="100%" viewBox="0 0 126 87" enable-background="new 0 0 126 87" xml:space="preserve">
<path fill="#F8F1F8" opacity="1.000000" stroke="none" 
	d="
M58.000000,1.000000 
	C63.354931,1.000000 68.709862,1.000000 74.234131,1.311876 
	C77.956337,3.945762 81.512863,6.262180 85.060669,8.591876 
	C87.184113,9.986251 89.118210,11.934754 91.444763,12.701143 
	C97.060608,14.551056 101.361900,17.723864 103.751541,23.009106 
	C100.500114,24.223328 98.724388,26.290779 100.879120,29.066559 
	C102.708572,31.423315 105.474785,33.052898 107.956078,35.306030 
	C108.406013,36.368263 108.726379,37.128708 108.823174,38.192932 
	C93.662064,44.013874 78.038795,43.227951 62.965229,41.051033 
	C50.047825,39.185509 37.636116,33.818398 25.003479,29.750856 
	C25.006193,29.501827 25.010826,29.003761 25.300966,28.852232 
	C28.587172,25.370235 24.688627,24.767963 23.332113,23.323589 
	C22.077246,21.987442 20.428957,21.020784 19.086811,19.566265 
	C26.420660,13.657994 34.132633,11.052109 43.000378,15.538416 
	C43.643097,16.778664 44.421074,18.462948 44.901409,18.381960 
	C56.696987,16.393150 66.241394,20.866638 74.924576,28.294195 
	C75.901978,29.130262 77.820488,29.349312 79.194649,29.141325 
	C82.403030,28.655725 85.597969,27.899595 88.689354,26.911863 
	C89.931946,26.514837 91.963348,24.840158 91.806213,24.399767 
	C90.516891,20.786224 89.418365,16.740107 86.920296,14.089899 
	C85.819237,12.921782 81.586723,14.578270 78.816895,15.150662 
	C76.626953,15.603219 74.333504,17.213074 72.373177,16.831953 
	C63.819221,15.168906 55.370113,12.966573 47.013199,10.643857 
	C50.312119,7.911377 53.508247,5.529605 56.625946,3.049258 
	C57.239239,2.561343 57.549812,1.692930 58.000000,1.000000 
z"/>
<path fill="#000000" opacity="1.000000" stroke="none" 
	d="
M109.046745,37.889153 
	C108.726379,37.128708 108.406013,36.368263 108.031967,34.898685 
	C106.691147,30.446911 105.403992,26.704271 104.116837,22.961632 
	C101.361900,17.723864 97.060608,14.551056 91.444763,12.701143 
	C89.118210,11.934754 87.184113,9.986251 85.060669,8.591876 
	C81.512863,6.262180 77.956337,3.945762 74.701736,1.311876 
	C92.257904,1.000000 109.515816,1.000000 127.000000,1.000000 
	C127.000000,17.020184 127.000000,33.041435 126.750381,49.821320 
	C126.038887,50.373516 125.577003,50.167084 125.056320,49.598183 
	C122.477058,42.937557 117.393272,40.464119 110.950294,39.602386 
	C110.254890,38.844608 109.650818,38.366882 109.046745,37.889153 
z"/>
<path fill="#E6DFE7" opacity="1.000000" stroke="none" 
	d="
M127.000000,57.000000 
	C127.000000,59.041748 127.000000,61.083496 126.749283,63.263153 
	C126.026749,63.612118 125.554947,63.823170 124.817734,64.013268 
	C124.375008,63.984081 124.197701,63.975849 123.734123,63.694420 
	C118.518738,62.727131 112.759941,63.743034 111.206528,56.807880 
	C102.183113,59.969334 93.717972,61.258053 84.930405,58.247314 
	C81.066963,56.923645 78.534637,58.821735 78.003830,63.337029 
	C78.000534,64.112366 77.999512,64.555428 77.666008,64.999298 
	C76.890221,65.001602 76.446907,65.003090 75.594849,65.011871 
	C70.294243,65.647041 65.130798,67.591179 60.562988,66.648659 
	C48.316570,64.121742 35.857285,61.568321 26.730047,51.502132 
	C24.994715,49.588284 20.252125,47.600029 19.014936,48.513744 
	C13.226429,52.788818 7.228246,51.962101 1.000000,51.000000 
	C1.000000,49.933147 1.000000,48.866299 1.421770,47.370651 
	C3.439654,47.204445 5.036840,47.460701 6.631680,47.730808 
	C11.524211,48.559429 16.186028,46.434566 17.126925,42.706657 
	C17.507946,41.613163 17.761806,40.812706 18.455662,40.009766 
	C21.674883,40.315739 24.742682,39.974117 27.178789,41.055523 
	C34.258579,44.198296 41.321976,47.516850 47.953495,51.496769 
	C57.001411,56.926895 66.749695,56.105713 76.504814,55.816257 
	C77.382179,55.790222 78.608772,54.665520 79.009590,53.757973 
	C80.457375,50.479778 82.909294,50.893166 85.688972,51.340729 
	C89.568085,51.965313 93.536385,52.830635 97.398361,52.572662 
	C102.630447,52.223179 107.797974,50.907227 112.994614,50.254555 
	C112.996025,50.503239 112.999390,51.000610 112.998154,51.416313 
	C113.164177,57.913311 116.681602,60.348045 122.305946,58.336571 
	C123.834465,57.789913 125.433388,57.440136 127.000000,57.000000 
z"/>
<path fill="#000000" opacity="1.000000" stroke="none" 
	d="
M42.996960,15.160000 
	C34.132633,11.052109 26.420660,13.657994 18.763756,19.700394 
	C17.503067,21.760626 16.698317,23.361584 15.556448,25.121830 
	C14.443393,28.172758 13.667456,31.064396 12.534593,33.978638 
	C9.768011,36.298878 7.358356,38.596523 4.609875,41.038292 
	C3.180699,42.121609 2.090348,43.060802 0.999999,44.000000 
	C1.000000,29.729666 1.000000,15.459332 1.000000,1.000000 
	C19.687136,1.000000 38.374908,1.000000 57.531342,1.000000 
	C57.549812,1.692930 57.239239,2.561343 56.625946,3.049258 
	C53.508247,5.529605 50.312119,7.911377 46.700897,10.762442 
	C45.171207,12.518140 44.084084,13.839069 42.996960,15.160000 
z"/>
<path fill="#000000" opacity="1.000000" stroke="none" 
	d="
M125.083145,64.034225 
	C125.554947,63.823170 126.026749,63.612118 126.749283,63.700531 
	C127.000000,71.961761 127.000000,79.923531 127.000000,88.000000 
	C104.645889,88.000000 82.291603,88.000000 59.171101,87.683334 
	C61.617702,85.613922 64.830521,83.861183 68.378326,82.053070 
	C69.807152,81.273819 70.900986,80.549942 72.354828,80.004395 
	C82.185341,83.772224 90.829704,82.915466 98.137627,75.323830 
	C99.844322,73.550880 101.142639,72.900002 103.993973,73.758743 
	C109.192566,75.324440 114.765053,75.703537 119.468887,71.023621 
	C120.914040,69.680710 122.011742,68.362831 123.409599,66.920517 
	C124.167549,65.875450 124.625351,64.954842 125.083145,64.034225 
z"/>
<path fill="#D8D0D9" opacity="1.000000" stroke="none" 
	d="
M76.003601,65.004578 
	C76.446907,65.003090 76.890221,65.001602 77.676407,65.009682 
	C78.019279,65.019249 78.039948,65.039886 78.031395,65.451950 
	C78.018738,67.244553 78.014633,68.625099 77.875641,70.306107 
	C77.159203,71.733963 76.577667,72.861359 75.621887,73.994934 
	C70.127968,75.665085 65.063202,78.515045 59.877605,78.755135 
	C47.721592,79.317963 37.455959,74.011353 28.455294,66.013107 
	C24.959898,62.907009 22.023743,58.058270 15.827442,61.672604 
	C14.423197,62.491703 11.729901,61.136322 9.639087,60.734360 
	C6.754849,60.179863 3.879281,59.580276 1.000000,59.000000 
	C1.000000,57.285816 1.000000,55.571629 1.430566,53.429222 
	C6.548296,52.847889 11.488441,53.558811 15.846804,52.282719 
	C19.699459,51.154690 22.496359,50.912205 25.294556,53.779202 
	C34.094521,62.795528 45.104927,67.393585 57.259193,69.555466 
	C64.105927,70.773293 70.596085,69.979271 76.003601,65.004578 
z"/>
<path fill="#000000" opacity="1.000000" stroke="none" 
	d="
M41.000000,88.000000 
	C27.757078,88.000000 14.514154,88.000000 1.000000,88.000000 
	C1.000000,79.981148 1.000000,71.959251 1.249063,63.177238 
	C1.960195,62.626301 2.422263,62.835480 2.936235,63.401962 
	C7.139369,71.821365 13.857185,75.673729 22.813328,76.065628 
	C23.946842,76.115234 25.087063,77.025276 26.142454,77.670380 
	C30.640165,80.419556 35.127625,83.187119 39.562439,86.035744 
	C40.199390,86.444878 40.528450,87.333359 41.000000,88.000000 
z"/>
<path fill="#C6BBC7" opacity="1.000000" stroke="none" 
	d="
M41.467941,88.000000 
	C40.528450,87.333359 40.199390,86.444878 39.562439,86.035744 
	C35.127625,83.187119 30.640165,80.419556 26.142454,77.670380 
	C25.087063,77.025276 23.946842,76.115234 22.813328,76.065628 
	C13.857185,75.673729 7.139369,71.821365 3.352134,63.389938 
	C5.930541,63.576046 8.160942,64.075485 10.355038,64.702057 
	C12.730031,65.380287 15.495398,67.360977 17.346565,66.697601 
	C22.648943,64.797470 25.155828,67.964638 28.487558,70.847534 
	C36.947006,78.167397 46.438923,83.418877 58.129070,82.974014 
	C61.440010,82.848022 64.738914,82.405693 68.043335,82.108437 
	C64.830521,83.861183 61.617702,85.613922 58.702442,87.683334 
	C53.311958,88.000000 47.623920,88.000000 41.467941,88.000000 
z"/>
<path fill="#CCC2CD" opacity="1.000000" stroke="none" 
	d="
M68.378326,82.053070 
	C64.738914,82.405693 61.440010,82.848022 58.129070,82.974014 
	C46.438923,83.418877 36.947006,78.167397 28.487558,70.847534 
	C25.155828,67.964638 22.648943,64.797470 17.346565,66.697601 
	C15.495398,67.360977 12.730031,65.380287 10.355038,64.702057 
	C8.160942,64.075485 5.930541,63.576046 3.300231,63.032639 
	C2.422263,62.835480 1.960195,62.626301 1.249063,62.708561 
	C1.000000,61.933331 1.000000,60.866661 1.000000,59.399994 
	C3.879281,59.580276 6.754849,60.179863 9.639087,60.734360 
	C11.729901,61.136322 14.423197,62.491703 15.827442,61.672604 
	C22.023743,58.058270 24.959898,62.907009 28.455294,66.013107 
	C37.455959,74.011353 47.721592,79.317963 59.877605,78.755135 
	C65.063202,78.515045 70.127968,75.665085 75.480362,74.291016 
	C74.473679,76.329308 73.234253,78.077690 71.994827,79.826065 
	C70.900986,80.549942 69.807152,81.273819 68.378326,82.053070 
z"/>
<path fill="#DFD7E0" opacity="1.000000" stroke="none" 
	d="
M75.594849,65.011871 
	C70.596085,69.979271 64.105927,70.773293 57.259193,69.555466 
	C45.104927,67.393585 34.094521,62.795528 25.294556,53.779202 
	C22.496359,50.912205 19.699459,51.154690 15.846804,52.282719 
	C11.488441,53.558811 6.548296,52.847889 1.430566,53.000496 
	C1.000000,52.555553 1.000000,52.111111 1.000000,51.333332 
	C7.228246,51.962101 13.226429,52.788818 19.014936,48.513744 
	C20.252125,47.600029 24.994715,49.588284 26.730047,51.502132 
	C35.857285,61.568321 48.316570,64.121742 60.562988,66.648659 
	C65.130798,67.591179 70.294243,65.647041 75.594849,65.011871 
z"/>
<path fill="#EFE8EF" opacity="1.000000" stroke="none" 
	d="
M127.000000,56.562500 
	C125.433388,57.440136 123.834465,57.789913 122.305946,58.336571 
	C116.681602,60.348045 113.164177,57.913311 113.391457,51.466446 
	C117.562370,50.720798 121.338753,50.340725 125.115128,49.960648 
	C125.577003,50.167084 126.038887,50.373516 126.750381,50.289978 
	C127.000000,52.041668 127.000000,54.083332 127.000000,56.562500 
z"/>
<path fill="#EFE8EF" opacity="1.000000" stroke="none" 
	d="
M0.999999,44.375000 
	C2.090348,43.060802 3.180699,42.121609 4.845043,41.348328 
	C9.279280,42.009388 13.139522,42.504543 16.999763,42.999695 
	C16.186028,46.434566 11.524211,48.559429 6.631680,47.730808 
	C5.036840,47.460701 3.439654,47.204445 1.421770,46.970932 
	C1.000000,46.250000 1.000000,45.500000 0.999999,44.375000 
z"/>
<path fill="#F3EDF4" opacity="1.000000" stroke="none" 
	d="
M108.823174,38.192932 
	C109.650818,38.366882 110.254890,38.844608 110.943520,39.979588 
	C111.352249,42.091076 111.676430,43.545307 111.583572,45.001148 
	C103.514854,45.720722 96.112595,49.425064 88.201660,46.995342 
	C83.616714,45.587147 79.905441,45.963520 77.254425,50.741543 
	C76.689438,51.759842 73.956665,52.009277 72.278824,51.880493 
	C69.331474,51.654255 66.302689,51.219070 63.526398,50.247414 
	C49.316303,45.274128 35.175980,40.101505 21.040127,34.673462 
	C21.717981,33.232872 22.366978,32.117382 23.271767,30.891712 
	C24.018625,30.520987 24.509693,30.260435 25.000763,29.999886 
	C37.636116,33.818398 50.047825,39.185509 62.965229,41.051033 
	C78.038795,43.227951 93.662064,44.013874 108.823174,38.192932 
z"/>
<path fill="#F3EDF4" opacity="1.000000" stroke="none" 
	d="
M43.000378,15.538415 
	C44.084084,13.839069 45.171207,12.518140 46.570633,11.078627 
	C55.370113,12.966573 63.819221,15.168906 72.373177,16.831953 
	C74.333504,17.213074 76.626953,15.603219 78.816895,15.150662 
	C81.586723,14.578270 85.819237,12.921782 86.920296,14.089899 
	C89.418365,16.740107 90.516891,20.786224 91.806213,24.399767 
	C91.963348,24.840158 89.931946,26.514837 88.689354,26.911863 
	C85.597969,27.899595 82.403030,28.655725 79.194649,29.141325 
	C77.820488,29.349312 75.901978,29.130262 74.924576,28.294195 
	C66.241394,20.866638 56.696987,16.393150 44.901409,18.381960 
	C44.421074,18.462948 43.643097,16.778664 43.000378,15.538415 
z"/>
<path fill="#F3EDF4" opacity="1.000000" stroke="none" 
	d="
M103.751541,23.009106 
	C105.403992,26.704271 106.691147,30.446911 107.902405,34.596893 
	C105.474785,33.052898 102.708572,31.423315 100.879120,29.066559 
	C98.724388,26.290779 100.500114,24.223328 103.751541,23.009106 
z"/>
<path fill="#EFE8EF" opacity="1.000000" stroke="none" 
	d="
M25.003479,29.750854 
	C24.509693,30.260435 24.018625,30.520987 22.944038,30.744835 
	C17.080412,28.184387 16.606565,28.370855 13.707790,33.999008 
	C13.254080,33.980053 13.072799,33.968044 12.891519,33.956036 
	C13.667456,31.064396 14.443393,28.172758 15.936021,25.171352 
	C19.438749,26.375645 22.224789,27.689703 25.010826,29.003761 
	C25.010826,29.003761 25.006193,29.501827 25.003479,29.750854 
z"/>
<path fill="#F3EDF4" opacity="1.000000" stroke="none" 
	d="
M25.300966,28.852232 
	C22.224789,27.689703 19.438749,26.375645 16.273138,25.012066 
	C16.698317,23.361584 17.503067,21.760626 18.630871,20.025537 
	C20.428957,21.020784 22.077246,21.987442 23.332113,23.323589 
	C24.688627,24.767963 28.587172,25.370235 25.300966,28.852232 
z"/>
<path fill="#F8F1F8" opacity="1.000000" stroke="none" 
	d="
M112.000610,44.999542 
	C111.676430,43.545307 111.352249,42.091076 111.034843,40.259640 
	C117.393272,40.464119 122.477058,42.937557 125.056320,49.598183 
	C121.338753,50.340725 117.562370,50.720798 113.392693,51.050743 
	C112.999390,51.000610 112.996025,50.503239 112.997902,49.867390 
	C112.666725,47.820873 112.333672,46.410210 112.000610,44.999542 
z"/>
<path fill="#EFE8EF" opacity="1.000000" stroke="none" 
	d="
M111.583572,45.001148 
	C112.333672,46.410210 112.666725,47.820873 112.996490,49.618706 
	C107.797974,50.907227 102.630447,52.223179 97.398361,52.572662 
	C93.536385,52.830635 89.568085,51.965313 85.688972,51.340729 
	C82.909294,50.893166 80.457375,50.479778 79.009590,53.757973 
	C78.608772,54.665520 77.382179,55.790222 76.504814,55.816257 
	C66.749695,56.105713 57.001411,56.926895 47.953495,51.496769 
	C41.321976,47.516850 34.258579,44.198296 27.178789,41.055523 
	C24.742682,39.974117 21.674883,40.315739 18.448875,39.677094 
	C17.997440,38.903614 17.992783,38.460320 18.268986,37.876755 
	C19.370319,36.823841 20.190792,35.911205 21.011267,34.998566 
	C35.175980,40.101505 49.316303,45.274128 63.526398,50.247414 
	C66.302689,51.219070 69.331474,51.654255 72.278824,51.880493 
	C73.956665,52.009277 76.689438,51.759842 77.254425,50.741543 
	C79.905441,45.963520 83.616714,45.587147 88.201660,46.995342 
	C96.112595,49.425064 103.514854,45.720722 111.583572,45.001148 
z"/>
<path fill="#DFD7E0" opacity="1.000000" stroke="none" 
	d="
M78.006104,63.004753 
	C78.534637,58.821735 81.066963,56.923645 84.930405,58.247314 
	C93.717972,61.258053 102.183113,59.969334 111.206528,56.807880 
	C112.759941,63.743034 118.518738,62.727131 123.391365,63.856918 
	C118.784035,66.783348 114.617241,67.278030 111.075752,62.437595 
	C110.555801,61.726940 108.749947,61.402172 107.758408,61.680424 
	C100.662193,63.671791 93.697800,64.536964 86.383049,62.239506 
	C83.914383,61.464134 80.816452,62.692265 78.006104,63.004753 
z"/>
<path fill="#D8D0D9" opacity="1.000000" stroke="none" 
	d="
M78.003830,63.337025 
	C80.816452,62.692265 83.914383,61.464134 86.383049,62.239506 
	C93.697800,64.536964 100.662193,63.671791 107.758408,61.680424 
	C108.749947,61.402172 110.555801,61.726940 111.075752,62.437595 
	C114.617241,67.278030 118.784035,66.783348 123.677643,64.130119 
	C124.197701,63.975849 124.375008,63.984081 124.817734,64.013275 
	C124.625351,64.954842 124.167549,65.875450 122.994858,66.957397 
	C117.898209,68.281685 113.694855,68.813515 109.438492,66.170959 
	C108.108688,65.345345 105.768799,66.167969 103.890671,66.200081 
	C99.173332,66.280762 94.447693,66.538162 89.740578,66.348122 
	C85.829140,66.190208 81.939339,65.496346 78.039948,65.039886 
	C78.039948,65.039886 78.019279,65.019249 78.008881,65.008865 
	C77.999512,64.555428 78.000534,64.112366 78.003830,63.337025 
z"/>
<path fill="#F8F1F8" opacity="1.000000" stroke="none" 
	d="
M17.988127,38.017029 
	C17.992783,38.460320 17.997440,38.903614 18.008881,39.679573 
	C17.761806,40.812706 17.507946,41.613163 17.126925,42.706657 
	C13.139522,42.504543 9.279280,42.009388 5.183869,41.204201 
	C7.358356,38.596523 9.768011,36.298878 12.534593,33.978638 
	C13.072799,33.968044 13.254080,33.980053 13.765013,34.324802 
	C15.392485,35.777370 16.690306,36.897202 17.988127,38.017029 
z"/>
<path fill="#C6BBC7" opacity="1.000000" stroke="none" 
	d="
M72.354828,80.004395 
	C73.234253,78.077690 74.473679,76.329308 75.854614,74.284851 
	C76.577667,72.861359 77.159203,71.733963 78.331894,70.305092 
	C87.760010,69.556610 96.723190,73.131721 105.473022,69.154182 
	C106.100410,68.868988 107.072197,69.347977 107.885056,69.463051 
	C111.630287,69.993263 115.375938,70.520416 119.121445,71.048668 
	C114.765053,75.703537 109.192566,75.324440 103.993973,73.758743 
	C101.142639,72.900002 99.844322,73.550880 98.137627,75.323830 
	C90.829704,82.915466 82.185341,83.772224 72.354828,80.004395 
z"/>
<path fill="#CCC2CD" opacity="1.000000" stroke="none" 
	d="
M119.468887,71.023621 
	C115.375938,70.520416 111.630287,69.993263 107.885056,69.463051 
	C107.072197,69.347977 106.100410,68.868988 105.473022,69.154182 
	C96.723190,73.131721 87.760010,69.556610 78.466789,70.004623 
	C78.014633,68.625099 78.018738,67.244553 78.031395,65.451950 
	C81.939339,65.496346 85.829140,66.190208 89.740578,66.348122 
	C94.447693,66.538162 99.173332,66.280762 103.890671,66.200081 
	C105.768799,66.167969 108.108688,65.345345 109.438492,66.170959 
	C113.694855,68.813515 117.898209,68.281685 122.694710,67.081841 
	C122.011742,68.362831 120.914040,69.680710 119.468887,71.023621 
z"/>
<path fill="#E6DFE7" opacity="1.000000" stroke="none" 
	d="
M18.268986,37.876755 
	C16.690306,36.897202 15.392485,35.777370 14.037441,34.331749 
	C16.606565,28.370855 17.080412,28.184387 22.688246,30.855013 
	C22.366978,32.117382 21.717981,33.232872 21.040127,34.673462 
	C20.190792,35.911205 19.370319,36.823841 18.268986,37.876755 
z"/>
</svg>