<svg version="1.1" id="Layer_1" xmlns="http://www.w3.org/2000/svg" xmlns:xlink="http://www.w3.org/1999/xlink" x="0px" y="0px"
	 width="100%" viewBox="0 0 100 249" enable-background="new 0 0 100 249" xml:space="preserve">
<path fill="#000000" opacity="1.000000" stroke="none" 
	d="
M101.000000,194.000000 
	C101.000000,212.628433 101.000000,231.256866 101.000000,249.942657 
	C67.773254,249.942657 34.546394,249.942657 1.000000,249.942657 
	C1.000000,230.980301 1.000000,211.958801 1.366297,192.458496 
	C4.090693,189.646393 7.110301,187.688995 8.688116,184.912308 
	C14.387094,174.883057 22.984159,171.157639 34.033279,172.351059 
	C33.336731,174.110733 32.664425,175.515305 31.618465,176.979767 
	C30.134010,179.666122 29.023211,182.292572 27.597820,185.080673 
	C27.247713,186.163116 27.212198,187.083908 27.108076,188.404709 
	C28.655176,194.522141 30.270882,200.239594 31.585186,206.105591 
	C32.484371,209.517792 33.684959,212.781433 34.944275,216.421646 
	C37.318554,222.242142 39.634102,227.686096 41.974762,233.357849 
	C41.999870,233.585648 42.162071,234.014374 42.095203,234.254761 
	C42.028336,234.495132 42.170372,234.973511 42.172035,235.324905 
	C43.168495,237.447998 44.163288,239.219681 45.082550,241.360046 
	C46.129715,244.110641 47.252411,246.492584 48.836807,249.854095 
	C50.396420,246.028366 51.626511,243.010925 52.935707,239.791779 
	C53.014812,239.590042 53.043072,239.157074 53.341198,239.023865 
	C53.802414,238.273239 53.965504,237.655823 54.086884,237.035385 
	C54.045170,237.032379 54.055271,237.115402 54.305779,237.026611 
	C54.648392,236.634262 54.740501,236.330673 54.841389,235.680878 
	C55.155262,233.764893 55.336643,232.157959 55.794758,230.634216 
	C56.464745,228.405701 57.333210,226.236847 58.454803,223.878662 
	C61.141495,217.148697 63.490467,210.582626 66.004761,203.662964 
	C67.187187,200.004761 68.843613,196.742035 69.063599,193.385178 
	C69.355011,188.938202 73.187080,184.338867 68.990105,179.947800 
	C68.986496,179.980759 69.052734,179.982895 68.975037,179.724060 
	C68.596115,179.287476 68.294891,179.109756 67.943680,178.686829 
	C67.622124,178.260986 67.350540,178.080368 67.059738,177.552628 
	C66.010948,176.402206 64.981400,175.598877 64.009827,174.424667 
	C65.844200,173.429581 67.580376,172.543930 69.409492,172.262619 
	C70.914337,172.031189 72.529457,172.516708 74.500587,172.740417 
	C77.948517,173.505142 80.991570,174.213943 84.137154,175.158508 
	C84.518066,175.583603 84.796440,175.772964 85.091202,176.301163 
	C86.459671,178.017197 87.811745,179.394379 89.293396,181.081451 
	C90.810478,183.000504 92.197990,184.609665 93.694916,186.549683 
	C96.202873,189.253677 98.601440,191.626831 101.000000,194.000000 
z"/>
<path fill="#000000" opacity="1.000000" stroke="none" 
	d="
M52.000000,0.999999 
	C68.301796,1.000000 84.603592,1.000000 101.000000,1.000000 
	C101.000000,60.020863 101.000000,119.041771 100.652916,178.839279 
	C99.854851,178.655823 99.232651,177.738159 98.982712,176.728348 
	C97.935539,172.497589 96.999931,168.239227 95.983566,163.661331 
	C95.881653,162.894913 95.819618,162.458145 95.842316,161.716522 
	C95.625641,160.938965 95.324226,160.466248 94.977844,159.619400 
	C94.863907,158.497116 94.794922,157.748962 94.791359,156.749802 
	C94.578812,156.313568 94.300842,156.128342 93.989014,155.622147 
	C93.890839,154.877731 93.826508,154.454285 93.818192,153.769547 
	C93.592926,153.304718 93.311646,153.101166 92.837738,152.632996 
	C92.313751,152.566330 91.982399,152.764313 91.638184,152.921692 
	C91.625328,152.881073 91.701653,152.838791 91.910248,152.397293 
	C90.526642,150.964249 89.050934,149.600006 87.318100,149.058365 
	C83.655426,147.913452 79.858391,147.198395 75.731232,146.223648 
	C74.297012,146.172684 73.248032,146.205078 72.118370,145.932037 
	C71.975876,144.787231 71.914070,143.947845 72.171005,142.987854 
	C73.025024,141.925598 73.560287,140.983932 74.404678,139.882202 
	C76.947975,135.194885 79.508148,130.794510 81.331894,126.107590 
	C83.501381,120.532135 85.038376,114.710579 86.913879,108.759689 
	C86.978355,108.523727 87.067390,108.042763 87.448273,107.996223 
	C91.497444,100.029655 93.451134,91.764381 92.913574,82.588669 
	C92.926025,81.125137 92.880737,80.058784 92.887512,78.620987 
	C92.569183,76.829796 92.198792,75.410057 91.891434,73.661827 
	C91.582672,72.554192 91.210876,71.775055 90.903870,70.622826 
	C90.920990,69.497444 90.873329,68.745155 90.891708,67.617966 
	C90.333183,65.482697 89.708618,63.722328 89.032845,61.636116 
	C88.926514,60.875092 88.871391,60.439915 88.851471,59.740746 
	C88.602928,59.282162 88.319183,59.087563 87.998566,58.665276 
	C87.961693,58.437588 87.826950,57.996391 87.859993,57.733395 
	C87.611885,57.273838 87.330734,57.077282 87.019440,56.557518 
	C86.275459,55.196938 85.561615,54.159565 84.900070,52.691544 
	C84.928986,50.826260 84.905609,49.391636 84.910324,47.573608 
	C83.913895,44.337563 82.889359,41.484913 81.882462,38.244370 
	C79.970421,34.557339 78.040749,31.258204 76.048325,27.613729 
	C74.682716,25.502905 73.379875,23.737419 72.021255,21.613865 
	C70.649879,19.502392 69.334290,17.748987 67.974258,15.829024 
	C67.929832,15.662465 67.696487,15.408669 67.485405,15.148842 
	C66.041138,13.361033 64.807945,11.833051 63.370964,10.086369 
	C61.849144,8.640646 60.531120,7.413622 59.167076,5.953074 
	C58.741005,5.543712 58.360954,5.367874 57.631439,5.120949 
	C55.878490,4.341666 54.475014,3.633469 52.980904,2.651916 
	C52.593517,1.919038 52.296761,1.459518 52.000000,0.999999 
z"/>
<path fill="#000000" opacity="1.000000" stroke="none" 
	d="
M0.999999,177.000000 
	C1.000000,118.450211 1.000000,59.900414 1.000000,1.000000 
	C15.352324,1.000000 29.707504,1.000000 44.818535,1.273234 
	C44.686230,2.354300 43.798073,3.162133 42.610489,4.074550 
	C41.197346,5.424089 40.083630,6.669043 38.652313,8.033648 
	C34.878933,12.409007 31.423147,16.664715 27.638649,21.048489 
	C24.857763,25.417936 22.405588,29.659319 19.617413,34.054802 
	C17.820890,38.778934 16.360369,43.348965 14.933464,47.933716 
	C14.967082,47.948433 14.977722,47.875843 14.740129,47.971272 
	C14.388573,48.357834 14.274610,48.648972 14.076487,49.312515 
	C14.054017,50.444008 14.115707,51.203087 14.111307,52.232872 
	C14.082945,52.685467 14.120674,52.867359 14.091755,53.395908 
	C13.317142,55.144974 12.609175,56.547386 11.571306,58.114983 
	C10.126518,62.843761 9.011631,67.407364 7.547366,72.132065 
	C6.853240,74.525261 6.508494,76.757347 6.090614,79.422546 
	C6.066054,81.901314 6.114626,83.946968 6.091766,86.425926 
	C6.734685,90.901909 7.449036,94.944588 8.103113,99.378052 
	C10.326009,106.199829 12.609179,112.630814 14.929539,119.391434 
	C15.028312,120.157829 15.089896,120.594604 15.147938,121.290268 
	C15.419170,121.745399 15.693944,121.941635 15.991404,122.504639 
	C18.544342,128.294998 20.908287,133.806595 23.703608,139.089966 
	C24.571033,140.729446 26.609112,141.749557 28.096779,143.412247 
	C28.051107,144.492767 28.019899,145.214264 27.580950,145.971405 
	C24.076250,146.682526 20.840811,147.000168 17.919853,148.130493 
	C14.767344,149.350418 11.908990,151.330490 8.628637,153.082138 
	C8.186578,153.780319 8.038201,154.375336 7.543705,155.149841 
	C5.792233,162.060486 4.428115,168.800980 2.912023,175.507111 
	C2.774003,176.117615 1.660508,176.507599 0.999999,177.000000 
z"/>
<path fill="#ADADB8" opacity="1.000000" stroke="none" 
	d="
M0.999999,177.399994 
	C1.660508,176.507599 2.774003,176.117615 2.912023,175.507111 
	C4.428115,168.800980 5.792233,162.060486 7.908931,155.189301 
	C13.454692,160.144562 19.165434,159.221268 25.037558,157.511124 
	C26.285185,157.147766 27.640856,157.155396 29.207045,156.997314 
	C29.640509,157.005798 29.813677,157.009064 29.986124,157.404999 
	C28.670502,159.150574 27.536371,160.771683 26.005205,161.803772 
	C22.139259,164.409592 17.808399,166.395203 14.204415,169.300018 
	C10.796468,172.046844 8.162234,175.734909 5.005987,178.823288 
	C3.961114,179.845703 2.351442,180.290894 1.000001,181.000000 
	C1.000000,179.933334 1.000000,178.866653 0.999999,177.399994 
z"/>
<path fill="#70707F" opacity="1.000000" stroke="none" 
	d="
M34.057522,171.995941 
	C22.984159,171.157639 14.387094,174.883057 8.688116,184.912308 
	C7.110301,187.688995 4.090693,189.646393 1.366297,191.989838 
	C1.000000,190.933334 1.000000,189.866653 1.373615,188.451233 
	C3.049471,187.017181 4.598904,186.121140 5.603987,184.808334 
	C7.901194,181.807800 9.925764,178.599030 12.072502,175.482727 
	C17.141863,168.123749 25.842453,166.846512 33.326485,163.195374 
	C33.783527,166.262100 33.920525,169.129028 34.057522,171.995941 
z"/>
<path fill="#9A9AA6" opacity="1.000000" stroke="none" 
	d="
M33.006435,162.995575 
	C25.842453,166.846512 17.141863,168.123749 12.072502,175.482727 
	C9.925764,178.599030 7.901194,181.807800 5.603987,184.808334 
	C4.598904,186.121140 3.049471,187.017181 1.373615,188.051239 
	C1.000000,186.933334 1.000000,185.866653 1.157930,184.310608 
	C1.210574,183.547501 1.105288,183.273743 1.000001,183.000000 
	C1.000000,182.555557 1.000000,182.111099 1.000001,181.333328 
	C2.351442,180.290894 3.961114,179.845703 5.005987,178.823288 
	C8.162234,175.734909 10.796468,172.046844 14.204415,169.300018 
	C17.808399,166.395203 22.139259,164.409592 26.005205,161.803772 
	C27.536371,160.771683 28.670502,159.150574 30.200418,157.141144 
	C32.304897,155.331100 34.194366,154.177567 36.074066,153.448151 
	C35.045013,156.913376 34.025723,159.954483 33.006435,162.995575 
z"/>
<path fill="#AAAAB5" opacity="1.000000" stroke="none" 
	d="
M96.023453,163.990967 
	C96.999931,168.239227 97.935539,172.497589 98.982712,176.728348 
	C99.232651,177.738159 99.854851,178.655823 100.652916,179.307938 
	C101.000000,181.370560 101.000000,183.741104 100.587860,186.548523 
	C97.978981,186.729858 95.782249,186.474350 93.585510,186.218842 
	C92.197990,184.609665 90.810478,183.000504 89.398087,180.917847 
	C89.373215,180.444351 89.486137,180.072205 89.779175,179.987091 
	C90.090622,179.040253 90.482857,177.884933 90.071297,177.360931 
	C84.067215,169.716400 77.257454,163.212296 66.974396,161.622192 
	C67.018478,160.488327 67.049469,159.732010 67.460480,158.988098 
	C78.226219,161.382431 85.542450,168.094711 92.072388,176.002243 
	C92.967926,177.086716 94.530769,177.620117 95.784660,178.408646 
	C96.011398,176.905930 96.433350,175.402130 96.424942,173.900742 
	C96.406441,170.596832 96.170593,167.294144 96.023453,163.990967 
z"/>
<path fill="#8F8F9C" opacity="1.000000" stroke="none" 
	d="
M93.694916,186.549683 
	C95.782249,186.474350 97.978981,186.729858 100.587860,186.992676 
	C101.000000,189.041672 101.000000,191.083328 101.000000,193.562500 
	C98.601440,191.626831 96.202873,189.253677 93.694916,186.549683 
z"/>
<path fill="#ECECF4" opacity="1.000000" stroke="none" 
	d="
M42.909912,3.969965 
	C43.798073,3.162133 44.686230,2.354300 45.287193,1.273234 
	C47.041668,1.000000 49.083332,1.000000 51.562500,0.999999 
	C52.296761,1.459518 52.593517,1.919038 52.922318,2.714391 
	C52.954365,3.050224 52.837364,3.175331 52.423958,3.116227 
	C48.977001,3.361403 45.943459,3.665684 42.909912,3.969965 
z"/>
<path fill="#ADADB8" opacity="1.000000" stroke="none" 
	d="
M1.000001,183.250000 
	C1.105288,183.273743 1.210574,183.547501 1.157930,183.910614 
	C1.000000,184.000000 1.000000,183.500000 1.000001,183.250000 
z"/>
<path fill="#FFFCF5" opacity="1.000000" stroke="none" 
	d="
M52.856609,239.993500 
	C51.626511,243.010925 50.396420,246.028366 48.836807,249.854095 
	C47.252411,246.492584 46.129715,244.110641 45.424774,241.292587 
	C46.350216,239.449982 47.327282,238.031799 47.292660,236.638794 
	C46.962650,223.360641 46.092690,210.081970 46.264523,196.814941 
	C46.308250,193.438782 45.161282,188.243439 50.852467,185.837814 
	C51.655071,188.848877 52.340832,191.421585 53.020866,194.393463 
	C53.020161,195.855240 53.025188,196.917831 53.019836,198.438614 
	C52.935692,201.649933 52.807468,204.403000 52.802971,207.156265 
	C52.798157,210.102020 52.909950,213.047958 52.935722,216.358917 
	C52.604664,218.149612 52.308731,219.575195 51.738068,221.246033 
	C51.633781,223.328323 51.804237,225.165344 51.977070,227.377823 
	C51.974529,228.504089 51.969608,229.254913 51.685818,230.285706 
	C51.022564,233.268326 50.528019,235.964859 50.377018,238.680496 
	C50.355305,239.070984 51.989006,239.553543 52.856609,239.993500 
z"/>
<path fill="#FCF5AD" opacity="1.000000" stroke="none" 
	d="
M68.993713,179.914841 
	C73.187080,184.338867 69.355011,188.938202 69.063599,193.385178 
	C68.843613,196.742035 67.187187,200.004761 65.664413,203.730438 
	C62.193512,209.003510 59.228287,213.855515 55.770115,219.514130 
	C55.354736,217.699203 55.157478,216.837326 54.969734,215.578400 
	C54.983925,214.120697 54.988605,213.060059 55.261993,211.770050 
	C55.367218,210.025635 55.203735,208.510605 55.036537,206.625305 
	C55.033894,205.514450 55.034962,204.773880 55.376755,203.961243 
	C57.636745,202.211243 57.710056,200.851151 55.040993,199.635117 
	C55.042877,198.869720 55.045261,198.432343 55.312721,197.743347 
	C55.379311,195.661362 55.180832,193.831009 54.984837,191.600159 
	C54.985703,190.131683 54.984085,189.063690 55.317257,187.995178 
	C56.097794,187.996170 56.543545,187.997696 57.043816,188.360657 
	C58.973507,192.280014 60.848679,195.837936 62.723846,199.395844 
	C63.556633,199.296539 64.389427,199.197220 65.222214,199.097916 
	C66.412186,194.012589 67.602150,188.927261 68.816696,183.449615 
	C68.892090,182.009811 68.942902,180.962326 68.993713,179.914841 
z"/>
<path fill="#FFF5DF" opacity="1.000000" stroke="none" 
	d="
M54.982464,187.995697 
	C54.984085,189.063690 54.985703,190.131683 54.746071,191.754883 
	C54.012074,192.871475 53.519329,193.432892 53.026592,193.994308 
	C52.340832,191.421585 51.655071,188.848877 50.852467,185.837814 
	C45.161282,188.243439 46.308250,193.438782 46.264523,196.814941 
	C46.092690,210.081970 46.962650,223.360641 47.292660,236.638794 
	C47.327282,238.031799 46.350216,239.449982 45.500305,240.923920 
	C44.163288,239.219681 43.168495,237.447998 42.312866,235.233047 
	C42.355373,234.531326 42.258720,234.272842 42.162071,234.014374 
	C42.162071,234.014374 41.999870,233.585648 42.105003,233.049377 
	C42.475147,231.672714 42.740154,230.832321 43.397648,229.902069 
	C44.194103,228.667786 45.025356,227.486862 44.931175,226.385056 
	C44.406284,220.244400 43.657185,214.122894 42.986259,207.533325 
	C43.647991,200.712906 44.308208,194.354004 45.119629,187.667389 
	C46.708172,185.577515 48.145515,183.815384 49.582863,182.053253 
	C51.034225,183.491058 52.509087,184.906296 53.922977,186.380051 
	C54.361279,186.836914 54.633953,187.452682 54.982464,187.995697 
z"/>
<path fill="#6E6E7E" opacity="1.000000" stroke="none" 
	d="
M84.034615,174.922745 
	C80.991570,174.213943 77.948517,173.505142 74.377800,172.391266 
	C68.063316,171.429520 62.280052,170.830063 56.486916,170.349701 
	C55.219105,170.244598 53.513512,171.148224 52.699112,170.586868 
	C49.214752,168.185181 46.577469,169.649124 43.953979,171.530853 
	C45.601208,167.472977 47.230339,163.780197 48.893600,160.010056 
	C50.474026,160.389984 51.737309,160.693665 52.999546,161.251129 
	C52.998528,161.674072 52.998547,161.843246 52.798393,162.285248 
	C52.578545,163.335815 52.558857,164.113541 52.539169,164.891281 
	C56.688343,164.592834 60.837509,164.294373 65.210098,164.264771 
	C70.478851,166.781662 75.585953,168.905121 80.530388,171.356674 
	C81.941048,172.056107 82.879585,173.707748 84.034615,174.922745 
z"/>
<path fill="#FDF5B1" opacity="1.000000" stroke="none" 
	d="
M44.968426,187.995117 
	C44.308208,194.354004 43.647991,200.712906 42.635147,207.596191 
	C41.518013,210.088806 40.753506,212.056992 39.650681,213.966248 
	C36.837101,211.257217 34.361843,208.607132 31.886589,205.957031 
	C30.270882,200.239594 28.655176,194.522141 27.422062,188.403748 
	C28.223797,187.990723 28.642939,187.978683 29.092911,188.182678 
	C29.123743,188.398743 29.130423,188.835205 29.090923,189.238678 
	C29.979738,192.627747 30.712337,195.696045 31.923449,198.562149 
	C32.483150,199.886688 34.083843,201.803207 35.022976,201.701462 
	C36.554146,201.535583 38.577286,200.246063 39.235016,198.875183 
	C40.559093,196.115433 41.103779,192.981750 42.086731,189.743103 
	C42.466278,188.980865 42.729126,188.477890 43.321571,187.980499 
	C44.090256,187.989105 44.529339,187.992111 44.968426,187.995117 
z"/>
<path fill="#4E4D60" opacity="1.000000" stroke="none" 
	d="
M43.935883,171.895935 
	C46.577469,169.649124 49.214752,168.185181 52.699112,170.586868 
	C53.513512,171.148224 55.219105,170.244598 56.486916,170.349701 
	C62.280052,170.830063 68.063316,171.429520 73.972916,172.335327 
	C72.529457,172.516708 70.914337,172.031189 69.409492,172.262619 
	C67.580376,172.543930 65.844200,173.429581 63.602680,174.518829 
	C56.117592,175.044128 49.097641,175.104370 42.018734,174.876358 
	C41.916729,174.397461 41.873676,174.206818 41.984886,173.755066 
	C42.738060,172.961288 43.336971,172.428604 43.935883,171.895935 
z"/>
<path fill="#FFF5CB" opacity="1.000000" stroke="none" 
	d="
M54.960220,215.975449 
	C55.157478,216.837326 55.354736,217.699203 55.770115,219.514130 
	C59.228287,213.855515 62.193512,209.003510 65.499084,204.084015 
	C63.490467,210.582626 61.141495,217.148697 58.104767,223.912933 
	C55.599571,226.075989 53.782131,228.040863 51.964691,230.005737 
	C51.969608,229.254913 51.974529,228.504089 52.254688,227.133804 
	C52.357555,224.676498 52.185177,222.838638 52.012802,221.000793 
	C52.308731,219.575195 52.604664,218.149612 53.267925,216.358917 
	C54.076912,215.987701 54.518566,215.981567 54.960220,215.975449 
z"/>
<path fill="#8F8F9C" opacity="1.000000" stroke="none" 
	d="
M84.137154,175.158508 
	C82.879585,173.707748 81.941048,172.056107 80.530388,171.356674 
	C75.585953,168.905121 70.478851,166.781662 65.231094,163.932434 
	C65.037567,162.887283 65.046455,162.443329 65.373642,161.999344 
	C66.115067,161.999451 66.538193,161.999603 66.961319,161.999756 
	C77.257454,163.212296 84.067215,169.716400 90.071297,177.360931 
	C90.482857,177.884933 90.090622,179.040253 89.598831,179.675156 
	C87.775246,178.286346 86.425026,177.124329 85.074806,175.962326 
	C84.796440,175.772964 84.518066,175.583603 84.137154,175.158508 
z"/>
<path fill="#C8C8D2" opacity="1.000000" stroke="none" 
	d="
M33.326485,163.195374 
	C34.025723,159.954483 35.045013,156.913376 36.380936,153.450027 
	C37.107903,153.049011 37.518230,153.070251 37.938820,153.548126 
	C37.946453,158.666107 37.943821,163.327454 37.901764,168.396683 
	C37.572918,171.869232 37.283497,174.933868 36.693405,178.244690 
	C36.302338,180.332123 36.211933,182.173370 36.081566,184.409058 
	C35.715794,186.294540 35.389988,187.785629 34.748024,188.983215 
	C34.302692,186.761124 34.384575,184.787750 33.987541,182.915985 
	C33.553200,180.868317 32.676201,178.914551 31.992123,176.919861 
	C32.664425,175.515305 33.336731,174.110733 34.033279,172.351059 
	C33.920525,169.129028 33.783527,166.262100 33.326485,163.195374 
z"/>
<path fill="#E8C24E" opacity="1.000000" stroke="none" 
	d="
M31.618469,176.979767 
	C32.676201,178.914551 33.553200,180.868317 33.987541,182.915985 
	C34.384575,184.787750 34.302692,186.761124 34.737442,189.274048 
	C34.810913,190.566925 34.578808,191.275452 33.985367,191.961639 
	C32.126160,190.904602 30.628292,189.869904 29.130424,188.835205 
	C29.130423,188.835205 29.123743,188.398743 29.097757,187.833923 
	C28.685320,186.485733 28.298868,185.702393 27.912415,184.919037 
	C29.023211,182.292572 30.134010,179.666122 31.618469,176.979767 
z"/>
<path fill="#E8A03D" opacity="1.000000" stroke="none" 
	d="
M68.990105,179.947800 
	C68.942902,180.962326 68.892090,182.009811 68.472092,183.535034 
	C63.969681,187.058136 60.700726,185.989868 58.046265,181.539764 
	C58.022869,180.440445 58.018990,179.705307 58.447655,178.975006 
	C61.613121,178.619812 64.346039,178.259766 67.078964,177.899719 
	C67.350540,178.080368 67.622124,178.260986 68.053238,178.924759 
	C68.492760,179.599564 68.772743,179.791229 69.052734,179.982895 
	C69.052734,179.982895 68.986496,179.980759 68.990105,179.947800 
z"/>
<path fill="#C4633E" opacity="1.000000" stroke="none" 
	d="
M67.059738,177.552612 
	C64.346039,178.259766 61.613121,178.619812 58.182579,178.703552 
	C52.328251,178.307327 47.171547,178.187393 41.950211,177.810226 
	C41.949615,176.756866 42.013653,175.960739 42.077690,175.164612 
	C49.097641,175.104370 56.117592,175.044128 63.544693,174.889709 
	C64.981400,175.598877 66.010948,176.402206 67.059738,177.552612 
z"/>
<path fill="#FFF5DF" opacity="1.000000" stroke="none" 
	d="
M51.685822,230.285706 
	C53.782131,228.040863 55.599571,226.075989 57.767052,224.076843 
	C57.333210,226.236847 56.464745,228.405701 55.794758,230.634216 
	C55.336643,232.157959 55.155262,233.764893 54.652191,235.813110 
	C54.245609,236.529572 54.112629,236.804169 54.055271,237.115402 
	C54.055271,237.115402 54.045170,237.032379 53.807472,237.195892 
	C53.394203,237.958633 53.218639,238.557846 53.043072,239.157074 
	C53.043072,239.157074 53.014812,239.590042 52.935715,239.791779 
	C51.989006,239.553543 50.355305,239.070984 50.377018,238.680496 
	C50.528019,235.964859 51.022564,233.268326 51.685822,230.285706 
z"/>
<path fill="#FDF9CE" opacity="1.000000" stroke="none" 
	d="
M31.585186,206.105591 
	C34.361843,208.607132 36.837101,211.257217 39.651825,214.379684 
	C40.319050,217.243668 40.646805,219.635300 40.628620,221.963348 
	C38.483639,219.948212 36.684593,217.996658 34.885548,216.045090 
	C33.684959,212.781433 32.484371,209.517792 31.585186,206.105591 
z"/>
<path fill="#FFFEEB" opacity="1.000000" stroke="none" 
	d="
M34.944275,216.421646 
	C36.684593,217.996658 38.483639,219.948212 40.633804,222.350647 
	C41.658340,225.198318 42.331749,227.595123 43.005161,229.991943 
	C42.740154,230.832321 42.475147,231.672714 42.079895,232.821564 
	C39.634102,227.686096 37.318554,222.242142 34.944275,216.421646 
z"/>
<path fill="#6E6E7E" opacity="1.000000" stroke="none" 
	d="
M85.091202,176.301163 
	C86.425026,177.124329 87.775246,178.286346 89.305801,179.760284 
	C89.486137,180.072205 89.373215,180.444351 89.268524,180.607971 
	C87.811745,179.394379 86.459671,178.017197 85.091202,176.301163 
z"/>
<path fill="#F7ED8E" opacity="1.000000" stroke="none" 
	d="
M27.597820,185.080673 
	C28.298868,185.702393 28.685320,186.485733 29.066925,187.617859 
	C28.642939,187.978683 28.223797,187.990723 27.490669,188.003754 
	C27.212198,187.083908 27.247713,186.163116 27.597820,185.080673 
z"/>
<path fill="#FFFCF5" opacity="1.000000" stroke="none" 
	d="
M53.341198,239.023865 
	C53.218639,238.557846 53.394203,237.958633 53.849182,237.198898 
	C53.965504,237.655823 53.802414,238.273239 53.341198,239.023865 
z"/>
<path fill="#FFFCF5" opacity="1.000000" stroke="none" 
	d="
M54.305779,237.026611 
	C54.112629,236.804169 54.245609,236.529572 54.643410,236.159348 
	C54.740501,236.330673 54.648392,236.634262 54.305779,237.026611 
z"/>
<path fill="#FFFEEB" opacity="1.000000" stroke="none" 
	d="
M42.095200,234.254761 
	C42.258720,234.272842 42.355373,234.531326 42.311199,234.881653 
	C42.170372,234.973511 42.028336,234.495132 42.095200,234.254761 
z"/>
<path fill="#F7DA6C" opacity="1.000000" stroke="none" 
	d="
M68.975037,179.724060 
	C68.772743,179.791229 68.492760,179.599564 68.103218,179.169952 
	C68.294891,179.109756 68.596115,179.287476 68.975037,179.724060 
z"/>
<path fill="#ECECF4" opacity="1.000000" stroke="none" 
	d="
M27.967363,20.920422 
	C31.423147,16.664715 34.878933,12.409007 38.658295,8.408537 
	C36.645523,13.523540 33.851284,18.224388 32.094769,23.285397 
	C30.129471,28.947958 33.369411,32.620060 39.466618,33.032616 
	C48.352566,33.633865 54.100403,28.694178 58.769691,22.128176 
	C59.708080,20.808607 59.812370,18.183092 59.187328,16.599304 
	C57.374146,12.004881 54.994652,7.633953 52.837364,3.175331 
	C52.837364,3.175331 52.954365,3.050224 53.012947,2.987748 
	C54.475014,3.633469 55.878490,4.341666 57.855724,5.473370 
	C58.690685,5.993451 58.951893,6.090024 59.213100,6.186599 
	C60.531120,7.413622 61.849144,8.640646 63.266518,10.484822 
	C63.588123,12.726712 63.810368,14.351450 64.023201,16.352642 
	C64.012672,17.482235 64.011566,18.235374 64.035904,19.329681 
	C62.467075,23.852564 61.641483,28.588228 59.113052,32.096729 
	C54.351021,38.704617 46.336960,36.843018 39.525127,38.005646 
	C34.456520,38.870747 31.076036,36.089931 29.025917,32.180138 
	C27.830429,29.900215 28.285898,26.754606 28.000042,23.613655 
	C27.990126,22.459360 27.978745,21.689890 27.967363,20.920422 
z"/>
<path fill="#A01902" opacity="1.000000" stroke="none" 
	d="
M86.849411,108.995651 
	C85.038376,114.710579 83.501381,120.532135 81.331894,126.107590 
	C79.508148,130.794510 76.947975,135.194885 74.039047,139.813110 
	C70.579811,139.603165 67.795334,139.302185 65.001556,138.646332 
	C64.322731,137.522385 63.653217,136.753296 63.110893,135.691589 
	C63.493973,134.599304 63.749866,133.799652 64.408653,132.999115 
	C72.259590,132.338715 77.650414,129.427307 79.177818,121.246193 
	C79.836784,117.716675 81.688942,114.409927 83.319580,110.957306 
	C84.709877,110.273636 85.779648,109.634644 86.849411,108.995651 
z"/>
<path fill="#B8B8C4" opacity="1.000000" stroke="none" 
	d="
M95.983566,163.661331 
	C96.170593,167.294144 96.406441,170.596832 96.424942,173.900742 
	C96.433350,175.402130 96.011398,176.905930 95.784660,178.408646 
	C94.530769,177.620117 92.967926,177.086716 92.072388,176.002243 
	C85.542450,168.094711 78.226219,161.382431 67.435532,158.653336 
	C66.981018,157.861176 66.931450,157.416199 66.979309,156.988464 
	C67.076736,157.005707 67.272209,157.036560 67.630295,157.028992 
	C69.661522,157.341644 71.334656,157.661880 73.380920,157.987518 
	C74.500008,158.001617 75.245972,158.010300 76.101898,158.235046 
	C76.412727,158.718262 76.671455,158.905426 77.044846,159.355301 
	C79.823792,161.503830 82.487190,163.407257 85.283203,165.090393 
	C88.644173,167.113632 91.947929,168.622955 92.212341,162.366226 
	C92.232689,161.884842 93.369179,161.450653 94.130920,161.225540 
	C94.769173,161.644821 95.263382,161.833084 95.757584,162.021362 
	C95.819618,162.458145 95.881653,162.894913 95.983566,163.661331 
z"/>
<path fill="#E26F77" opacity="1.000000" stroke="none" 
	d="
M88.816269,60.004734 
	C88.871391,60.439915 88.926514,60.875092 88.714798,61.768768 
	C87.424057,62.101402 86.203621,62.292469 85.407722,61.798923 
	C79.668304,58.239891 73.403587,61.096050 72.008636,68.382126 
	C72.005714,69.506447 72.010559,70.256195 72.006973,71.335205 
	C71.995934,72.103615 71.993301,72.542770 71.734894,72.885727 
	C71.010475,72.510201 70.541824,72.230865 70.053131,71.519058 
	C70.021027,69.059074 70.008980,67.031570 70.272186,64.747025 
	C72.058052,61.151928 73.292778,57.644333 75.195885,54.547485 
	C76.144104,53.004501 78.316322,52.213707 80.261276,51.151836 
	C82.007721,51.854740 83.427742,52.488468 84.847771,53.122196 
	C85.561615,54.159565 86.275459,55.196938 87.079910,56.785328 
	C87.318558,57.626736 87.537369,57.846752 87.826950,57.996391 
	C87.826950,57.996391 87.961693,58.437588 88.060341,58.892502 
	C88.307663,59.636925 88.526756,59.856033 88.816269,60.004734 
z"/>
<path fill="#746F7E" opacity="1.000000" stroke="none" 
	d="
M84.900070,52.691544 
	C83.427742,52.488468 82.007721,51.854740 79.895462,51.113167 
	C77.792763,50.662983 76.382286,50.320644 74.634689,49.806473 
	C71.587212,49.160645 68.876854,48.686657 65.792953,48.152611 
	C64.914612,48.093395 64.409813,48.094234 63.491188,48.020386 
	C55.735683,47.680241 48.394005,47.414783 40.790535,47.115074 
	C40.354759,47.105145 40.180779,47.129467 40.003975,46.862621 
	C39.997818,46.377350 39.994495,46.183254 40.459061,45.997833 
	C48.949429,45.366215 56.971920,44.725922 65.370087,44.081261 
	C66.496925,44.090240 67.248093,44.103584 68.261147,44.387463 
	C73.976105,45.757668 79.429169,46.857338 84.882233,47.957008 
	C84.905609,49.391636 84.928986,50.826260 84.900070,52.691544 
z"/>
<path fill="#DEDEE7" opacity="1.000000" stroke="none" 
	d="
M64.010460,18.988512 
	C64.011566,18.235374 64.012672,17.482235 64.491425,16.351849 
	C65.878204,15.785955 66.787346,15.597312 67.696487,15.408669 
	C67.696487,15.408669 67.929832,15.662465 67.695648,16.229431 
	C67.792282,18.519876 67.932236,20.307371 68.485321,21.956293 
	C71.716248,31.588747 69.278595,36.559841 59.630630,40.156372 
	C58.861282,40.443172 58.503731,41.834660 57.542458,42.787834 
	C55.745090,42.766319 54.360077,42.669750 52.773350,42.297009 
	C50.959484,38.538368 54.012035,39.025394 55.609177,38.711662 
	C62.135250,37.429699 65.664818,33.033241 66.618484,27.006611 
	C67.009850,24.533407 64.953415,21.672861 64.010460,18.988512 
z"/>
<path fill="#D2D2DB" opacity="1.000000" stroke="none" 
	d="
M57.954811,42.712776 
	C58.503731,41.834660 58.861282,40.443172 59.630630,40.156372 
	C69.278595,36.559841 71.716248,31.588747 68.485321,21.956293 
	C67.932236,20.307371 67.792282,18.519876 67.740082,16.395990 
	C69.334290,17.748987 70.649879,19.502392 71.749313,21.838848 
	C71.761360,24.347950 71.856674,26.300970 72.241096,28.195316 
	C73.798302,35.868603 73.311264,36.836609 66.180656,40.495132 
	C65.272591,40.961033 64.688560,42.058510 63.528305,42.899616 
	C61.386402,42.861485 59.670605,42.787128 57.954811,42.712776 
z"/>
<path fill="#DB5F62" opacity="1.000000" stroke="none" 
	d="
M72.016396,68.007545 
	C73.403587,61.096050 79.668304,58.239891 85.407722,61.798923 
	C86.203621,62.292469 87.424057,62.101402 88.766006,62.094612 
	C89.708618,63.722328 90.333183,65.482697 90.522141,67.612549 
	C84.057892,64.266022 78.036552,65.720100 72.016396,68.007545 
z"/>
<path fill="#C1C1CC" opacity="1.000000" stroke="none" 
	d="
M63.954407,42.863388 
	C64.688560,42.058510 65.272591,40.961033 66.180656,40.495132 
	C73.311264,36.836609 73.798302,35.868603 72.241096,28.195316 
	C71.856674,26.300970 71.761360,24.347950 71.805084,22.196918 
	C73.379875,23.737419 74.682716,25.502905 75.771103,27.847874 
	C76.667412,34.106071 76.509636,39.386597 70.642754,42.990059 
	C69.531670,43.370174 68.765465,43.743549 67.999252,44.116928 
	C67.248093,44.103584 66.496925,44.090240 65.268921,43.824730 
	C64.512856,43.336178 64.233635,43.099785 63.954407,42.863388 
z"/>
<path fill="#C0C0CB" opacity="1.000000" stroke="none" 
	d="
M93.986877,160.994522 
	C93.369179,161.450653 92.232689,161.884842 92.212341,162.366226 
	C91.947929,168.622955 88.644173,167.113632 85.283203,165.090393 
	C82.487190,163.407257 79.823792,161.503830 77.418884,159.392548 
	C79.865326,159.901978 81.944168,161.127075 84.140305,161.396683 
	C85.779411,161.597916 88.028542,161.052109 89.183876,159.965134 
	C90.844536,158.402725 91.757912,156.046036 93.183250,154.026611 
	C93.376236,154.024857 93.762177,154.030838 93.762177,154.030838 
	C93.826508,154.454285 93.890839,154.877731 94.029037,155.842285 
	C94.228035,156.672501 94.435707,156.878311 94.725937,157.000809 
	C94.794922,157.748962 94.863907,158.497116 94.748123,159.718323 
	C94.371201,160.459076 94.179039,160.726791 93.986877,160.994522 
z"/>
<path fill="#D14D4F" opacity="1.000000" stroke="none" 
	d="
M71.990677,72.981918 
	C71.993301,72.542770 71.995934,72.103615 72.427574,71.323227 
	C78.850754,70.986633 84.844917,70.991272 90.839081,70.995918 
	C91.210876,71.775055 91.582672,72.554192 91.525360,73.613968 
	C84.741692,73.936165 78.387131,73.977730 72.021027,73.759995 
	C72.003212,73.327774 71.996941,73.154846 71.990677,72.981918 
z"/>
<path fill="#D55559" opacity="1.000000" stroke="none" 
	d="
M90.903870,70.622826 
	C84.844917,70.991272 78.850754,70.986633 72.435989,70.993973 
	C72.010559,70.256195 72.005714,69.506447 72.008636,68.382126 
	C78.036552,65.720100 84.057892,64.266022 90.456093,67.987442 
	C90.873329,68.745155 90.920990,69.497444 90.903870,70.622826 
z"/>
<path fill="#9D9DA9" opacity="1.000000" stroke="none" 
	d="
M68.261147,44.387463 
	C68.765465,43.743549 69.531670,43.370174 71.070663,43.002155 
	C76.096848,43.640148 79.308640,41.887028 81.864822,38.632263 
	C82.889359,41.484913 83.913895,44.337563 84.910332,47.573608 
	C79.429169,46.857338 73.976105,45.757668 68.261147,44.387463 
z"/>
<path fill="#D6D6E0" opacity="1.000000" stroke="none" 
	d="
M72.199059,146.237488 
	C73.248032,146.205078 74.297012,146.172684 75.700989,146.677277 
	C75.799965,149.498642 76.271400,151.011810 79.097229,151.080261 
	C81.737198,151.144211 84.365753,151.679718 86.826698,152.329803 
	C80.945419,156.601791 74.306763,155.490875 69.899948,149.632599 
	C69.911407,149.418839 70.002785,149.000565 70.297791,148.969757 
	C71.091789,148.417450 71.590782,147.895966 72.152939,147.093658 
	C72.210419,146.621078 72.204742,146.429276 72.199059,146.237488 
z"/>
<path fill="#B1B1BC" opacity="1.000000" stroke="none" 
	d="
M81.882462,38.244370 
	C79.308640,41.887028 76.096848,43.640148 71.415543,42.995419 
	C76.509636,39.386597 76.667412,34.106071 75.833862,28.193214 
	C78.040749,31.258204 79.970421,34.557339 81.882462,38.244370 
z"/>
<path fill="#CC4646" opacity="1.000000" stroke="none" 
	d="
M72.032578,74.019295 
	C78.387131,73.977730 84.741692,73.936165 91.462326,73.942459 
	C92.198792,75.410057 92.569183,76.829796 92.582779,78.623947 
	C91.818428,78.997787 91.410889,78.997215 90.991684,78.612030 
	C90.288292,77.558784 89.586052,76.302071 88.906456,76.314194 
	C83.279045,76.414566 77.655815,76.749672 72.022003,76.639236 
	C72.019302,75.516243 72.025940,74.767769 72.032578,74.019295 
z"/>
<path fill="#B05239" opacity="1.000000" stroke="none" 
	d="
M92.855835,82.985840 
	C93.451134,91.764381 91.497444,100.029655 87.426376,107.567329 
	C87.371132,104.140831 87.718674,101.096680 88.445663,97.942749 
	C89.240135,94.547623 89.655159,91.262283 90.204315,87.660583 
	C90.563782,86.231003 90.789108,85.117767 91.019066,83.760475 
	C91.023689,83.516411 91.028572,83.028221 91.333427,83.019867 
	C92.044136,83.002953 92.449982,82.994400 92.855835,82.985840 
z"/>
<path fill="#C6C6D1" opacity="1.000000" stroke="none" 
	d="
M92.990265,154.028381 
	C91.757912,156.046036 90.844536,158.402725 89.183876,159.965134 
	C88.028542,161.052109 85.779411,161.597916 84.140305,161.396683 
	C81.944168,161.127075 79.865326,159.901978 77.362076,159.049866 
	C76.671455,158.905426 76.412727,158.718262 76.334190,157.963120 
	C78.019997,157.654510 79.607727,157.716736 81.142532,158.034546 
	C86.493309,159.142578 88.510048,157.652084 89.272659,152.077606 
	C89.518250,152.076675 90.009438,152.075058 90.225677,152.312103 
	C90.844963,152.686859 91.248009,152.824585 91.651047,152.962296 
	C91.982399,152.764313 92.313751,152.566330 92.817551,152.915680 
	C92.990074,153.651474 92.990166,153.839920 92.990265,154.028381 
z"/>
<path fill="#DEDEE7" opacity="1.000000" stroke="none" 
	d="
M90.009438,152.075058 
	C90.009438,152.075058 89.518250,152.076675 88.934883,152.052521 
	C87.900787,152.021469 87.450058,152.014572 86.999329,152.007660 
	C84.365753,151.679718 81.737198,151.144211 79.097229,151.080261 
	C76.271400,151.011810 75.799965,149.498642 76.086227,146.760651 
	C79.858391,147.198395 83.655426,147.913452 87.318100,149.058365 
	C89.050934,149.600006 90.526642,150.964249 91.502533,152.170532 
	C90.593964,152.281891 90.301697,152.178482 90.009438,152.075058 
z"/>
<path fill="#93939F" opacity="1.000000" stroke="none" 
	d="
M70.002785,149.000565 
	C70.002785,149.000565 69.911407,149.418839 69.675400,149.673920 
	C69.439384,149.929016 68.986076,149.996002 68.627075,149.931610 
	C66.420296,145.574814 62.709755,145.731506 59.055290,145.737000 
	C59.398849,145.067352 59.651318,144.632538 60.298889,144.111313 
	C62.449352,143.626678 64.204720,143.228439 66.375694,142.909164 
	C68.478287,143.028244 70.165276,143.068359 71.852257,143.108475 
	C71.914070,143.947845 71.975876,144.787231 72.118370,145.932037 
	C72.204742,146.429276 72.210419,146.621078 71.831924,147.016998 
	C70.966095,147.814270 70.484436,148.407425 70.002785,149.000565 
z"/>
<path fill="#9A1A0F" opacity="1.000000" stroke="none" 
	d="
M72.171005,142.987854 
	C70.165276,143.068359 68.478287,143.028244 66.228836,142.609558 
	C65.445709,141.159271 65.225044,140.087540 65.002663,139.010193 
	C65.000946,139.004562 65.010864,139.001221 65.010864,139.001221 
	C67.795334,139.302185 70.579811,139.603165 73.729912,139.973206 
	C73.560287,140.983932 73.025024,141.925598 72.171005,142.987854 
z"/>
<path fill="#A81706" opacity="1.000000" stroke="none" 
	d="
M88.066208,98.052536 
	C87.718674,101.096680 87.371132,104.140831 87.045494,107.613869 
	C87.067390,108.042763 86.978355,108.523727 86.913879,108.759689 
	C85.779648,109.634644 84.709877,110.273636 83.345131,110.637482 
	C83.362793,109.571075 83.675438,108.779816 83.998375,107.597519 
	C84.675034,104.141747 85.341393,101.077011 86.233582,97.922493 
	C86.995003,97.905991 87.530609,97.979263 88.066208,98.052536 
z"/>
<path fill="#D2D2DB" opacity="1.000000" stroke="none" 
	d="
M67.485405,15.148842 
	C66.787346,15.597312 65.878204,15.785955 64.500839,15.975393 
	C63.810368,14.351450 63.588123,12.726712 63.470318,10.703522 
	C64.807945,11.833051 66.041138,13.361033 67.485405,15.148842 
z"/>
<path fill="#C6413E" opacity="1.000000" stroke="none" 
	d="
M92.913574,82.588661 
	C92.449982,82.994400 92.044136,83.002953 91.323631,82.616928 
	C91.003563,81.150764 90.998146,80.079185 90.995728,79.004478 
	C90.998718,79.001350 91.003342,78.996643 91.003342,78.996643 
	C91.410889,78.997215 91.818428,78.997787 92.530716,78.995399 
	C92.880737,80.058784 92.926025,81.125137 92.913574,82.588661 
z"/>
<path fill="#AAAAB5" opacity="1.000000" stroke="none" 
	d="
M94.130920,161.225540 
	C94.179039,160.726791 94.371201,160.459076 94.793083,160.092438 
	C95.324226,160.466248 95.625641,160.938965 95.842316,161.716522 
	C95.263382,161.833084 94.769173,161.644821 94.130920,161.225540 
z"/>
<path fill="#D2D2DB" opacity="1.000000" stroke="none" 
	d="
M59.167076,5.953074 
	C58.951893,6.090024 58.690685,5.993451 58.205193,5.544456 
	C58.360954,5.367874 58.741005,5.543712 59.167076,5.953074 
z"/>
<path fill="#DB5F62" opacity="1.000000" stroke="none" 
	d="
M88.851471,59.740746 
	C88.526756,59.856033 88.307663,59.636925 88.097214,59.120190 
	C88.319183,59.087563 88.602928,59.282162 88.851471,59.740746 
z"/>
<path fill="#DB5F62" opacity="1.000000" stroke="none" 
	d="
M87.859993,57.733395 
	C87.537369,57.846752 87.318558,57.626736 87.110046,57.108536 
	C87.330734,57.077282 87.611885,57.273838 87.859993,57.733395 
z"/>
<path fill="#AAAAB5" opacity="1.000000" stroke="none" 
	d="
M94.791367,156.749802 
	C94.435707,156.878311 94.228035,156.672501 94.062897,156.163254 
	C94.300842,156.128342 94.578812,156.313568 94.791367,156.749802 
z"/>
<path fill="#AAAAB5" opacity="1.000000" stroke="none" 
	d="
M93.183243,154.026611 
	C92.990166,153.839920 92.990074,153.651474 93.010178,153.180328 
	C93.311646,153.101166 93.592926,153.304718 93.818192,153.769547 
	C93.762177,154.030838 93.376236,154.024857 93.183243,154.026611 
z"/>
<path fill="#CCCCD7" opacity="1.000000" stroke="none" 
	d="
M90.225677,152.312103 
	C90.301697,152.178482 90.593964,152.281891 91.293938,152.612030 
	C91.701653,152.838791 91.625328,152.881073 91.638184,152.921692 
	C91.248009,152.824585 90.844963,152.686859 90.225677,152.312103 
z"/>
<path fill="#F1F1FA" opacity="1.000000" stroke="none" 
	d="
M52.423958,3.116227 
	C54.994652,7.633953 57.374146,12.004881 59.187328,16.599304 
	C59.812370,18.183092 59.708080,20.808607 58.769691,22.128176 
	C54.100403,28.694178 48.352566,33.633865 39.466618,33.032616 
	C33.369411,32.620060 30.129471,28.947958 32.094769,23.285397 
	C33.851284,18.224388 36.645523,13.523540 38.975891,8.288884 
	C40.083630,6.669043 41.197346,5.424089 42.610489,4.074550 
	C45.943459,3.665684 48.977001,3.361403 52.423958,3.116227 
z"/>
<path fill="#DEDEE7" opacity="1.000000" stroke="none" 
	d="
M27.638649,21.048489 
	C27.978745,21.689890 27.990126,22.459360 27.678802,23.787851 
	C25.316881,27.483063 23.464985,31.039993 26.086596,34.317272 
	C29.150370,38.147297 32.876270,41.283085 38.680920,40.417751 
	C41.004391,40.071377 43.572453,41.365700 45.594685,41.944359 
	C42.749287,42.605274 40.338383,43.235039 37.561722,43.889992 
	C36.463066,43.916496 35.730160,43.917812 34.722023,43.648796 
	C33.142773,43.248260 31.837156,43.132298 30.535036,42.985340 
	C25.317982,42.396545 20.759905,38.478214 19.953415,33.900700 
	C22.405588,29.659319 24.857763,25.417936 27.638649,21.048489 
z"/>
<path fill="#C8C8D2" opacity="1.000000" stroke="none" 
	d="
M28.946747,156.992111 
	C27.640856,157.155396 26.285185,157.147766 25.037558,157.511124 
	C19.165434,159.221268 13.454692,160.144562 8.255051,155.009827 
	C8.038201,154.375336 8.186578,153.780319 9.034357,153.037109 
	C12.289235,152.805481 14.863606,152.887680 17.395643,152.598801 
	C20.965446,152.191544 24.503899,151.509506 28.281073,150.966980 
	C28.506392,150.988998 28.958717,151.009323 28.960173,151.436508 
	C28.956667,153.573166 28.951708,155.282639 28.946747,156.992111 
z"/>
<path fill="#C4C4CE" opacity="1.000000" stroke="none" 
	d="
M19.617413,34.054802 
	C20.759905,38.478214 25.317982,42.396545 30.535036,42.985340 
	C31.837156,43.132298 33.142773,43.248260 34.709419,43.955208 
	C34.921783,44.936050 34.871506,45.340157 34.477219,45.782417 
	C33.440533,45.816364 32.747856,45.812160 31.743759,45.561886 
	C25.921511,46.183540 20.410679,47.051266 14.899846,47.918995 
	C16.360369,43.348965 17.820890,38.778934 19.617413,34.054802 
z"/>
<path fill="#B7534C" opacity="1.000000" stroke="none" 
	d="
M15.151482,121.031380 
	C15.089896,120.594604 15.028312,120.157829 15.177757,119.219986 
	C15.590853,117.479103 15.792918,116.239288 16.267855,115.228745 
	C17.998562,118.315887 19.456398,121.173752 20.941992,124.412231 
	C23.331350,130.867859 25.692953,136.942886 28.068592,143.024765 
	C28.082632,143.031616 28.111240,143.053238 28.111240,143.053238 
	C26.609112,141.749557 24.571033,140.729446 23.703608,139.089966 
	C20.908287,133.806595 18.544342,128.294998 15.918257,122.277679 
	C15.680779,121.382126 15.457130,121.164604 15.151482,121.031380 
z"/>
<path fill="#E77E88" opacity="1.000000" stroke="none" 
	d="
M7.896743,71.970963 
	C9.011631,67.407364 10.126518,62.843761 11.850098,58.332806 
	C12.558474,60.131031 12.658157,61.876617 12.827799,64.847252 
	C14.337084,62.534786 15.167320,61.262730 16.164917,60.319069 
	C18.440611,61.509487 20.548948,62.371506 22.486839,63.520905 
	C21.210909,64.870743 20.105427,65.933212 18.669197,66.851868 
	C13.670221,64.342049 13.542479,68.739861 11.645288,71.131668 
	C10.180024,71.509972 9.038383,71.740463 7.896743,71.970963 
z"/>
<path fill="#CE5F64" opacity="1.000000" stroke="none" 
	d="
M8.163387,98.987259 
	C7.449036,94.944588 6.734685,90.901909 6.502975,86.428040 
	C12.278598,86.629410 10.787148,82.745453 10.989076,79.589867 
	C10.997326,78.133499 11.002942,77.074318 11.320692,75.968338 
	C12.672589,75.287193 13.712354,74.652847 14.660494,74.369469 
	C14.074758,77.137276 13.580646,79.554131 13.022655,82.385696 
	C13.000031,84.192810 13.041286,85.585197 13.012903,87.237534 
	C12.894715,87.670174 12.846165,87.842880 12.566578,88.285110 
	C11.227860,92.036102 10.120178,95.517593 8.800207,98.997025 
	C8.587917,98.994972 8.163386,98.987259 8.163387,98.987259 
z"/>
<path fill="#E3E3EC" opacity="1.000000" stroke="none" 
	d="
M28.055754,150.944946 
	C24.503899,151.509506 20.965446,152.191544 17.395643,152.598801 
	C14.863606,152.887680 12.289235,152.805481 9.328039,152.933929 
	C11.908990,151.330490 14.767344,149.350418 17.919853,148.130493 
	C20.840811,147.000168 24.076250,146.682526 27.588814,146.390167 
	C28.021532,148.163864 28.038643,149.554413 28.055754,150.944946 
z"/>
<path fill="#A7A6B1" opacity="1.000000" stroke="none" 
	d="
M28.281073,150.966980 
	C28.038643,149.554413 28.021532,148.163864 27.996555,146.354553 
	C28.019899,145.214264 28.051107,144.492767 28.096779,143.412247 
	C28.111240,143.053238 28.082632,143.031616 28.505672,143.042664 
	C30.973730,143.110687 33.018749,143.167648 35.059086,143.576035 
	C36.123417,148.739990 39.700996,145.447861 42.005531,146.424011 
	C41.621387,147.807388 41.290821,148.862305 40.644737,149.962219 
	C39.558971,150.359390 38.788719,150.711548 37.957626,150.716431 
	C36.868179,150.201172 35.814354,149.803925 34.816322,149.913727 
	C32.847443,150.130356 30.909472,150.627945 28.958717,151.009323 
	C28.958717,151.009323 28.506392,150.988998 28.281073,150.966980 
z"/>
<path fill="#EE99A5" opacity="1.000000" stroke="none" 
	d="
M15.997557,59.990677 
	C15.167320,61.262730 14.337084,62.534786 12.827799,64.847252 
	C12.658157,61.876617 12.558474,60.131031 12.179998,58.167625 
	C12.609175,56.547386 13.317142,55.144974 14.413425,53.396370 
	C15.533728,52.694801 16.265713,52.339420 16.997955,51.991028 
	C16.998215,51.998016 16.984934,51.993031 17.220055,51.896523 
	C17.653236,51.534897 17.851299,51.269779 18.020870,51.002037 
	C17.992380,50.999409 18.002249,51.055775 18.378483,51.051529 
	C19.504826,50.997288 20.254932,50.947296 20.866913,51.250275 
	C20.482794,53.068630 20.236801,54.534012 19.699766,56.020317 
	C18.949184,56.351700 18.489645,56.662155 17.685495,57.032684 
	C16.893108,58.058731 16.445332,59.024704 15.997557,59.990677 
z"/>
<path fill="#C15D5B" opacity="1.000000" stroke="none" 
	d="
M8.103113,99.378052 
	C8.163386,98.987259 8.587917,98.994972 9.117352,99.171211 
	C11.094615,101.899170 12.542445,104.450890 13.994503,107.376274 
	C14.005532,108.497276 14.012335,109.244621 14.018103,110.344856 
	C14.670722,111.469635 15.324374,112.241516 15.981624,113.344421 
	C15.988474,114.116776 15.991728,114.558128 15.994982,114.999474 
	C15.792918,116.239288 15.590853,117.479103 15.140568,118.890366 
	C12.609179,112.630814 10.326009,106.199829 8.103113,99.378052 
z"/>
<path fill="#9D9DA9" opacity="1.000000" stroke="none" 
	d="
M14.933464,47.933716 
	C20.410679,47.051266 25.921511,46.183540 31.493324,45.878456 
	C27.036951,47.979324 22.519600,49.517551 18.002249,51.055779 
	C18.002249,51.055775 17.992380,50.999409 17.785221,51.096275 
	C17.380352,51.459774 17.182642,51.726402 16.984932,51.993031 
	C16.984934,51.993031 16.998215,51.998016 16.645260,51.992058 
	C15.587337,51.978119 14.882367,51.970146 14.177398,51.962170 
	C14.115707,51.203087 14.054017,50.444008 14.272108,49.189926 
	C14.737905,48.444817 14.879849,48.171791 14.977722,47.875843 
	C14.977722,47.875843 14.967082,47.948433 14.933464,47.933716 
z"/>
<path fill="#DC6F75" opacity="1.000000" stroke="none" 
	d="
M11.008557,76.015137 
	C11.002942,77.074318 10.997326,78.133499 10.636137,79.557495 
	C8.908291,79.611359 7.536018,79.300400 6.163746,78.989441 
	C6.508494,76.757347 6.853240,74.525261 7.547365,72.132065 
	C9.038383,71.740463 10.180024,71.509972 11.883505,71.330261 
	C11.966416,72.925743 11.487486,74.470444 11.008557,76.015137 
z"/>
<path fill="#D5656A" opacity="1.000000" stroke="none" 
	d="
M6.090613,79.422554 
	C7.536018,79.300400 8.908291,79.611359 10.633503,79.954681 
	C10.787148,82.745453 12.278598,86.629410 6.574407,85.994736 
	C6.114626,83.946968 6.066054,81.901314 6.090613,79.422554 
z"/>
<path fill="#847E8C" opacity="1.000000" stroke="none" 
	d="
M14.111307,52.232872 
	C14.882367,51.970146 15.587337,51.978119 16.645000,51.985069 
	C16.265713,52.339420 15.533728,52.694801 14.480072,53.049717 
	C14.120674,52.867359 14.082945,52.685467 14.111307,52.232872 
z"/>
<path fill="#C4C4CE" opacity="1.000000" stroke="none" 
	d="
M14.740129,47.971272 
	C14.879849,48.171791 14.737905,48.444817 14.356268,48.817513 
	C14.274610,48.648972 14.388573,48.357834 14.740129,47.971272 
z"/>
<path fill="#C15D5B" opacity="1.000000" stroke="none" 
	d="
M15.147939,121.290268 
	C15.457130,121.164604 15.680779,121.382126 15.895572,121.910919 
	C15.693944,121.941635 15.419170,121.745399 15.147939,121.290268 
z"/>
<path fill="#9F9FAC" opacity="1.000000" stroke="none" 
	d="
M28.960175,151.436508 
	C30.909472,150.627945 32.847443,150.130356 34.816322,149.913727 
	C35.814354,149.803925 36.868179,150.201172 37.951065,151.053604 
	C37.979755,152.189194 37.954159,152.640335 37.928558,153.091492 
	C37.518230,153.070251 37.107903,153.049011 36.390705,153.025909 
	C34.194366,154.177567 32.304897,155.331100 30.201138,156.748489 
	C29.813677,157.009064 29.640509,157.005798 29.207047,156.997314 
	C28.951708,155.282639 28.956667,153.573166 28.960175,151.436508 
z"/>
<path fill="#7A7A88" opacity="1.000000" stroke="none" 
	d="
M66.881882,156.971222 
	C66.931450,157.416199 66.981018,157.861176 67.055527,158.640930 
	C67.049469,159.732010 67.018478,160.488327 66.974396,161.622192 
	C66.538193,161.999603 66.115067,161.999451 64.907181,161.996490 
	C60.414474,161.999924 56.706516,162.006165 52.998562,162.012421 
	C52.998547,161.843246 52.998528,161.674072 53.195702,160.979370 
	C57.571331,158.061691 61.030205,152.882553 66.881882,156.971222 
z"/>
<path fill="#FFF5DF" opacity="1.000000" stroke="none" 
	d="
M54.969734,215.578400 
	C54.518566,215.981567 54.076912,215.987701 53.303055,215.993820 
	C52.909950,213.047958 52.798157,210.102020 52.802971,207.156265 
	C52.807468,204.403000 52.935692,201.649933 53.355366,198.442932 
	C54.150063,197.991043 54.598854,197.993011 55.047649,197.994965 
	C55.045261,198.432343 55.042877,198.869720 55.024448,200.042389 
	C55.017612,201.862885 55.026817,202.948090 55.036022,204.033295 
	C55.034962,204.773880 55.033894,205.514450 54.761395,206.851715 
	C54.657734,208.965408 54.825508,210.482407 54.993286,211.999420 
	C54.988605,213.060059 54.983925,214.120697 54.969734,215.578400 
z"/>
<path fill="#FFF5CB" opacity="1.000000" stroke="none" 
	d="
M55.312721,197.743347 
	C54.598854,197.993011 54.150063,197.991043 53.365738,197.984756 
	C53.025188,196.917831 53.020161,195.855240 53.020859,194.393463 
	C53.519329,193.432892 54.012074,192.871475 54.743584,192.155365 
	C55.180832,193.831009 55.379311,195.661362 55.312721,197.743347 
z"/>
<path fill="#FFF5DF" opacity="1.000000" stroke="none" 
	d="
M51.738068,221.246033 
	C52.185177,222.838638 52.357555,224.676498 52.252312,226.758362 
	C51.804237,225.165344 51.633781,223.328323 51.738068,221.246033 
z"/>
<path fill="#F7DA6C" opacity="1.000000" stroke="none" 
	d="
M58.065781,181.903961 
	C60.700726,185.989868 63.969681,187.058136 68.447510,183.927338 
	C67.602150,188.927261 66.412186,194.012589 65.222214,199.097916 
	C64.389427,199.197220 63.556633,199.296539 62.723846,199.395844 
	C60.848679,195.837936 58.973507,192.280014 57.053867,187.934830 
	C56.987423,185.443680 56.965450,183.739807 57.224735,182.006165 
	C57.692593,181.952240 57.879185,181.928101 58.065781,181.903961 
z"/>
<path fill="#F8D1B2" opacity="1.000000" stroke="none" 
	d="
M56.943474,182.035934 
	C56.965450,183.739807 56.987423,185.443680 56.999344,187.573380 
	C56.543545,187.997696 56.097794,187.996170 55.317253,187.995178 
	C54.633953,187.452682 54.361279,186.836914 53.922977,186.380051 
	C52.509087,184.906296 51.034225,183.491058 49.582863,182.053253 
	C48.145515,183.815384 46.708172,185.577515 45.119629,187.667389 
	C44.529339,187.992111 44.090256,187.989105 43.324829,187.585815 
	C43.336018,185.132660 43.673542,183.079788 44.339622,180.851425 
	C49.119274,177.885941 53.167645,178.730972 56.943474,182.035934 
z"/>
<path fill="#FFF5CB" opacity="1.000000" stroke="none" 
	d="
M55.261993,211.770050 
	C54.825508,210.482407 54.657734,208.965408 54.765106,207.221985 
	C55.203735,208.510605 55.367218,210.025635 55.261993,211.770050 
z"/>
<path fill="#FFF5CB" opacity="1.000000" stroke="none" 
	d="
M55.376747,203.961243 
	C55.026817,202.948090 55.017612,201.862885 55.024956,200.370422 
	C57.710056,200.851151 57.636745,202.211243 55.376747,203.961243 
z"/>
<path fill="#FFE8C7" opacity="1.000000" stroke="none" 
	d="
M43.397648,229.902069 
	C42.331749,227.595123 41.658340,225.198318 40.979744,222.414215 
	C40.646805,219.635300 40.319050,217.243668 39.990147,214.438629 
	C40.753506,212.056992 41.518013,210.088806 42.633636,208.057724 
	C43.657185,214.122894 44.406284,220.244400 44.931175,226.385056 
	C45.025356,227.486862 44.194103,228.667786 43.397648,229.902069 
z"/>
<path fill="#848492" opacity="1.000000" stroke="none" 
	d="
M66.979309,156.988464 
	C61.030205,152.882553 57.571331,158.061691 53.196743,160.725616 
	C51.737309,160.693665 50.474026,160.389984 48.893600,160.010056 
	C47.230339,163.780197 45.601208,167.472977 43.953979,171.530853 
	C43.336971,172.428604 42.738060,172.961288 41.645424,173.833542 
	C40.103462,175.782684 39.055237,177.392258 37.895958,178.781891 
	C37.585289,178.284332 37.321678,178.096512 36.994072,177.998520 
	C37.283497,174.933868 37.572918,171.869232 38.253998,168.367523 
	C41.393269,164.599045 44.148106,161.273560 46.884842,157.933243 
	C47.942581,156.642212 48.959244,155.317520 50.018375,154.304718 
	C50.360817,155.070312 50.679508,155.539352 51.042999,156.323242 
	C51.958538,156.684143 53.217411,157.121338 53.633083,156.708847 
	C55.472523,154.883438 57.100216,152.838898 58.747791,150.827179 
	C61.790215,147.112350 63.495171,147.200958 66.371552,151.177795 
	C66.694351,151.624069 67.474518,151.739532 68.038925,152.382477 
	C68.112091,153.500397 68.188904,154.244217 68.102440,155.233444 
	C67.716843,155.998077 67.494522,156.517319 67.272209,157.036560 
	C67.272209,157.036560 67.076736,157.005707 66.979309,156.988464 
z"/>
<path fill="#5D5D6E" opacity="1.000000" stroke="none" 
	d="
M52.798393,162.285248 
	C56.706516,162.006165 60.414474,161.999924 64.588882,161.996536 
	C65.046455,162.443329 65.037567,162.887283 65.007675,163.663574 
	C60.837509,164.294373 56.688343,164.592834 52.539169,164.891281 
	C52.558857,164.113541 52.578545,163.335815 52.798393,162.285248 
z"/>
<path fill="#F7ED8E" opacity="1.000000" stroke="none" 
	d="
M29.090925,189.238678 
	C30.628292,189.869904 32.126160,190.904602 33.892029,192.324661 
	C34.281525,195.072983 35.272831,195.904770 36.868999,193.782303 
	C37.879646,192.438446 38.215149,190.586823 39.161797,189.087433 
	C40.303440,189.475388 41.136738,189.738861 41.970032,190.002350 
	C41.103779,192.981750 40.559093,196.115433 39.235016,198.875183 
	C38.577286,200.246063 36.554146,201.535583 35.022976,201.701462 
	C34.083843,201.803207 32.483150,199.886688 31.923449,198.562149 
	C30.712337,195.696045 29.979738,192.627747 29.090925,189.238678 
z"/>
<path fill="#FED58C" opacity="1.000000" stroke="none" 
	d="
M42.086731,189.743103 
	C41.136738,189.738861 40.303440,189.475388 39.190033,188.709076 
	C39.625999,185.863831 40.342079,183.521408 41.424362,181.122696 
	C42.530735,181.053253 43.270901,181.040085 44.011070,181.026917 
	C43.673542,183.079788 43.336018,185.132660 42.995232,187.580215 
	C42.729126,188.477890 42.466278,188.980865 42.086731,189.743103 
z"/>
<path fill="#88858D" opacity="1.000000" stroke="none" 
	d="
M41.058163,181.178986 
	C40.342079,183.521408 39.625999,185.863831 38.881683,188.584595 
	C38.215149,190.586823 37.879646,192.438446 36.868999,193.782303 
	C35.272831,195.904770 34.281525,195.072983 34.253368,192.346985 
	C34.578808,191.275452 34.810913,190.566925 35.053596,189.567551 
	C35.389988,187.785629 35.715794,186.294540 36.435337,184.320251 
	C37.221718,182.225311 37.614365,180.613571 38.007011,179.001831 
	C39.055237,177.392258 40.103462,175.782684 41.491158,174.094635 
	C41.873676,174.206818 41.916729,174.397461 42.018734,174.876373 
	C42.013653,175.960739 41.949615,176.756866 41.794258,178.100037 
	C41.488014,179.491058 41.273090,180.335022 41.058163,181.178986 
z"/>
<path fill="#8D8D9A" opacity="1.000000" stroke="none" 
	d="
M49.994617,154.008163 
	C48.959244,155.317520 47.942581,156.642212 46.884842,157.933243 
	C44.148106,161.273560 41.393269,164.599045 38.293423,167.959625 
	C37.943821,163.327454 37.946453,158.666107 37.938820,153.548126 
	C37.954159,152.640335 37.979755,152.189194 38.011913,151.400879 
	C38.788719,150.711548 39.558971,150.359390 40.795704,150.308075 
	C41.803299,152.064926 42.344418,153.520935 43.152336,155.694809 
	C45.194141,153.946304 46.703255,152.653961 48.399086,151.201736 
	C49.030674,152.312653 49.512642,153.160416 49.994617,154.008163 
z"/>
<path fill="#8D8D9A" opacity="1.000000" stroke="none" 
	d="
M37.895958,178.781891 
	C37.614365,180.613571 37.221718,182.225311 36.475300,183.925842 
	C36.211933,182.173370 36.302338,180.332123 36.693405,178.244690 
	C37.321678,178.096512 37.585289,178.284332 37.895958,178.781891 
z"/>
<path fill="#DC9076" opacity="1.000000" stroke="none" 
	d="
M41.424362,181.122696 
	C41.273090,180.335022 41.488014,179.491058 41.858891,178.357285 
	C47.171547,178.187393 52.328251,178.307327 57.750031,178.698715 
	C58.018990,179.705307 58.022869,180.440445 58.046265,181.539764 
	C57.879185,181.928101 57.692593,181.952240 57.224735,182.006165 
	C53.167645,178.730972 49.119274,177.885941 44.339622,180.851425 
	C43.270901,181.040085 42.530735,181.053253 41.424362,181.122696 
z"/>
<path fill="#E7E7EF" opacity="1.000000" stroke="none" 
	d="
M46.029179,41.913200 
	C43.572453,41.365700 41.004391,40.071377 38.680920,40.417751 
	C32.876270,41.283085 29.150370,38.147297 26.086596,34.317272 
	C23.464985,31.039993 25.316881,27.483063 27.677334,24.172680 
	C28.285898,26.754606 27.830429,29.900215 29.025917,32.180138 
	C31.076036,36.089931 34.456520,38.870747 39.525127,38.005646 
	C46.336960,36.843018 54.351021,38.704617 59.113052,32.096729 
	C61.641483,28.588228 62.467075,23.852564 64.035904,19.329681 
	C64.953415,21.672861 67.009850,24.533407 66.618484,27.006611 
	C65.664818,33.033241 62.135250,37.429699 55.609177,38.711662 
	C54.012035,39.025394 50.959484,38.538368 52.386753,42.409946 
	C51.145378,42.739117 50.088890,42.679176 48.979416,42.374786 
	C48.298874,42.045151 47.671310,41.959961 46.790413,41.892479 
	C46.367775,41.911186 46.198479,41.912193 46.029179,41.913200 
z"/>
<path fill="#A61E01" opacity="1.000000" stroke="none" 
	d="
M83.988083,107.988556 
	C83.675438,108.779816 83.362793,109.571075 83.024597,110.682159 
	C81.688942,114.409927 79.836784,117.716675 79.177818,121.246193 
	C77.650414,129.427307 72.259590,132.338715 64.413071,132.607788 
	C64.683235,129.481918 65.351860,126.746521 66.366081,123.950439 
	C67.836845,121.978363 69.318863,120.188965 70.021721,118.133179 
	C72.328949,111.384796 76.973526,108.122223 83.988083,107.988556 
z"/>
<path fill="#A91107" opacity="1.000000" stroke="none" 
	d="
M62.983707,135.984222 
	C63.653217,136.753296 64.322731,137.522385 65.001556,138.646332 
	C65.010864,139.001221 65.000946,139.004562 64.630409,139.004990 
	C62.857716,138.441711 61.213600,137.105286 60.097385,137.454788 
	C56.284470,138.648697 52.657204,140.435486 48.711964,141.992401 
	C48.464817,141.988739 47.971397,141.945099 47.983688,141.567261 
	C49.507286,139.771698 50.894432,138.181366 52.562534,136.981659 
	C54.481388,135.601608 57.958572,134.978302 58.481907,133.311417 
	C60.772327,126.016060 62.237923,118.461739 64.159554,110.640594 
	C65.211548,104.856117 66.106789,99.432419 67.324654,94.006027 
	C68.076424,94.018387 68.505554,94.033447 68.932068,94.437447 
	C68.602989,97.908012 68.276535,100.989639 67.940094,104.456726 
	C67.294472,107.558548 66.658836,110.274918 66.005524,113.399055 
	C65.389565,116.497147 64.575996,119.160973 64.240852,121.883682 
	C63.664669,126.564522 63.386799,131.282074 62.983707,135.984222 
z"/>
<path fill="#B0221C" opacity="1.000000" stroke="none" 
	d="
M63.110893,135.691589 
	C63.386799,131.282074 63.664669,126.564522 64.240852,121.883682 
	C64.575996,119.160973 65.389565,116.497147 66.377151,113.402344 
	C67.510963,112.997673 68.255493,112.997482 68.957619,113.374435 
	C67.950310,117.171432 66.985397,120.591270 66.020493,124.011116 
	C65.351860,126.746521 64.683235,129.481918 64.010178,132.608673 
	C63.749866,133.799652 63.493973,134.599304 63.110893,135.691589 
z"/>
<path fill="#CCCCD7" opacity="1.000000" stroke="none" 
	d="
M68.265724,154.988052 
	C68.188904,154.244217 68.112091,153.500397 68.293335,152.225052 
	C68.696289,151.127701 68.841179,150.561844 68.986069,149.996002 
	C68.986076,149.996002 69.439384,149.929016 69.663940,149.887695 
	C74.306763,155.490875 80.945419,156.601791 86.826698,152.329803 
	C87.450058,152.014572 87.900787,152.021469 88.689293,152.053436 
	C88.510048,157.652084 86.493309,159.142578 81.142532,158.034546 
	C79.607727,157.716736 78.019997,157.654510 76.224228,157.747040 
	C75.245972,158.010300 74.500008,158.001617 73.324646,157.653046 
	C71.352081,156.538132 69.808899,155.763092 68.265724,154.988052 
z"/>
<path fill="#C6C6D1" opacity="1.000000" stroke="none" 
	d="
M68.102440,155.233444 
	C69.808899,155.763092 71.352081,156.538132 72.951523,157.647644 
	C71.334656,157.661880 69.661522,157.341644 67.630295,157.028992 
	C67.494522,156.517319 67.716843,155.998077 68.102440,155.233444 
z"/>
<path fill="#D35257" opacity="1.000000" stroke="none" 
	d="
M69.996925,65.004066 
	C70.008980,67.031570 70.021027,69.059074 70.020531,71.542526 
	C70.007988,71.998474 69.947166,72.047325 69.576569,72.110847 
	C68.805145,74.121017 68.404320,76.067665 67.584358,78.062698 
	C66.884155,78.121735 66.603088,78.132385 66.040451,78.030502 
	C65.187126,76.568939 64.615364,75.219894 64.015503,73.660370 
	C63.987404,73.449890 63.862392,73.044014 63.842510,72.777779 
	C63.583427,72.256927 63.344227,72.002312 63.073540,71.452354 
	C62.943813,70.772697 62.845577,70.388390 63.129017,69.973862 
	C65.076851,67.857880 66.643013,65.772118 68.410873,63.417732 
	C68.211174,63.335323 69.079376,63.693596 69.958000,64.290016 
	C69.968414,64.528168 69.996925,65.004066 69.996925,65.004066 
z"/>
<path fill="#E98994" opacity="1.000000" stroke="none" 
	d="
M70.272186,64.747025 
	C69.996925,65.004066 69.968414,64.528168 69.939178,63.902588 
	C69.261604,60.527775 68.613251,57.778542 68.319763,54.983227 
	C70.773689,53.284199 72.872757,51.631252 74.971817,49.978306 
	C76.382286,50.320644 77.792763,50.662983 79.569046,51.043991 
	C78.316322,52.213707 76.144104,53.004501 75.195885,54.547485 
	C73.292778,57.644333 72.058052,61.151928 70.272186,64.747025 
z"/>
<path fill="#D55559" opacity="1.000000" stroke="none" 
	d="
M72.021027,73.759995 
	C72.025940,74.767769 72.019302,75.516243 71.985733,76.950912 
	C71.607658,78.124161 71.256531,78.611206 70.688049,79.063843 
	C70.470695,79.029434 70.033150,78.970718 70.028709,78.537567 
	C69.998566,76.085381 69.972870,74.066353 69.947166,72.047325 
	C69.947166,72.047325 70.007988,71.998474 70.040588,71.975006 
	C70.541824,72.230865 71.010475,72.510201 71.734894,72.885727 
	C71.996941,73.154846 72.003212,73.327774 72.021027,73.759995 
z"/>
<path fill="#EFA1AC" opacity="1.000000" stroke="none" 
	d="
M41.052330,47.149326 
	C48.394005,47.414783 55.735683,47.680241 63.650421,48.324394 
	C64.460739,49.795197 64.697990,50.887291 64.550461,52.036339 
	C60.316814,52.728889 56.430008,53.196243 52.631035,54.053028 
	C49.561447,54.745319 45.434860,53.313713 43.618797,57.888287 
	C42.114170,57.809753 41.021942,57.693928 39.950310,57.180130 
	C40.331375,53.571213 40.691853,50.360268 41.052330,47.149326 
z"/>
<path fill="#E26F77" opacity="1.000000" stroke="none" 
	d="
M64.935242,51.979389 
	C64.697990,50.887291 64.460739,49.795197 64.064255,48.399086 
	C64.409813,48.094234 64.914612,48.093395 65.747009,48.513992 
	C66.704720,50.966721 67.334808,52.998013 67.964897,55.029305 
	C68.613251,57.778542 69.261604,60.527775 69.928772,63.664436 
	C69.079376,63.693596 68.211174,63.335323 68.410873,63.417732 
	C66.643013,65.772118 65.076851,67.857880 62.869843,69.820160 
	C61.169182,68.449432 60.109379,67.202202 59.019958,65.744202 
	C58.990337,65.533432 58.929588,65.111580 59.092072,64.794716 
	C60.359253,63.860413 61.540363,63.347328 62.553730,62.605194 
	C65.169533,60.689518 67.467545,58.593769 65.034599,54.620903 
	C64.999641,53.488701 64.967445,52.734047 64.935242,51.979389 
z"/>
<path fill="#9D9DA9" opacity="1.000000" stroke="none" 
	d="
M49.032398,42.619240 
	C50.088890,42.679176 51.145378,42.739117 52.588467,42.686119 
	C54.360077,42.669750 55.745090,42.766319 57.542458,42.787830 
	C59.670605,42.787128 61.386402,42.861485 63.528305,42.899612 
	C64.233635,43.099785 64.512856,43.336178 64.893250,43.829102 
	C56.971920,44.725922 48.949429,45.366215 40.030014,45.988129 
	C37.695805,45.894585 36.258514,45.819424 34.821228,45.744263 
	C34.871506,45.340157 34.921783,44.936050 34.984657,44.225533 
	C35.730160,43.917812 36.463066,43.916496 38.007210,43.946175 
	C41.544876,43.624454 44.271297,43.271740 47.344292,42.927555 
	C48.138042,42.830471 48.585220,42.724854 49.032398,42.619240 
z"/>
<path fill="#EE99A5" opacity="1.000000" stroke="none" 
	d="
M68.319763,54.983227 
	C67.334808,52.998013 66.704720,50.966721 66.120560,48.574051 
	C68.876854,48.686657 71.587212,49.160645 74.634689,49.806473 
	C72.872757,51.631252 70.773689,53.284199 68.319763,54.983227 
z"/>
<path fill="#847E8C" opacity="1.000000" stroke="none" 
	d="
M34.477219,45.782417 
	C36.258514,45.819424 37.695805,45.894585 39.562134,45.979454 
	C39.994495,46.183254 39.997818,46.377350 39.842335,47.100983 
	C39.133450,47.798004 38.583370,47.965496 37.584045,48.087719 
	C31.758207,48.994072 26.381624,49.945686 21.005039,50.897301 
	C20.254932,50.947296 19.504826,50.997288 18.378483,51.051529 
	C22.519600,49.517551 27.036951,47.979324 31.804739,46.124527 
	C32.747856,45.812160 33.440533,45.816364 34.477219,45.782417 
z"/>
<path fill="#ED828D" opacity="1.000000" stroke="none" 
	d="
M38.033295,48.132984 
	C38.583370,47.965496 39.133450,47.798004 39.845161,47.392151 
	C40.180779,47.129467 40.354759,47.105145 40.790535,47.115074 
	C40.691853,50.360268 40.331375,53.571213 39.603493,57.264496 
	C38.527779,57.744034 37.819469,57.741234 37.074371,57.368618 
	C37.016525,55.996605 36.995476,54.994408 37.032997,53.620857 
	C37.405472,51.543999 37.719383,49.838493 38.033295,48.132984 
z"/>
<path fill="#CCCCD7" opacity="1.000000" stroke="none" 
	d="
M70.297791,148.969757 
	C70.484436,148.407425 70.966095,147.814270 71.768761,147.297791 
	C71.590782,147.895966 71.091789,148.417450 70.297791,148.969757 
z"/>
<path fill="#C6413E" opacity="1.000000" stroke="none" 
	d="
M70.905396,79.098251 
	C71.256531,78.611206 71.607658,78.124161 71.995056,77.325439 
	C77.655815,76.749672 83.279045,76.414566 88.906456,76.314194 
	C89.586052,76.302071 90.288292,77.558784 90.991684,78.612030 
	C91.003342,78.996643 90.998718,79.001350 90.624649,79.046860 
	C87.020607,80.038109 83.842918,81.322777 80.545509,81.831497 
	C77.430687,82.312057 74.190025,81.976936 70.996658,81.636665 
	C70.960869,80.547905 70.933128,79.823074 70.905396,79.098251 
z"/>
<path fill="#B42A1C" opacity="1.000000" stroke="none" 
	d="
M69.000023,112.997292 
	C68.255493,112.997482 67.510963,112.997673 66.394814,112.994568 
	C66.658836,110.274918 67.294472,107.558548 68.315872,104.359009 
	C69.471794,100.920380 70.241943,97.964928 71.382904,94.960785 
	C74.208885,93.988007 76.620102,92.457802 79.129105,92.275810 
	C83.343544,91.970139 86.980637,90.839729 90.070183,87.976936 
	C89.655159,91.262283 89.240135,94.547623 88.445663,97.942749 
	C87.530609,97.979263 86.995003,97.905991 85.831360,97.926537 
	C75.371223,98.218849 70.942863,104.263550 69.000023,112.997292 
z"/>
<path fill="#C13634" opacity="1.000000" stroke="none" 
	d="
M71.012100,95.009476 
	C70.241943,97.964928 69.471794,100.920380 68.325867,103.973541 
	C68.276535,100.989639 68.602989,97.908012 68.959763,94.013893 
	C69.661636,89.467796 70.333176,85.734200 71.004715,82.000603 
	C74.190025,81.976936 77.430687,82.312057 80.545509,81.831497 
	C83.842918,81.322777 87.020607,80.038109 90.621658,79.049988 
	C90.998146,80.079185 91.003563,81.150764 91.018776,82.625282 
	C91.028572,83.028221 91.023689,83.516411 90.622971,83.765610 
	C85.960968,84.898743 81.647926,86.652573 77.454079,86.403061 
	C73.821198,86.186920 71.790062,85.917931 71.744698,90.213364 
	C71.727783,91.814468 71.269257,93.410912 71.012100,95.009476 
z"/>
<path fill="#BA3128" opacity="1.000000" stroke="none" 
	d="
M71.382904,94.960785 
	C71.269257,93.410912 71.727783,91.814468 71.744698,90.213364 
	C71.790062,85.917931 73.821198,86.186920 77.454079,86.403061 
	C81.647926,86.652573 85.960968,84.898743 90.618347,84.009674 
	C90.789108,85.117767 90.563782,86.231003 90.204315,87.660583 
	C86.980637,90.839729 83.343544,91.970139 79.129105,92.275810 
	C76.620102,92.457802 74.208885,93.988007 71.382904,94.960785 
z"/>
<path fill="#C0BFC9" opacity="1.000000" stroke="none" 
	d="
M42.059113,146.095566 
	C39.700996,145.447861 36.123417,148.739990 35.479073,143.520050 
	C37.599682,143.010544 39.295616,142.908447 41.368370,142.978180 
	C44.509533,143.366028 47.273888,143.582031 50.485718,143.848267 
	C53.923397,143.998245 56.913589,144.097977 59.903786,144.197708 
	C59.651318,144.632538 59.398849,145.067352 59.069153,145.739960 
	C58.991924,145.977737 58.976562,145.964447 58.572605,145.957397 
	C53.216251,146.303635 48.136749,150.553024 43.322559,145.485458 
	C43.224335,145.382050 42.494358,145.878799 42.059113,146.095566 
z"/>
<path fill="#920B0A" opacity="1.000000" stroke="none" 
	d="
M60.298885,144.111313 
	C56.913589,144.097977 53.923397,143.998245 50.445236,143.572357 
	C49.624550,142.829498 49.291828,142.412781 48.959110,141.996078 
	C52.657204,140.435486 56.284470,138.648697 60.097385,137.454788 
	C61.213600,137.105286 62.857716,138.441711 64.632126,139.010620 
	C65.225044,140.087540 65.445709,141.159271 65.813225,142.530594 
	C64.204720,143.228439 62.449352,143.626678 60.298885,144.111313 
z"/>
<path fill="#8B8B98" opacity="1.000000" stroke="none" 
	d="
M68.627075,149.931610 
	C68.841179,150.561844 68.696289,151.127701 68.296997,151.850983 
	C67.474518,151.739532 66.694351,151.624069 66.371552,151.177795 
	C63.495171,147.200958 61.790215,147.112350 58.747791,150.827179 
	C57.100216,152.838898 55.472523,154.883438 53.633083,156.708847 
	C53.217411,157.121338 51.958538,156.684143 51.236351,156.051544 
	C53.915451,152.298172 56.446007,149.131302 58.976562,145.964447 
	C58.976562,145.964447 58.991924,145.977737 58.978065,145.974777 
	C62.709755,145.731506 66.420296,145.574814 68.627075,149.931610 
z"/>
<path fill="#AD230A" opacity="1.000000" stroke="none" 
	d="
M68.957619,113.374435 
	C70.942863,104.263550 75.371223,98.218849 85.605530,98.016312 
	C85.341393,101.077011 84.675034,104.141747 83.998383,107.597519 
	C76.973526,108.122223 72.328949,111.384796 70.021721,118.133179 
	C69.318863,120.188965 67.836845,121.978363 66.366081,123.950439 
	C66.985397,120.591270 67.950310,117.171432 68.957619,113.374435 
z"/>
<path fill="#C4C4CE" opacity="1.000000" stroke="none" 
	d="
M46.997723,42.919025 
	C44.271297,43.271740 41.544876,43.624454 38.372963,43.920986 
	C40.338383,43.235039 42.749287,42.605274 45.594685,41.944359 
	C46.198479,41.912193 46.367775,41.911186 46.782387,42.154343 
	C47.017700,42.572014 47.007710,42.745522 46.997723,42.919025 
z"/>
<path fill="#B42526" opacity="1.000000" stroke="none" 
	d="
M40.991554,142.806351 
	C39.295616,142.908447 37.599682,143.010544 35.483757,143.168640 
	C33.018749,143.167648 30.973730,143.110687 28.491632,143.035828 
	C25.692953,136.942886 23.331350,130.867859 20.928240,124.027603 
	C20.065567,120.430359 18.944271,117.645493 18.490496,114.755798 
	C17.725800,109.886147 17.384563,104.949997 17.031363,100.266670 
	C17.476044,100.969841 17.754585,101.448158 18.024218,102.324036 
	C19.682501,108.476524 21.349693,114.231453 23.156433,120.321289 
	C24.296452,123.264671 25.058294,126.005585 26.400547,128.424423 
	C27.047750,129.590714 28.793728,130.810318 30.031521,130.799393 
	C31.269499,130.788467 32.860447,129.514236 33.627281,128.352097 
	C34.487232,127.048828 34.334602,125.108788 35.095001,123.700981 
	C36.186676,121.679848 37.705784,119.889580 39.320175,118.289322 
	C40.393154,125.389198 41.188374,132.200500 41.723686,139.231201 
	C41.306370,140.569183 41.148964,141.687759 40.991554,142.806351 
z"/>
<path fill="#BF4244" opacity="1.000000" stroke="none" 
	d="
M16.865223,100.041817 
	C17.384563,104.949997 17.725800,109.886147 18.490496,114.755798 
	C18.944271,117.645493 20.065567,120.430359 20.900482,123.646988 
	C19.456398,121.173752 17.998562,118.315887 16.267853,115.228745 
	C15.991728,114.558128 15.988474,114.116776 15.983580,112.990700 
	C15.327672,111.534630 14.673405,110.763298 14.019136,109.991959 
	C14.012335,109.244621 14.005532,108.497276 14.034420,107.011658 
	C14.069585,102.775261 14.069061,99.277130 14.305096,95.918396 
	C14.965424,96.396637 15.389194,96.735497 15.874677,97.385536 
	C16.246000,98.478416 16.555611,99.260117 16.865223,100.041817 
z"/>
<path fill="#EDECF5" opacity="1.000000" stroke="none" 
	d="
M37.111164,57.738430 
	C37.819469,57.741234 38.527779,57.744034 39.582901,57.662468 
	C41.021942,57.693928 42.114170,57.809753 43.985363,57.962326 
	C46.451469,58.411476 48.138615,58.823887 50.036850,59.494232 
	C52.492474,61.506027 54.737007,63.259895 56.717789,65.293365 
	C54.623280,65.723206 52.792522,65.873451 50.636452,65.880371 
	C47.727821,64.628746 45.211716,62.854763 42.543697,62.585381 
	C39.407352,62.268715 36.139172,63.257839 32.566048,63.802261 
	C30.319778,64.789085 28.435619,65.654335 26.192249,66.378281 
	C23.593836,67.148346 21.354635,68.059723 19.064407,68.644012 
	C19.008898,67.876518 19.004421,67.436096 18.999945,66.995674 
	C20.105427,65.933212 21.210909,64.870743 22.750286,63.431152 
	C24.144901,62.396297 25.105621,61.738571 26.402176,61.011894 
	C28.539133,60.018471 30.340256,59.093998 32.555527,58.147194 
	C34.350174,57.996056 35.730667,57.867241 37.111164,57.738430 
z"/>
<path fill="#DC6771" opacity="1.000000" stroke="none" 
	d="
M18.669197,66.851868 
	C19.004421,67.436096 19.008898,67.876518 18.893852,68.934021 
	C17.433590,71.040237 16.092855,72.529373 14.752119,74.018509 
	C13.712354,74.652847 12.672589,75.287193 11.320690,75.968338 
	C11.487486,74.470444 11.966416,72.925743 12.207129,71.182465 
	C13.542479,68.739861 13.670221,64.342049 18.669197,66.851868 
z"/>
<path fill="#E98994" opacity="1.000000" stroke="none" 
	d="
M26.066341,61.080841 
	C25.105621,61.738571 24.144901,62.396297 22.920734,63.143776 
	C20.548948,62.371506 18.440611,61.509487 16.164915,60.319069 
	C16.445332,59.024704 16.893108,58.058731 17.682821,57.284966 
	C18.025904,57.645157 18.027052,57.813141 18.098606,58.362846 
	C20.801455,59.523323 23.433897,60.302082 26.066341,61.080841 
z"/>
<path fill="#B8B8C4" opacity="1.000000" stroke="none" 
	d="
M14.660495,74.369469 
	C16.092855,72.529373 17.433590,71.040237 18.944881,69.261093 
	C21.354635,68.059723 23.593836,67.148346 25.991724,66.634308 
	C23.417221,70.685051 20.684031,74.338455 17.603277,78.034325 
	C15.865987,79.374855 14.476260,80.672913 13.086534,81.970978 
	C13.580646,79.554131 14.074758,77.137276 14.660495,74.369469 
z"/>
<path fill="#C65457" opacity="1.000000" stroke="none" 
	d="
M14.068538,95.779007 
	C14.069061,99.277130 14.069585,102.775261 14.030193,106.638000 
	C12.542445,104.450890 11.094615,101.899170 9.329640,99.173264 
	C10.120178,95.517593 11.227860,92.036102 12.638958,88.628235 
	C13.284721,89.800156 13.627070,90.898445 13.967830,92.377380 
	C14.000339,93.765015 14.034438,94.772011 14.068538,95.779007 
z"/>
<path fill="#AAAAB5" opacity="1.000000" stroke="none" 
	d="
M13.022655,82.385696 
	C14.476260,80.672913 15.865987,79.374855 17.630394,78.439247 
	C17.982225,82.531960 17.959373,86.262222 17.594320,89.935242 
	C15.862262,88.911201 14.472402,87.944397 13.082541,86.977592 
	C13.041286,85.585197 13.000031,84.192810 13.022655,82.385696 
z"/>
<path fill="#9F9FAC" opacity="1.000000" stroke="none" 
	d="
M13.012903,87.237534 
	C14.472402,87.944397 15.862262,88.911201 17.705215,90.226418 
	C18.207926,90.984726 18.257542,91.394623 17.878101,91.873451 
	C16.289173,91.960503 15.129296,91.978622 13.969419,91.996742 
	C13.627070,90.898445 13.284721,89.800156 12.869993,88.358727 
	C12.846165,87.842880 12.894715,87.670174 13.012903,87.237534 
z"/>
<path fill="#93939F" opacity="1.000000" stroke="none" 
	d="
M58.572601,145.957397 
	C56.446007,149.131302 53.915451,152.298172 51.191547,155.736710 
	C50.679508,155.539352 50.360817,155.070312 50.018372,154.304718 
	C49.512642,153.160416 49.030674,152.312653 48.399086,151.201736 
	C46.703255,152.653961 45.194141,153.946304 43.152336,155.694809 
	C42.344418,153.520935 41.803299,152.064926 41.111221,150.263092 
	C41.290821,148.862305 41.621387,147.807388 42.005531,146.424011 
	C42.494358,145.878799 43.224335,145.382050 43.322559,145.485458 
	C48.136749,150.553024 53.216251,146.303635 58.572601,145.957397 
z"/>
<path fill="#F3ADB9" opacity="1.000000" stroke="none" 
	d="
M37.584045,48.087719 
	C37.719383,49.838493 37.405472,51.543999 36.583801,53.622955 
	C30.714294,54.664062 25.352552,55.331726 19.990808,55.999393 
	C20.236801,54.534012 20.482794,53.068630 20.866913,51.250275 
	C26.381624,49.945686 31.758207,48.994072 37.584045,48.087719 
z"/>
<path fill="#F0A4B0" opacity="1.000000" stroke="none" 
	d="
M19.699766,56.020317 
	C25.352552,55.331726 30.714294,54.664062 36.525234,53.994301 
	C36.995476,54.994408 37.016525,55.996605 37.074371,57.368618 
	C35.730667,57.867241 34.350174,57.996056 32.265991,57.830574 
	C27.050936,57.684559 22.539566,57.832844 18.028198,57.981129 
	C18.027052,57.813141 18.025904,57.645157 18.027431,57.224888 
	C18.489645,56.662155 18.949184,56.351700 19.699766,56.020317 
z"/>
<path fill="#847E8C" opacity="1.000000" stroke="none" 
	d="
M17.220055,51.896523 
	C17.182642,51.726402 17.380352,51.459774 17.813711,51.098904 
	C17.851299,51.269779 17.653236,51.534897 17.220055,51.896523 
z"/>
<path fill="#B7534C" opacity="1.000000" stroke="none" 
	d="
M14.018103,110.344856 
	C14.673405,110.763298 15.327672,111.534630 15.979983,112.659683 
	C15.324374,112.241516 14.670722,111.469635 14.018103,110.344856 
z"/>
<path fill="#DEDEE7" opacity="1.000000" stroke="none" 
	d="
M47.344292,42.927555 
	C47.007710,42.745522 47.017700,42.572014 47.035721,42.136642 
	C47.671310,41.959961 48.298874,42.045151 48.979416,42.374786 
	C48.585220,42.724854 48.138042,42.830471 47.344292,42.927555 
z"/>
<path fill="#B52928" opacity="1.000000" stroke="none" 
	d="
M67.002029,94.008720 
	C66.106789,99.432419 65.211548,104.856117 63.813347,110.694450 
	C61.513592,114.346664 59.914040,117.715851 57.865639,120.785530 
	C55.732296,123.982483 53.703869,127.720329 50.645203,129.703369 
	C47.232533,131.915894 45.584034,134.120880 45.667610,138.006104 
	C44.890820,138.005585 44.446941,138.006287 43.840485,137.633209 
	C43.113976,132.404648 42.417763,127.560280 42.033352,122.691299 
	C41.783646,119.528481 41.988453,116.329781 42.325077,112.967499 
	C44.381157,112.239433 46.117405,111.735336 47.819771,111.135132 
	C56.264057,108.157944 62.533520,102.985306 65.217857,93.778481 
	C65.880714,92.594269 66.320877,91.634796 66.830223,91.087898 
	C66.933617,92.336563 66.967827,93.172638 67.002029,94.008720 
z"/>
<path fill="#B0221C" opacity="1.000000" stroke="none" 
	d="
M46.000523,138.007324 
	C45.584034,134.120880 47.232533,131.915894 50.645203,129.703369 
	C53.703869,127.720329 55.732296,123.982483 57.865639,120.785530 
	C59.914040,117.715851 61.513592,114.346664 63.656586,111.055229 
	C62.237923,118.461739 60.772327,126.016060 58.481907,133.311417 
	C57.958572,134.978302 54.481388,135.601608 52.562534,136.981659 
	C50.894432,138.181366 49.507286,139.771698 47.716270,141.390015 
	C46.957878,140.396179 46.479202,139.201752 46.000523,138.007324 
z"/>
<path fill="#BE191B" opacity="1.000000" stroke="none" 
	d="
M67.324661,94.006027 
	C66.967827,93.172638 66.933617,92.336563 66.845795,90.752525 
	C66.886482,89.330338 66.980789,88.656113 67.333435,87.705338 
	C67.320168,85.251831 67.048561,83.074852 66.790123,80.543533 
	C66.642868,79.507133 66.482445,78.825081 66.322014,78.143028 
	C66.603088,78.132385 66.884155,78.121735 67.752396,78.309540 
	C68.904099,78.662231 69.468620,78.816475 70.033150,78.970718 
	C70.033150,78.970718 70.470695,79.029434 70.688049,79.063843 
	C70.933128,79.823074 70.960869,80.547905 70.996658,81.636665 
	C70.333176,85.734200 69.661636,89.467796 68.962395,93.624947 
	C68.505554,94.033447 68.076424,94.018387 67.324661,94.006027 
z"/>
<path fill="#A32A34" opacity="1.000000" stroke="none" 
	d="
M45.667610,138.006104 
	C46.479202,139.201752 46.957878,140.396179 47.703979,141.767853 
	C47.971397,141.945099 48.464817,141.988739 48.711964,141.992401 
	C49.291828,142.412781 49.624550,142.829498 49.997753,143.522125 
	C47.273888,143.582031 44.509533,143.366028 41.368370,142.978180 
	C41.148964,141.687759 41.306370,140.569183 41.854340,139.493958 
	C42.727608,139.766052 43.210312,139.994766 43.693016,140.223480 
	C43.796368,139.484650 43.899715,138.745819 44.003063,138.006989 
	C44.446941,138.006287 44.890820,138.005585 45.667610,138.006104 
z"/>
<path fill="#C0BFC9" opacity="1.000000" stroke="none" 
	d="
M32.928162,63.680687 
	C36.139172,63.257839 39.407352,62.268715 42.543697,62.585381 
	C45.211716,62.854763 47.727821,64.628746 50.792183,66.181396 
	C53.390888,67.934502 55.508545,69.243271 57.626198,70.552040 
	C58.022461,69.082695 58.418724,67.613358 58.873962,66.097153 
	C58.932934,66.050301 59.049576,65.954971 59.049576,65.954971 
	C60.109379,67.202202 61.169182,68.449432 62.488159,69.850372 
	C62.845577,70.388390 62.943813,70.772697 63.105495,71.716866 
	C63.400089,72.532486 63.631241,72.788246 63.862392,73.044014 
	C63.862392,73.044014 63.987404,73.449890 63.976208,74.043137 
	C63.952599,75.400208 63.940186,76.164032 63.599503,76.999207 
	C61.278809,78.394974 59.286385,79.719406 57.194839,80.678665 
	C55.170086,72.228195 50.432552,66.764992 42.040810,64.294495 
	C39.849648,64.058029 37.928066,63.985023 35.621010,63.870049 
	C34.466404,63.778946 33.697285,63.729816 32.928162,63.680687 
z"/>
<path fill="#9695A2" opacity="1.000000" stroke="none" 
	d="
M63.927773,76.927864 
	C63.940186,76.164032 63.952599,75.400208 64.004311,74.253616 
	C64.615364,75.219894 65.187126,76.568939 66.040451,78.030502 
	C66.482445,78.825081 66.642868,79.507133 66.552704,80.727371 
	C65.880684,82.169296 65.459259,83.073021 64.763306,84.164551 
	C63.006149,85.917847 61.523529,87.483345 60.061852,88.675522 
	C61.364456,84.510742 62.646114,80.719299 63.927773,76.927864 
z"/>
<path fill="#C73334" opacity="1.000000" stroke="none" 
	d="
M70.028709,78.537567 
	C69.468620,78.816475 68.904099,78.662231 68.171524,78.261154 
	C68.404320,76.067665 68.805145,74.121017 69.576569,72.110847 
	C69.972870,74.066353 69.998566,76.085381 70.028709,78.537567 
z"/>
<path fill="#A7A6B1" opacity="1.000000" stroke="none" 
	d="
M63.842510,72.777779 
	C63.631241,72.788246 63.400089,72.532486 63.136986,72.012207 
	C63.344227,72.002312 63.583427,72.256927 63.842510,72.777779 
z"/>
<path fill="#EC949F" opacity="1.000000" stroke="none" 
	d="
M49.825760,59.236298 
	C48.138615,58.823887 46.451469,58.411476 44.397766,57.925034 
	C45.434860,53.313713 49.561447,54.745319 52.631035,54.053028 
	C56.430008,53.196243 60.316814,52.728889 64.550461,52.036339 
	C64.967445,52.734047 64.999641,53.488701 64.679352,54.774128 
	C61.322300,55.870499 58.282917,56.299179 55.325684,57.050991 
	C53.429726,57.532997 51.654892,58.491428 49.825760,59.236298 
z"/>
<path fill="#E78690" opacity="1.000000" stroke="none" 
	d="
M50.036850,59.494228 
	C51.654892,58.491428 53.429726,57.532997 55.325684,57.050991 
	C58.282917,56.299179 61.322300,55.870499 64.682114,55.151672 
	C67.467545,58.593769 65.169533,60.689518 62.553730,62.605194 
	C61.540363,63.347328 60.359253,63.860413 58.842285,64.803146 
	C58.265934,65.160149 58.101856,65.191856 57.701824,65.156952 
	C57.465870,65.090355 56.981541,65.013763 56.981541,65.013763 
	C54.737007,63.259895 52.492474,61.506027 50.036850,59.494228 
z"/>
<path fill="#C0BFC9" opacity="1.000000" stroke="none" 
	d="
M57.937778,65.223557 
	C58.101856,65.191856 58.265934,65.160149 58.679802,65.120010 
	C58.929588,65.111580 58.990337,65.533432 59.019958,65.744202 
	C59.049576,65.954971 58.932934,66.050301 58.704174,65.967377 
	C58.254490,65.698082 58.075279,65.477791 57.937778,65.223557 
z"/>
<path fill="#B92D2F" opacity="1.000000" stroke="none" 
	d="
M39.042419,118.000748 
	C37.705784,119.889580 36.186676,121.679848 35.095001,123.700981 
	C34.334602,125.108788 34.487232,127.048828 33.627281,128.352097 
	C32.860447,129.514236 31.269499,130.788467 30.031521,130.799393 
	C28.793728,130.810318 27.047750,129.590714 26.400547,128.424423 
	C25.058294,126.005585 24.296452,123.264671 23.560780,120.325424 
	C29.328114,119.638321 30.453308,118.244164 31.385223,111.127426 
	C34.183033,111.767067 36.594566,112.385925 39.007721,113.421005 
	C39.020370,115.225075 39.031395,116.612915 39.042419,118.000748 
z"/>
<path fill="#7E7E8C" opacity="1.000000" stroke="none" 
	d="
M17.031361,100.266670 
	C16.555611,99.260117 16.246000,98.478416 16.249588,97.396027 
	C18.124552,97.718430 19.686316,98.341522 21.535725,99.118256 
	C23.542381,100.103020 25.261393,100.934135 27.289799,101.931442 
	C29.074841,102.665779 30.550484,103.233917 32.397049,103.999207 
	C37.890305,103.826263 43.012638,103.456169 48.373104,103.320663 
	C47.881264,104.595749 47.348194,106.245735 46.382832,106.557602 
	C43.910152,107.356438 41.185127,108.142990 38.669384,107.883553 
	C33.009773,107.299911 27.415800,106.079781 21.527172,104.961792 
	C20.183865,103.845406 19.108496,102.885941 18.033127,101.926476 
	C17.754585,101.448158 17.476044,100.969841 17.031361,100.266670 
z"/>
<path fill="#BC3539" opacity="1.000000" stroke="none" 
	d="
M18.024216,102.324036 
	C19.108496,102.885941 20.183865,103.845406 21.723431,105.243233 
	C25.124735,107.489944 28.061842,109.298286 30.998947,111.106628 
	C30.453308,118.244164 29.328114,119.638321 23.421234,119.990524 
	C21.349693,114.231453 19.682501,108.476524 18.024216,102.324036 
z"/>
<path fill="#AE0E0D" opacity="1.000000" stroke="none" 
	d="
M39.320175,118.289322 
	C39.031395,116.612915 39.020370,115.225075 39.381561,113.421738 
	C40.499062,113.053200 41.244343,113.100182 41.989624,113.147156 
	C41.988453,116.329781 41.783646,119.528481 42.033352,122.691299 
	C42.417763,127.560280 43.113976,132.404648 43.840485,137.633209 
	C43.899715,138.745819 43.796368,139.484650 43.693016,140.223480 
	C43.210312,139.994766 42.727608,139.766052 42.114250,139.274567 
	C41.188374,132.200500 40.393154,125.389198 39.320175,118.289322 
z"/>
<path fill="#8F8F9C" opacity="1.000000" stroke="none" 
	d="
M21.248081,98.964615 
	C19.686316,98.341522 18.124552,97.718430 16.187876,97.084846 
	C15.389194,96.735497 14.965424,96.396637 14.305096,95.918396 
	C14.034438,94.772011 14.000339,93.765015 13.967830,92.377380 
	C15.129296,91.978622 16.289173,91.960503 17.826267,91.942490 
	C18.203485,91.942596 18.035898,91.926186 18.099384,92.133873 
	C18.311306,92.604980 18.527082,92.789772 18.940653,93.173019 
	C19.409868,93.949287 19.748632,94.448471 20.086576,95.257317 
	C20.410017,96.039070 20.734276,96.511162 21.071751,97.316040 
	C21.139336,98.087433 21.193707,98.526024 21.248081,98.964615 
z"/>
<path fill="#3B3C41" opacity="1.000000" stroke="none" 
	d="
M20.087397,94.947647 
	C19.748632,94.448471 19.409868,93.949287 18.943514,92.919037 
	C18.555916,92.234047 18.295906,92.080116 18.035896,91.926186 
	C18.035898,91.926186 18.203485,91.942596 18.255322,91.873558 
	C18.257542,91.394623 18.207926,90.984726 18.047417,90.283653 
	C17.959373,86.262222 17.982225,82.531960 17.977959,78.396782 
	C20.684031,74.338455 23.417221,70.685051 26.350937,66.775620 
	C28.435619,65.654335 30.319778,64.789085 32.566048,63.802261 
	C33.697285,63.729816 34.466404,63.778946 35.562717,64.234932 
	C32.782597,66.538902 30.439802,68.486778 30.773720,72.957314 
	C31.021429,76.273651 28.418610,77.861877 24.909433,76.292389 
	C23.925108,75.852135 22.929346,75.437447 21.417477,74.786583 
	C20.596304,79.790039 17.563311,83.882545 20.588982,88.894852 
	C21.436979,90.299629 20.308987,92.897209 20.087397,94.947647 
z"/>
<path fill="#EE99A5" opacity="1.000000" stroke="none" 
	d="
M18.098606,58.362846 
	C22.539566,57.832844 27.050936,57.684559 31.851841,57.852898 
	C30.340256,59.093998 28.539133,60.018471 26.402174,61.011894 
	C23.433897,60.302082 20.801455,59.523323 18.098606,58.362846 
z"/>
<path fill="#E3E3EC" opacity="1.000000" stroke="none" 
	d="
M57.701824,65.156952 
	C58.075279,65.477791 58.254490,65.698082 58.645203,66.014229 
	C58.418724,67.613358 58.022461,69.082695 57.626198,70.552040 
	C55.508545,69.243271 53.390888,67.934502 51.117500,66.324715 
	C52.792522,65.873451 54.623280,65.723206 56.717789,65.293365 
	C56.981541,65.013763 57.465870,65.090355 57.701824,65.156952 
z"/>
<path fill="#5F5B6B" opacity="1.000000" stroke="none" 
	d="
M42.325077,112.967499 
	C41.244343,113.100182 40.499062,113.053200 39.379940,113.005501 
	C36.594566,112.385925 34.183033,111.767067 31.385223,111.127426 
	C28.061842,109.298286 25.124735,107.489944 21.991371,105.400162 
	C27.415800,106.079781 33.009773,107.299911 38.669384,107.883553 
	C41.185127,108.142990 43.910152,107.356438 46.382832,106.557602 
	C47.348194,106.245735 47.881264,104.595749 48.330959,102.981178 
	C48.057674,101.952583 48.064663,101.498055 48.294441,101.004486 
	C48.517227,100.965439 48.951385,100.838409 49.291367,100.874321 
	C50.689491,100.610115 51.747631,100.309998 53.201221,100.014709 
	C55.265255,99.027527 56.945194,98.054024 58.599533,97.038795 
	C60.624229,95.796280 61.261440,91.646500 64.995155,94.003212 
	C62.533520,102.985306 56.264057,108.157944 47.819771,111.135132 
	C46.117405,111.735336 44.381157,112.239433 42.325077,112.967499 
z"/>
<path fill="#7D7987" opacity="1.000000" stroke="none" 
	d="
M65.217857,93.778481 
	C61.261440,91.646500 60.624229,95.796280 58.599533,97.038795 
	C56.945194,98.054024 55.265255,99.027527 53.262764,99.661247 
	C53.523216,97.803009 54.117573,96.303062 54.907204,95.064468 
	C56.101894,94.251633 57.101311,93.177429 58.409931,92.031525 
	C59.143291,91.304626 59.567444,90.649422 60.006477,89.758011 
	C60.021355,89.521797 60.040909,89.048851 60.040909,89.048851 
	C61.523529,87.483345 63.006149,85.917847 65.119385,84.240082 
	C66.191696,85.412506 66.633400,86.697197 67.075096,87.981880 
	C66.980789,88.656113 66.886482,89.330338 66.776611,90.339943 
	C66.320877,91.634796 65.880714,92.594269 65.217857,93.778481 
z"/>
<path fill="#C73334" opacity="1.000000" stroke="none" 
	d="
M67.333435,87.705338 
	C66.633400,86.697197 66.191696,85.412506 65.393921,84.052292 
	C65.459259,83.073021 65.880684,82.169296 66.539536,81.081726 
	C67.048561,83.074852 67.320168,85.251831 67.333435,87.705338 
z"/>
<path fill="#404044" opacity="1.000000" stroke="none" 
	d="
M20.086576,95.257317 
	C20.308987,92.897209 21.436979,90.299629 20.588982,88.894852 
	C17.563311,83.882545 20.596304,79.790039 21.417477,74.786583 
	C22.929346,75.437447 23.925108,75.852135 24.909433,76.292389 
	C28.418610,77.861877 31.021429,76.273651 30.773720,72.957314 
	C30.439802,68.486778 32.782597,66.538902 35.948196,64.276901 
	C37.928066,63.985023 39.849648,64.058029 41.832886,64.630814 
	C40.238358,67.016472 38.216732,68.696655 37.012119,70.836723 
	C35.231281,74.000496 33.922958,77.450134 32.631359,80.860588 
	C32.031353,82.444901 31.157619,85.226128 31.780739,85.714989 
	C33.295765,86.903580 35.585808,87.237144 37.620148,87.576683 
	C38.687790,87.754875 39.874260,87.221085 40.953117,87.348831 
	C35.212448,91.557137 30.308355,95.856369 32.026127,103.802055 
	C30.550484,103.233917 29.074841,102.665779 27.245930,101.603348 
	C24.947952,99.733788 23.003244,98.358521 21.058535,96.983246 
	C20.734276,96.511162 20.410017,96.039070 20.086576,95.257317 
z"/>
<path fill="#47484D" opacity="1.000000" stroke="none" 
	d="
M41.007072,87.008804 
	C39.874260,87.221085 38.687790,87.754875 37.620148,87.576683 
	C35.585808,87.237144 33.295765,86.903580 31.780739,85.714989 
	C31.157619,85.226128 32.031353,82.444901 32.631359,80.860588 
	C33.922958,77.450134 35.231281,74.000496 37.012119,70.836723 
	C38.216732,68.696655 40.238358,67.016472 42.102470,64.794273 
	C50.432552,66.764992 55.170086,72.228195 57.077511,80.651260 
	C57.059299,80.989029 56.821877,80.948502 56.488110,81.011414 
	C54.101154,82.046654 52.047970,83.018982 50.054657,83.641357 
	C50.378941,82.882782 50.564342,82.380577 50.920139,82.080200 
	C54.029697,79.455017 53.357529,76.035538 51.470314,73.657730 
	C49.978157,71.777679 46.717575,70.044266 44.527229,70.341957 
	C42.489014,70.618973 40.527020,73.462509 39.106171,75.564598 
	C38.173225,76.944847 38.379669,79.050568 37.865494,80.768440 
	C36.976803,83.737602 37.170334,85.229042 40.976738,84.253212 
	C43.194210,83.684731 45.651237,84.050659 47.817421,84.256737 
	C46.423004,85.348030 45.211647,86.178749 43.626053,87.008469 
	C42.503571,87.007919 41.755322,87.008362 41.007072,87.008804 
z"/>
<path fill="#A7A6B1" opacity="1.000000" stroke="none" 
	d="
M60.061852,88.675522 
	C60.040909,89.048851 60.021355,89.521797 59.681061,89.802498 
	C58.927418,90.756538 58.514069,91.429878 58.100723,92.103218 
	C57.101311,93.177429 56.101894,94.251633 55.020004,94.715683 
	C55.575935,91.741486 56.214348,89.377426 56.935474,86.585892 
	C56.952751,84.421776 56.887314,82.685143 56.821877,80.948502 
	C56.821877,80.948502 57.059299,80.989029 57.176628,81.016434 
	C59.286385,79.719406 61.278809,78.394974 63.599503,76.999207 
	C62.646114,80.719299 61.364456,84.510742 60.061852,88.675522 
z"/>
<path fill="#37383D" opacity="1.000000" stroke="none" 
	d="
M56.852760,87.013374 
	C56.214348,89.377426 55.575935,91.741486 54.824726,94.454323 
	C54.117573,96.303062 53.523216,97.803009 52.867317,99.656425 
	C51.747631,100.309998 50.689491,100.610115 49.353951,100.524513 
	C50.811916,96.712997 53.234463,93.402412 50.783119,88.259041 
	C46.556911,90.908775 42.460457,93.048508 38.959988,95.915833 
	C37.811298,96.856743 37.792759,99.762962 38.138805,101.604866 
	C38.250191,102.197731 41.207092,102.587700 42.821690,102.477341 
	C44.596054,102.356056 46.323669,101.550789 48.071655,101.043526 
	C48.064663,101.498055 48.057674,101.952583 48.092831,102.746597 
	C43.012638,103.456169 37.890305,103.826263 32.397049,103.999207 
	C30.308355,95.856369 35.212448,91.557137 40.953117,87.348831 
	C41.755322,87.008362 42.503571,87.007919 43.856613,87.275070 
	C48.591854,87.366234 52.722309,87.189804 56.852760,87.013374 
z"/>
<path fill="#3B3C41" opacity="1.000000" stroke="none" 
	d="
M21.071751,97.316040 
	C23.003244,98.358521 24.947952,99.733788 26.936533,101.437149 
	C25.261393,100.934135 23.542381,100.103020 21.535725,99.118263 
	C21.193707,98.526024 21.139336,98.087433 21.071751,97.316040 
z"/>
<path fill="#AAAAB5" opacity="1.000000" stroke="none" 
	d="
M18.099382,92.133873 
	C18.295906,92.080116 18.555916,92.234047 18.813063,92.641953 
	C18.527082,92.789772 18.311306,92.604980 18.099382,92.133873 
z"/>
<path fill="#29292E" opacity="1.000000" stroke="none" 
	d="
M48.294441,101.004486 
	C46.323669,101.550789 44.596054,102.356056 42.821690,102.477341 
	C41.207092,102.587700 38.250191,102.197731 38.138805,101.604866 
	C37.792759,99.762962 37.811298,96.856743 38.959988,95.915833 
	C42.460457,93.048508 46.556911,90.908775 50.783119,88.259041 
	C53.234463,93.402412 50.811916,96.712997 49.013969,100.488602 
	C48.951385,100.838409 48.517227,100.965439 48.294441,101.004486 
z"/>
<path fill="#9695A2" opacity="1.000000" stroke="none" 
	d="
M58.409927,92.031525 
	C58.514069,91.429878 58.927418,90.756538 59.666183,90.038712 
	C59.567444,90.649422 59.143291,91.304626 58.409927,92.031525 
z"/>
<path fill="#4C4C52" opacity="1.000000" stroke="none" 
	d="
M48.000477,83.996155 
	C45.651237,84.050659 43.194210,83.684731 40.976738,84.253212 
	C37.170334,85.229042 36.976803,83.737602 37.865494,80.768440 
	C38.379669,79.050568 38.173225,76.944847 39.106171,75.564598 
	C40.527020,73.462509 42.489014,70.618973 44.527229,70.341957 
	C46.717575,70.044266 49.978157,71.777679 51.470314,73.657730 
	C53.357529,76.035538 54.029697,79.455017 50.920139,82.080200 
	C50.564342,82.380577 50.378941,82.882782 49.722343,83.643600 
	C48.886929,83.995918 48.443703,83.996040 48.000477,83.996155 
z"/>
<path fill="#404044" opacity="1.000000" stroke="none" 
	d="
M47.817421,84.256737 
	C48.443703,83.996040 48.886929,83.995918 49.662468,83.993553 
	C52.047970,83.018982 54.101154,82.046654 56.488106,81.011414 
	C56.887314,82.685143 56.952751,84.421776 56.935474,86.585892 
	C52.722309,87.189804 48.591854,87.366234 44.230843,87.276062 
	C45.211647,86.178749 46.423004,85.348030 47.817421,84.256737 
z"/>
</svg>