<svg version="1.1" id="Layer_1" xmlns="http://www.w3.org/2000/svg" xmlns:xlink="http://www.w3.org/1999/xlink" x="0px" y="0px"
	 width="100%" viewBox="0 0 316 240" enable-background="new 0 0 316 240" xml:space="preserve">
<path fill="#000000" opacity="1.000000" stroke="none" 
	d="
M255.000000,1.000000 
	C275.656830,1.000000 296.313660,1.000000 316.977844,0.999998 
	C316.985229,80.952103 316.985229,160.904221 316.985229,240.928162 
	C211.764709,240.928162 106.529373,240.928162 1.147011,240.928162 
	C1.147011,161.000198 1.147011,81.000137 1.147011,1.000000 
	C21.415266,1.000000 41.738976,1.000000 62.531052,1.468657 
	C62.999424,66.169075 62.999424,130.400848 62.999424,194.661392 
	C127.245300,194.661392 191.065857,194.661392 255.000000,194.661392 
	C255.000000,129.881500 255.000000,65.440750 255.000000,1.000000 
z"/>
<path fill="#FFFFFF" opacity="1.000000" stroke="none" 
	d="
M254.531342,1.000000 
	C255.000000,65.440750 255.000000,129.881500 255.000000,194.661392 
	C191.065857,194.661392 127.245300,194.661392 62.999424,194.661392 
	C62.999424,130.400848 62.999424,66.169075 62.999710,1.468657 
	C126.687561,1.000000 190.375122,1.000000 254.531342,1.000000 
M113.863487,139.820816 
	C113.850388,143.225601 113.837280,146.630386 113.084221,150.359283 
	C109.590935,150.722076 106.097649,151.084869 102.229294,151.486618 
	C102.229294,155.160217 102.229294,158.559372 101.336342,161.971695 
	C100.837471,161.975586 100.338562,161.976578 99.839745,161.983810 
	C93.308838,162.078476 92.216743,163.144699 91.939255,168.154236 
	C91.611191,174.076889 95.658104,173.962799 99.485153,173.967361 
	C140.429306,174.016190 181.373657,173.944672 222.317596,174.047058 
	C228.675980,174.062958 226.983734,169.628937 226.872360,166.377411 
	C226.754852,162.946930 225.539917,160.186035 220.903290,161.419617 
	C219.155807,161.884537 217.085968,161.137817 215.188904,160.163116 
	C217.057449,152.327972 216.037979,150.974396 208.254166,150.937759 
	C206.756805,150.930710 205.259583,150.897797 203.924133,149.980148 
	C203.964401,146.286514 204.004669,142.592880 204.796997,139.465347 
	C208.247543,139.465347 211.698105,139.465347 215.885178,139.465347 
	C215.885178,131.814819 215.885178,124.620743 215.885178,117.530602 
	C218.742432,117.277199 220.855927,117.089760 223.853027,116.967087 
	C224.605103,117.908752 225.893631,118.790970 226.005814,119.803535 
	C226.308243,122.533066 226.109238,125.318153 226.109238,128.231537 
	C230.282822,128.231537 233.875931,128.231537 237.520569,128.231537 
	C237.520569,116.724953 237.520569,105.534935 237.520569,93.892708 
	C233.759628,93.892708 230.352325,93.892708 226.598816,93.892708 
	C226.598816,82.535225 226.598816,71.633041 226.598816,60.210083 
	C222.841064,60.210083 219.435806,60.210083 215.626984,60.210083 
	C215.626984,52.609123 215.626984,45.532516 215.626984,38.053677 
	C211.757156,38.053677 208.313492,38.053677 204.536621,37.178989 
	C204.536621,33.613201 204.536621,30.047413 204.536621,26.507662 
	C197.797195,26.507662 191.862289,26.507662 185.029556,26.329386 
	C182.851425,26.610008 181.602081,26.057980 181.813522,23.453812 
	C182.023270,20.870256 181.859421,18.256369 181.859421,15.542102 
	C166.280243,15.542102 151.298218,15.542102 135.888458,15.542102 
	C135.888458,19.370911 135.888458,22.779535 135.888458,26.486778 
	C130.660339,26.486778 125.863098,26.486778 120.215530,26.225172 
	C117.977104,26.225172 115.738678,26.225172 113.010475,26.225172 
	C113.010475,30.725773 113.010475,34.365250 112.331825,37.973648 
	C111.881882,38.006996 111.431938,38.040340 110.480095,37.761906 
	C109.326889,37.864540 108.173683,37.967175 106.156410,37.941235 
	C103.306343,37.508545 101.966072,38.294456 102.118660,41.608318 
	C102.398224,47.679729 102.198288,53.773216 102.198288,60.347446 
	C98.315781,60.347446 94.925926,60.347446 91.054588,60.347446 
	C91.054588,71.844452 91.054588,82.851242 91.054588,94.141197 
	C87.773056,94.141197 84.972336,94.012573 82.198242,94.227570 
	C81.463455,94.284523 80.810631,95.399033 79.730186,96.524170 
	C79.858910,99.338409 79.987625,102.152649 80.061707,105.654922 
	C80.087387,106.113678 80.113068,106.572441 79.851654,107.354424 
	C79.947075,107.890266 80.042496,108.426117 80.062920,109.866165 
	C80.081505,112.586594 80.100090,115.307022 79.789352,118.334518 
	C79.898926,118.878647 80.008492,119.422775 80.062515,120.865509 
	C80.062515,123.289581 80.062515,125.713654 80.062515,128.227341 
	C84.165993,128.227341 87.732635,128.227341 91.783318,128.227341 
	C91.783318,124.332932 91.783318,120.778976 91.783318,116.937737 
	C95.555107,116.937737 98.840485,116.937737 102.080002,117.883011 
	C102.080002,124.987022 102.080002,132.091034 102.080002,139.865524 
	C106.505363,139.504028 110.235794,139.199310 113.863487,139.820816 
z"/>
<path fill="#020202" opacity="1.000000" stroke="none" 
	d="
M80.118683,118.027451 
	C80.100090,115.307022 80.081505,112.586594 80.307312,109.273094 
	C80.414055,108.130417 80.276398,107.580803 80.138741,107.031197 
	C80.113068,106.572441 80.087387,106.113678 80.353416,105.025948 
	C80.470139,101.607300 80.295151,98.817619 80.120163,96.027946 
	C80.810631,95.399033 81.463455,94.284523 82.198242,94.227570 
	C84.972336,94.012573 87.773056,94.141197 91.054588,94.141197 
	C91.054588,82.851242 91.054588,71.844452 91.054588,60.347446 
	C94.925926,60.347446 98.315781,60.347446 102.198288,60.347446 
	C102.198288,53.773216 102.398224,47.679729 102.118660,41.608318 
	C101.966072,38.294456 103.306343,37.508545 106.797813,38.255726 
	C108.620140,38.404709 109.801071,38.239201 110.981995,38.073692 
	C111.431938,38.040340 111.881882,38.006996 113.070442,37.944550 
	C114.394394,34.816532 114.979721,31.717613 115.532829,28.789326 
	C117.414383,28.006321 119.240120,27.246550 121.065849,26.486778 
	C125.863098,26.486778 130.660339,26.486778 135.888458,26.486778 
	C135.888458,22.779535 135.888458,19.370911 135.888458,15.542102 
	C151.298218,15.542102 166.280243,15.542102 181.859421,15.542102 
	C181.859421,18.256369 182.023270,20.870256 181.813522,23.453812 
	C181.602081,26.057980 182.851425,26.610008 185.627655,26.769901 
	C190.605804,27.454231 194.985107,27.861935 199.366211,27.882441 
	C202.142517,27.895433 203.035507,28.902197 203.155640,31.643980 
	C203.250168,33.801437 204.264206,35.918610 204.869812,38.053673 
	C208.313492,38.053677 211.757156,38.053677 215.626984,38.053677 
	C215.626984,45.532516 215.626984,52.609123 215.626984,60.210083 
	C219.435806,60.210083 222.841064,60.210083 226.598816,60.210083 
	C226.598816,71.633041 226.598816,82.535225 226.598816,93.892708 
	C230.352325,93.892708 233.759628,93.892708 237.520569,93.892708 
	C237.520569,105.534935 237.520569,116.724953 237.520569,128.231537 
	C233.875931,128.231537 230.282822,128.231537 226.109238,128.231537 
	C226.109238,125.318153 226.308243,122.533066 226.005814,119.803535 
	C225.893631,118.790970 224.605103,117.908752 223.132233,116.670929 
	C220.036942,116.242966 217.662445,116.111176 215.200317,115.534500 
	C215.051910,112.068558 214.991119,109.047501 215.022278,105.563950 
	C215.114197,97.873466 215.114197,90.645462 215.114197,82.954834 
	C211.145096,82.954834 207.748016,82.954834 203.839905,82.954834 
	C203.839905,75.300255 203.839905,68.104538 203.839905,60.540905 
	C199.839050,60.725487 196.391525,60.884541 192.886246,60.586037 
	C192.828506,56.685944 192.828506,53.243408 192.828506,49.725986 
	C169.909348,49.725986 147.730865,49.725986 125.317375,49.725986 
	C125.127625,53.456738 124.943611,57.074612 124.321014,60.680611 
	C120.922501,60.763973 117.962563,60.859215 114.701248,60.937149 
	C114.300476,61.276737 114.201073,61.633636 114.012123,62.452271 
	C113.922569,69.506660 113.922569,76.099327 113.922569,83.162750 
	C109.902565,83.162750 106.494286,83.162750 102.951157,83.162750 
	C102.951157,91.088127 102.951157,98.533691 102.854134,106.430656 
	C102.756416,110.274025 102.755722,113.665985 102.615814,116.933258 
	C102.476608,116.808571 102.125862,116.937737 102.125862,116.937737 
	C98.840485,116.937737 95.555107,116.937737 91.783318,116.937737 
	C91.783318,120.778976 91.783318,124.332932 91.783318,128.227341 
	C87.732635,128.227341 84.165993,128.227341 80.062515,128.227341 
	C80.062515,125.713654 80.062515,123.289581 80.301483,120.276230 
	C80.399849,119.133781 80.259262,118.580612 80.118683,118.027451 
z"/>
<path fill="#E8E7E7" opacity="1.000000" stroke="none" 
	d="
M215.163071,160.943436 
	C217.085968,161.137817 219.155807,161.884537 220.903290,161.419617 
	C225.539917,160.186035 226.754852,162.946930 226.872360,166.377411 
	C226.983734,169.628937 228.675980,174.062958 222.317596,174.047058 
	C181.373657,173.944672 140.429306,174.016190 99.485153,173.967361 
	C95.658104,173.962799 91.611191,174.076889 91.939255,168.154236 
	C92.216743,163.144699 93.308838,162.078476 99.839745,161.983810 
	C100.338562,161.976578 100.837471,161.975586 102.226456,161.956268 
	C114.074890,161.960968 125.033211,161.981094 136.460999,161.993866 
	C151.650955,161.983734 166.371460,161.980972 181.554855,161.979599 
	C191.508408,161.990417 200.999481,162.048050 210.489243,161.961288 
	C212.050171,161.947021 213.605270,161.298721 215.163071,160.943436 
z"/>
<path fill="#090808" opacity="1.000000" stroke="none" 
	d="
M113.824181,150.035172 
	C113.837280,146.630386 113.850388,143.225601 113.890335,139.396179 
	C113.917191,138.971542 113.952690,139.057938 114.409187,139.186859 
	C133.973953,139.327744 153.082306,139.376190 172.190460,139.337296 
	C182.811462,139.315674 193.432159,139.148346 204.069794,139.008789 
	C204.086609,138.970901 204.044937,138.899246 204.044937,138.899246 
	C204.004669,142.592880 203.964401,146.286514 203.392914,150.359802 
	C195.591995,150.821594 188.322281,150.903763 180.586639,150.889725 
	C165.416962,150.858887 150.713211,150.924255 135.558441,150.848999 
	C128.012985,150.483963 120.918587,150.259567 113.824181,150.035172 
z"/>
<path fill="#F3CCBF" opacity="1.000000" stroke="none" 
	d="
M181.052582,150.985931 
	C188.322281,150.903763 195.591995,150.821594 203.311996,150.808136 
	C205.259583,150.897797 206.756805,150.930710 208.254166,150.937759 
	C216.037979,150.974396 217.057449,152.327972 215.175995,160.553284 
	C213.605270,161.298721 212.050171,161.947021 210.489243,161.961288 
	C200.999481,162.048050 191.508408,161.990417 181.543381,161.523712 
	C181.063522,157.706284 181.058060,154.346100 181.052582,150.985931 
z"/>
<path fill="#D5B9B0" opacity="1.000000" stroke="none" 
	d="
M113.454201,150.197235 
	C120.918587,150.259567 128.012985,150.483963 135.555939,151.307800 
	C136.000183,155.271912 135.995865,158.636566 135.991547,162.001221 
	C125.033211,161.981094 114.074890,161.960968 102.672928,161.949677 
	C102.229294,158.559372 102.229294,155.160217 102.229294,151.486618 
	C106.097649,151.084869 109.590935,150.722076 113.454201,150.197235 
z"/>
<path fill="#191919" opacity="1.000000" stroke="none" 
	d="
M215.287933,115.979385 
	C217.662445,116.111176 220.036942,116.242966 222.690430,116.638542 
	C220.855927,117.089760 218.742432,117.277199 215.885178,117.530602 
	C215.885178,124.620743 215.885178,131.814819 215.885178,139.465347 
	C211.698105,139.465347 208.247543,139.465347 204.420959,139.182297 
	C204.044937,138.899246 204.086609,138.970901 204.007843,138.540863 
	C203.929062,131.188385 203.929062,124.265945 203.929062,117.404854 
	C208.000214,116.893951 211.644073,116.436668 215.287933,115.979385 
z"/>
<path fill="#232323" opacity="1.000000" stroke="none" 
	d="
M102.102936,117.410370 
	C102.125862,116.937737 102.476608,116.808571 103.091217,116.837997 
	C106.981171,116.867432 110.256516,116.867432 113.952690,116.867432 
	C113.952690,124.555359 113.952690,131.806641 113.952690,139.057938 
	C113.952690,139.057938 113.917191,138.971542 113.941704,138.933060 
	C110.235794,139.199310 106.505363,139.504028 102.080002,139.865524 
	C102.080002,132.091034 102.080002,124.987022 102.102936,117.410370 
z"/>
<path fill="#232323" opacity="1.000000" stroke="none" 
	d="
M204.703217,37.616333 
	C204.264206,35.918610 203.250168,33.801437 203.155640,31.643980 
	C203.035507,28.902197 202.142517,27.895433 199.366211,27.882441 
	C194.985107,27.861935 190.605804,27.454231 186.076569,26.859039 
	C191.862289,26.507662 197.797195,26.507662 204.536621,26.507662 
	C204.536621,30.047413 204.536621,33.613201 204.703217,37.616333 
z"/>
<path fill="#232323" opacity="1.000000" stroke="none" 
	d="
M120.640686,26.355976 
	C119.240120,27.246550 117.414383,28.006321 115.532829,28.789326 
	C114.979721,31.717613 114.394394,34.816532 113.409767,37.960091 
	C113.010475,34.365250 113.010475,30.725773 113.010475,26.225172 
	C115.738678,26.225172 117.977104,26.225172 120.640686,26.355976 
z"/>
<path fill="#232323" opacity="1.000000" stroke="none" 
	d="
M79.925171,96.276062 
	C80.295151,98.817619 80.470139,101.607300 80.380737,104.681931 
	C79.987625,102.152649 79.858910,99.338409 79.925171,96.276062 
z"/>
<path fill="#232323" opacity="1.000000" stroke="none" 
	d="
M110.731049,37.917801 
	C109.801071,38.239201 108.620140,38.404709 107.229843,38.320015 
	C108.173683,37.967175 109.326889,37.864540 110.731049,37.917801 
z"/>
<path fill="#232323" opacity="1.000000" stroke="none" 
	d="
M79.954010,118.180984 
	C80.259262,118.580612 80.399849,119.133781 80.329254,119.826920 
	C80.008492,119.422775 79.898926,118.878647 79.954010,118.180984 
z"/>
<path fill="#232323" opacity="1.000000" stroke="none" 
	d="
M79.995193,107.192810 
	C80.276398,107.580803 80.414055,108.130417 80.344818,108.820992 
	C80.042496,108.426117 79.947075,107.890266 79.995193,107.192810 
z"/>
<path fill="#FEFEFE" opacity="1.000000" stroke="none" 
	d="
M114.409187,139.186859 
	C113.952690,131.806641 113.952690,124.555359 113.952690,116.867432 
	C110.256516,116.867432 106.981171,116.867432 103.230423,116.962692 
	C102.755722,113.665985 102.756416,110.274025 103.318214,106.410027 
	C107.111290,105.937996 110.343262,105.937996 113.702614,105.937996 
	C113.914398,101.567833 114.086136,98.023964 114.279831,94.026909 
	C121.876678,94.026909 128.957886,94.026909 136.493805,94.039078 
	C138.614456,94.051712 140.300217,94.217758 141.942474,94.020805 
	C146.405685,93.485504 148.578842,95.027481 147.986160,99.825851 
	C147.754395,101.702209 148.135727,103.654289 148.237671,105.568764 
	C155.741791,105.568764 162.642990,105.568764 169.510391,105.568764 
	C169.978226,101.786140 169.231583,97.186462 171.146744,95.324234 
	C173.068985,93.455109 177.644424,94.314598 181.521194,94.012108 
	C189.218811,94.045959 196.452316,94.045959 203.550705,94.045959 
	C204.812973,105.645760 204.812973,105.645760 214.930328,106.026436 
	C214.991119,109.047501 215.051910,112.068558 215.200317,115.534500 
	C211.644073,116.436668 208.000214,116.893951 203.929062,117.404854 
	C203.929062,124.265945 203.929062,131.188385 203.991028,138.578766 
	C193.432159,139.148346 182.811462,139.315674 172.190460,139.337296 
	C153.082306,139.376190 133.973953,139.327744 114.409187,139.186859 
z"/>
<path fill="#B9B9B9" opacity="1.000000" stroke="none" 
	d="
M124.759598,60.692482 
	C124.943611,57.074612 125.127625,53.456738 125.317375,49.725986 
	C147.730865,49.725986 169.909348,49.725986 192.828506,49.725986 
	C192.828506,53.243408 192.828506,56.685944 192.907196,60.556168 
	C192.985870,60.983860 193.057297,60.969009 192.602753,60.889580 
	C188.539825,60.891872 184.931427,60.973595 180.843323,60.992355 
	C169.954285,60.694996 169.954956,60.694988 170.078003,71.156647 
	C170.081848,71.483688 170.041245,71.811249 170.077118,72.583038 
	C170.153030,76.316948 170.173203,79.606392 169.713806,82.930832 
	C162.064087,82.927567 154.893936,82.889297 147.709290,82.392250 
	C147.696564,78.786629 147.694519,75.639771 147.700821,72.492935 
	C147.722977,61.438278 147.724060,61.438282 136.110672,61.048981 
	C132.141556,61.119526 128.670792,61.180599 125.086502,61.107117 
	C124.972977,60.972561 124.759598,60.692482 124.759598,60.692482 
z"/>
<path fill="#BFBEBE" opacity="1.000000" stroke="none" 
	d="
M215.022263,105.563950 
	C204.812973,105.645760 204.812973,105.645760 203.550705,94.045959 
	C196.452316,94.045959 189.218811,94.045959 181.510391,93.561005 
	C181.019501,89.791214 181.003510,86.506386 181.443512,83.143806 
	C185.322418,83.066055 188.745346,83.066055 193.057297,83.066055 
	C193.057297,75.372078 193.057297,68.170540 193.057297,60.969009 
	C193.057297,60.969009 192.985870,60.983860 192.964935,61.013725 
	C196.391525,60.884541 199.839050,60.725487 203.839905,60.540905 
	C203.839905,68.104538 203.839905,75.300255 203.839905,82.954834 
	C207.748016,82.954834 211.145096,82.954834 215.114197,82.954834 
	C215.114197,90.645462 215.114197,97.873466 215.022263,105.563950 
z"/>
<path fill="#BFBFBF" opacity="1.000000" stroke="none" 
	d="
M136.039093,94.026909 
	C128.957886,94.026909 121.876678,94.026909 114.279831,94.026909 
	C114.086136,98.023964 113.914398,101.567833 113.702614,105.937996 
	C110.343262,105.937996 107.111290,105.937996 103.415237,105.958626 
	C102.951157,98.533691 102.951157,91.088127 102.951157,83.162750 
	C106.494286,83.162750 109.902565,83.162750 113.922569,83.162750 
	C113.922569,76.099327 113.922569,69.506660 114.217690,62.333443 
	C114.764565,61.541031 114.927841,61.274887 115.002625,60.954456 
	C117.962563,60.859215 120.922501,60.763973 124.321014,60.680611 
	C124.759598,60.692482 124.972977,60.972561 125.027161,61.543892 
	C125.057747,65.431587 125.034149,68.747948 125.043381,72.520782 
	C125.076202,76.228302 125.076202,79.479340 125.076202,83.269516 
	C129.166443,83.269516 132.610153,83.269516 136.053833,83.710915 
	C136.048920,87.443848 136.044006,90.735374 136.039093,94.026909 
z"/>
<path fill="#B9B9B9" opacity="1.000000" stroke="none" 
	d="
M114.701248,60.937149 
	C114.927841,61.274887 114.764565,61.541031 114.307243,61.871708 
	C114.201073,61.633636 114.300476,61.276737 114.701248,60.937149 
z"/>
<path fill="#FEFEFD" opacity="1.000000" stroke="none" 
	d="
M136.460999,161.993866 
	C135.995865,158.636566 136.000183,155.271912 136.006989,151.448456 
	C150.713211,150.924255 165.416962,150.858887 180.586639,150.889725 
	C181.058060,154.346100 181.063522,157.706284 181.080475,161.522339 
	C166.371460,161.980972 151.650955,161.983734 136.460999,161.993866 
z"/>
<path fill="#F4CCBE" opacity="1.000000" stroke="none" 
	d="
M136.493805,94.039078 
	C136.044006,90.735374 136.048920,87.443848 136.499466,83.628326 
	C140.537994,83.019905 144.130890,82.935463 147.723785,82.851028 
	C154.893936,82.889297 162.064087,82.927567 170.156708,82.981277 
	C174.381958,83.071671 177.684738,83.146614 180.987534,83.221558 
	C181.003510,86.506386 181.019501,89.791214 181.046280,93.527145 
	C177.644424,94.314598 173.068985,93.455109 171.146744,95.324234 
	C169.231583,97.186462 169.978226,101.786140 169.510391,105.568764 
	C162.642990,105.568764 155.741791,105.568764 148.237671,105.568764 
	C148.135727,103.654289 147.754395,101.702209 147.986160,99.825851 
	C148.578842,95.027481 146.405685,93.485504 141.942474,94.020805 
	C140.300217,94.217758 138.614456,94.051712 136.493805,94.039078 
z"/>
<path fill="#080808" opacity="1.000000" stroke="none" 
	d="
M181.443512,83.143799 
	C177.684738,83.146614 174.381958,83.071671 170.636261,82.946274 
	C170.173203,79.606392 170.153030,76.316948 170.533112,72.498955 
	C174.316132,71.970398 177.698883,71.970398 181.323029,71.970398 
	C181.323029,67.906868 181.323029,64.481094 181.323029,61.055321 
	C184.931427,60.973595 188.539825,60.891872 192.602753,60.889580 
	C193.057297,68.170540 193.057297,75.372078 193.057297,83.066055 
	C188.745346,83.066055 185.322418,83.066055 181.443512,83.143799 
z"/>
<path fill="#090909" opacity="1.000000" stroke="none" 
	d="
M147.709290,82.392242 
	C144.130890,82.935463 140.537994,83.019905 136.499481,83.186935 
	C132.610153,83.269516 129.166443,83.269516 125.076202,83.269516 
	C125.076202,79.479340 125.076202,76.228302 125.503922,72.467072 
	C129.318466,71.956886 132.705276,71.956886 136.090744,71.956886 
	C136.283691,67.892738 136.446365,64.466125 136.609039,61.039509 
	C147.724060,61.438282 147.722977,61.438278 147.700821,72.492935 
	C147.694519,75.639771 147.696564,78.786629 147.709290,82.392242 
z"/>
<path fill="#FDFDFD" opacity="1.000000" stroke="none" 
	d="
M136.110687,61.048981 
	C136.446365,64.466125 136.283691,67.892738 136.090744,71.956886 
	C132.705276,71.956886 129.318466,71.956886 125.471100,72.010597 
	C125.034149,68.747948 125.057747,65.431587 125.140686,61.678452 
	C128.670792,61.180599 132.141556,61.119526 136.110687,61.048981 
z"/>
<path fill="#FCFCFC" opacity="1.000000" stroke="none" 
	d="
M180.843323,60.992352 
	C181.323029,64.481094 181.323029,67.906868 181.323029,71.970398 
	C177.698883,71.970398 174.316132,71.970398 170.477356,72.054489 
	C170.041245,71.811249 170.081848,71.483688 170.078003,71.156647 
	C169.954956,60.694988 169.954285,60.694996 180.843323,60.992352 
z"/>
</svg>