<svg width="314" height="227" viewBox="0 0 314 227" fill="none" xmlns="http://www.w3.org/2000/svg">
<g clip-path="url(#clip0_715_25202)">
<path d="M52.6901 217.072C52.4385 217.083 52.1894 217.017 51.9767 216.882C51.7639 216.748 51.5976 216.551 51.5005 216.318C51.4033 216.086 51.3799 215.829 51.4335 215.583C51.487 215.337 51.615 215.114 51.7999 214.943L51.8841 214.608C51.873 214.581 51.8618 214.554 51.8506 214.528C51.5972 213.929 51.1725 213.419 50.6299 213.061C50.0873 212.703 49.451 212.513 48.8009 212.515C48.1508 212.518 47.5159 212.712 46.976 213.074C46.4361 213.436 46.0152 213.95 45.7662 214.55C44.771 216.947 43.504 219.348 43.1921 221.882C43.0547 223.002 43.1126 224.138 43.3634 225.238C41.0261 220.14 39.8124 214.598 39.8045 208.989C39.8041 207.582 39.8822 206.175 40.0388 204.777C40.1681 203.63 40.3476 202.492 40.5772 201.361C41.8299 195.228 44.5196 189.48 48.4254 184.588C50.3158 183.557 51.8446 181.97 52.8057 180.043C53.154 179.351 53.4001 178.611 53.5364 177.848C53.3232 177.876 52.7323 174.628 52.8932 174.429C52.596 173.978 52.0641 173.754 51.7395 173.314C50.1253 171.125 47.9014 171.507 46.7404 174.481C44.2602 175.733 44.2362 177.809 45.758 179.806C46.7262 181.076 46.8593 182.795 47.7088 184.154C47.6213 184.266 47.5304 184.375 47.4431 184.487C45.8454 186.541 44.453 188.747 43.2857 191.073C43.5695 188.467 43.2307 185.831 42.2971 183.382C41.3509 181.099 39.5774 179.177 38.0156 177.203C36.1396 174.833 32.2927 175.868 31.9622 178.872C31.959 178.901 31.9558 178.931 31.9528 178.96C32.1848 179.09 32.4119 179.229 32.634 179.376C32.9132 179.563 33.1295 179.829 33.2546 180.141C33.3797 180.452 33.4077 180.794 33.3351 181.122C33.2625 181.45 33.0926 181.748 32.8476 181.977C32.6027 182.207 32.2941 182.357 31.9623 182.408L31.9283 182.414C32.011 183.25 32.1571 184.078 32.3653 184.892C30.3617 192.641 34.6873 195.463 40.8638 195.59C41.0001 195.659 41.133 195.729 41.2694 195.796C40.0965 199.119 39.3609 202.581 39.0809 206.095C38.9224 208.167 38.9317 210.25 39.1089 212.321L39.0984 212.247C38.6509 209.944 37.4222 207.866 35.6199 206.364C32.9431 204.165 29.1612 203.355 26.2734 201.588C25.9665 201.391 25.6096 201.285 25.2449 201.285C24.8802 201.284 24.5229 201.387 24.215 201.583C23.9071 201.778 23.6616 202.058 23.5074 202.388C23.3532 202.719 23.2967 203.086 23.3446 203.448C23.3484 203.474 23.3524 203.499 23.3564 203.525C23.7869 203.701 24.206 203.903 24.6114 204.13C24.8434 204.261 25.0705 204.4 25.2926 204.547C25.5718 204.733 25.788 205 25.9131 205.311C26.0382 205.623 26.0663 205.965 25.9937 206.292C25.9211 206.62 25.7512 206.918 25.5062 207.148C25.2612 207.377 24.9527 207.528 24.6209 207.579L24.5869 207.584C24.5624 207.587 24.5415 207.591 24.517 207.594C25.2526 209.351 26.2849 210.967 27.5689 212.373C28.8217 219.137 34.2026 219.779 39.9583 217.809H39.9618C40.5934 220.554 41.5084 223.225 42.6922 225.78H52.4457C52.4807 225.672 52.5121 225.56 52.5436 225.451C51.6408 225.508 50.7344 225.454 49.8447 225.291C50.5684 224.403 51.292 223.508 52.0157 222.62C52.0318 222.603 52.047 222.586 52.0611 222.567C52.4282 222.113 52.7988 221.662 53.1658 221.207L53.166 221.207C53.1856 219.814 53.0254 218.424 52.6901 217.072Z" fill="#F2F2F2"/>
<path d="M63.9083 225.562H79.6474C82.3393 216.498 79.6618 195.077 83.2099 186.322C90.0171 169.535 98.7135 151.823 114.945 143.626C121.875 140.126 129.432 138.759 137.149 138.833C147.809 138.935 158.769 141.796 168.804 145.589C172.908 147.137 176.975 148.839 181.027 150.578C196.289 157.136 211.386 164.28 227.8 166.211C248.569 168.652 272.989 159.36 278.661 139.344C282.991 124.02 275.194 108.11 267.016 94.4245C258.839 80.7385 249.698 66.0951 251.192 50.2495C251.197 50.1964 251.202 50.1378 251.213 50.0846C251.775 44.3932 255.173 40.303 259.92 37.6807H239.252C238.979 52.4624 247.531 65.51 255.227 78.3928C263.404 92.0734 271.201 107.988 266.872 123.312C261.199 143.323 214.226 119.866 193.457 117.42C187.591 116.734 196.909 119.175 191.316 117.42C182.545 114.67 181.572 139.892 173.037 136.19C167.723 133.881 162.403 131.589 157.014 129.552C154.782 128.706 152.503 127.913 150.196 127.179C150.194 127.179 150.192 127.179 150.19 127.178C150.188 127.177 150.187 127.176 150.185 127.174C134.698 122.27 117.76 120.36 103.45 127.451C103.353 127.498 103.252 127.546 103.155 127.594C86.9239 135.786 78.2276 153.498 71.4203 170.285C65.7957 184.163 66.6804 210.924 63.9083 225.562Z" fill="#F2F2F2"/>
<path d="M157.206 225.097C80.3929 226.724 78.7086 193.077 78.7086 153.057C78.7086 113.036 113.736 81.7285 157.141 81.7285C200.547 81.7285 235.02 113.024 235.02 153.044C235.02 193.064 200.611 225.097 157.206 225.097Z" fill="white"/>
<path d="M156.768 225.534C79.9554 227.161 78.2711 193.514 78.2711 153.494C78.2711 113.473 113.584 80.915 156.99 80.915C200.396 80.915 235.709 113.474 235.709 153.494C235.709 193.513 200.174 225.534 156.768 225.534ZM156.99 82.9121C114.778 82.9121 81.148 114.58 80.4372 153.494C79.776 189.688 121.479 234.853 156.99 224.076C176.033 204.739 229.875 183.911 233.543 153.494C238.207 114.813 199.201 82.9121 156.99 82.9121Z" fill="#3F3D56"/>
<path d="M2.30482e-06 225.617C-0.000201609 225.686 0.013127 225.754 0.0392213 225.817C0.0653157 225.88 0.103661 225.938 0.152051 225.986C0.200441 226.034 0.25792 226.073 0.321183 226.099C0.384446 226.125 0.452243 226.138 0.520675 226.138H313.473C313.611 226.138 313.743 226.083 313.841 225.985C313.939 225.888 313.994 225.755 313.994 225.617C313.994 225.479 313.939 225.347 313.841 225.249C313.743 225.152 313.611 225.097 313.473 225.097H0.520675C0.452244 225.096 0.384447 225.11 0.321185 225.136C0.257923 225.162 0.200444 225.2 0.152055 225.249C0.103665 225.297 0.0653199 225.355 0.0392249 225.418C0.0131299 225.481 -0.000199867 225.549 2.30482e-06 225.617Z" fill="#CCCCCC"/>
<path d="M210.872 218.954H205.468L202.897 198.108L210.874 198.109L210.872 218.954Z" fill="#A0616A"/>
<path d="M211.063 224.592L194.444 224.591V224.381C194.444 222.665 195.126 221.02 196.339 219.807C197.552 218.594 199.197 217.912 200.912 217.912L203.948 215.609L209.612 217.913L211.063 217.913L211.063 224.592Z" fill="#2F2E41"/>
<path d="M202.661 170.635C196.489 164.642 189.397 159.677 181.654 155.93L177.705 160.388L180.22 155.252C169.856 150.519 158.606 148.041 147.213 147.981C135.82 147.92 124.544 150.28 114.131 154.903L116.183 159.359L113.032 155.399C104.898 159.182 97.4544 164.3 91.0092 170.539C90.3466 171.157 89.9373 171.999 89.8608 172.901C89.8277 173.391 89.9003 173.883 90.0737 174.343C90.247 174.803 90.5171 175.22 90.8656 175.566C91.8586 176.036 93.2737 177.115 95.3762 180.076C96.021 180.712 96.8886 181.071 97.7942 181.077C98.6998 181.083 99.5718 180.734 100.224 180.106C112.711 168.02 129.408 161.262 146.786 161.262C164.164 161.262 180.861 168.02 193.348 180.106C194 180.734 194.872 181.083 195.778 181.077C196.683 181.071 197.551 180.712 198.196 180.076C200.311 178.173 200.806 175.484 202.623 175.649C203.263 175.03 203.652 174.196 203.714 173.307C203.741 172.812 203.66 172.317 203.479 171.856C203.297 171.395 203.018 170.978 202.661 170.635Z" fill="#D81919"/>
<path d="M161.458 177.121L156.054 177.12L153.483 156.275L161.459 156.276L161.458 177.121Z" fill="#A0616A"/>
<path d="M161.648 182.759L145.029 182.758V182.548C145.029 180.832 145.711 179.187 146.924 177.974C148.137 176.761 149.782 176.079 151.498 176.079L154.534 173.776L160.198 176.08L161.648 176.08L161.648 182.759Z" fill="#2F2E41"/>
<path d="M217.051 100.374L178.699 104.381L169.275 113.692L154.285 118.587C152.398 119.203 150.743 120.381 149.544 121.963C148.344 123.545 147.656 125.455 147.571 127.439C147.181 136.581 146.41 151.76 145.596 151.601C144.432 151.373 146.759 157.061 148.389 156.731C150.018 156.401 151.713 160.109 150.587 160.769C149.46 161.428 151.337 167.07 151.337 167.07L163.076 165.178C164.546 154.094 169.913 142.411 163.587 134.256C174.3 130.779 183.737 127.872 190.676 126.081L194.429 124.524L202.221 207.316L213.241 207.497C216.281 191.855 217.809 177.778 215.432 167.735C215.432 167.735 215.773 137.565 217.077 137.895C218.38 138.225 217.275 134.295 217.275 134.295C217.275 134.295 216.134 130.947 217.536 129.559C218.938 128.17 218.063 120.003 218.063 120.003C220.38 112.274 219.682 105.892 217.051 100.374Z" fill="#2F2E41"/>
<path d="M221.586 83.4803C221.965 81.7768 222.345 80.0731 222.725 78.3694C223.792 73.5985 224.857 68.8298 225.921 64.0633C227.317 57.818 228.719 51.3552 227.518 45.0706C227.338 44.1254 227.086 43.1954 226.764 42.2887C224.965 37.144 220.993 32.6359 215.726 31.6865L214.866 28.4799L203.112 27.0332L200.888 30.101C196.1 29.7181 193.258 34.4855 189.955 38.4142L188.643 39.7268C187.686 40.9231 187.49 45.4175 186.893 46.7271C184.237 52.5503 187.897 46.8911 187.768 53.2898C187.634 59.9206 186.331 66.3548 186.197 72.985C186.183 73.6965 184.652 74.2388 184.388 75.4861C184.246 76.1593 185.432 77.4081 185.252 78.1608C185.099 78.8032 185.865 81.3849 185.701 82.0489C184.938 85.1291 183.21 86.3419 183.134 87.8607C183.1 88.4452 183.012 89.0254 182.874 89.5943C182.779 89.998 181.455 89.5142 181.326 89.9242C181.109 90.6131 182.063 92.1993 181.801 92.8889C181.295 94.2233 181.635 96.5801 181.326 97.7996C180.025 102.919 180.524 100.887 177.705 105.354C184.921 107.536 188.038 114.842 195.461 116.157C195.796 115.076 196.13 113.992 196.462 112.905C197.446 112.968 198.436 113.027 199.426 113.081C199.482 114.025 199.538 114.969 199.594 115.908C207.118 116.393 214.665 116.434 222.195 116.031C221.942 115.274 221.741 114.501 221.591 113.718C221.178 111.539 222.066 109.176 222.161 107.02C222.228 105.422 221.469 104.065 221.491 102.344C221.496 102.026 223.284 101.758 223.278 101.434C223.25 98.5738 221.625 94.7473 222.161 91.9376C222.72 89.0497 220.949 86.352 221.586 83.4812L221.586 83.4803Z" fill="#3F3D56"/>
<path d="M166.609 14.3965C165.613 14.3976 164.657 14.794 163.953 15.4986C163.248 16.2033 162.852 17.1586 162.851 18.1551V40.8026C162.852 41.7991 163.248 42.7544 163.953 43.4591C164.657 44.1637 165.613 44.56 166.609 44.5612H173.616C174.612 44.56 175.568 44.1637 176.272 43.4591C176.977 42.7544 177.373 41.7991 177.374 40.8026C178.491 29.4228 178.081 23.2814 177.374 18.1551C177.373 17.1586 176.977 16.2033 176.272 15.4986C175.568 14.794 174.612 14.3976 173.616 14.3965L166.609 14.3965Z" fill="#D81919"/>
<path d="M165.734 14.3965C164.738 14.3977 163.782 14.794 163.078 15.4986C162.373 16.2032 161.977 17.1585 161.976 18.155C161.573 27.0575 161.293 35.5476 161.976 40.8025C161.977 41.799 162.373 42.7544 163.078 43.459C163.782 44.1637 164.738 44.5601 165.734 44.5612H172.741C173.737 44.56 174.693 44.1637 175.397 43.4591C176.102 42.7544 176.498 41.7991 176.499 40.8026V18.1551C176.498 17.1586 176.102 16.2033 175.397 15.4986C174.693 14.794 173.737 14.3977 172.741 14.3965L165.734 14.3965Z" fill="#3F3D56"/>
<path d="M183.772 47.3581C183.772 47.3581 190.399 47.0893 187.026 49.9506C184.831 51.8126 179.888 64.7752 174.753 66.3433C174.148 66.5276 173.512 66.5844 172.884 66.5099C172.257 66.4355 171.651 66.2315 171.107 65.9108C170.562 65.5902 170.09 65.1599 169.72 64.6472C169.35 64.1346 169.091 63.5507 168.959 62.9326L164.304 41.2364L170.384 40.3115L174.09 57.4832L183.772 47.3581Z" fill="#A0616A"/>
<path d="M167.68 42.8207C170.055 42.8207 171.981 40.8953 171.981 38.5202C171.981 36.1451 170.055 34.2197 167.68 34.2197C165.305 34.2197 163.38 36.1451 163.38 38.5202C163.38 40.8953 165.305 42.8207 167.68 42.8207Z" fill="#A0616A"/>
<path d="M192.761 35.502C196.7 38.4606 197.86 48.1622 195.385 52.4217C190.652 60.5642 181.323 66.8332 180.925 65.9626C180.38 64.7703 179.431 66.3713 179.463 66.8954C179.495 67.4195 177.698 67.2632 177.908 67.8179C178.117 68.3725 176.699 68.4929 176.083 68.8145C176.083 68.8145 170.445 68.9098 168.666 66.3372C166.888 63.7645 166.649 60.2093 166.649 60.2093L164.441 57.6114L176.148 50.7681L175.183 55.3871L181.023 48.5871L182.259 45.859L184.231 44.852L184.884 42.7963L186.702 41.9743L193.893 33.6016L192.761 35.502Z" fill="#3F3D56"/>
<path d="M225.108 115.2C225.599 114.876 226.013 114.448 226.321 113.946C226.63 113.445 226.824 112.882 226.891 112.297C226.958 111.712 226.896 111.12 226.709 110.561C226.522 110.003 226.215 109.493 225.81 109.066L226.637 72.2773L219.368 73.4082L219.881 109.091C219.209 109.819 218.827 110.769 218.809 111.76C218.791 112.751 219.136 113.714 219.781 114.467C220.425 115.22 221.323 115.711 222.305 115.846C223.287 115.981 224.284 115.751 225.108 115.2Z" fill="#A0616A"/>
<path d="M225.425 40.9189C225.425 40.9189 224.942 41.2834 227.415 45.0511C227.905 45.7983 228.238 48.8112 228.47 52.7428C228.546 54.0236 229.275 54.9234 229.332 56.3528C229.38 57.5658 228.758 59.294 228.795 60.552C228.814 61.2229 229.315 61.8067 229.332 62.478C229.339 62.7578 228.864 63.1268 228.871 63.4056C228.878 63.7063 228.885 64.0061 228.892 64.3049C229.062 71.7773 229.098 78.5262 229.267 78.4122C229.627 78.1692 228.733 79.4254 229.18 79.6352C229.627 79.845 228.798 80.8857 229.012 81.4251C229.272 82.0823 228.948 82.8073 228.744 83.467C228.154 85.372 228.027 87.0078 227.514 87.9127C228.123 88.2621 228.598 88.8042 228.865 89.4535C229.132 90.1029 229.176 90.8226 228.989 91.4993L218.743 89.647C217.494 87.646 217.675 85.5458 218.526 85.1798L218.272 78.6682L215.354 44.98L223.906 41.1619L225.425 40.9189Z" fill="#3F3D56"/>
<path d="M161.837 20.2051C161.69 20.2051 161.57 20.2752 161.57 20.3613V21.6113C161.57 21.6975 161.69 21.7675 161.837 21.7675C161.984 21.7675 162.104 21.6974 162.104 21.6113V20.3613C162.104 20.2752 161.984 20.2051 161.837 20.2051Z" fill="#3F3D56"/>
<path d="M161.837 23.5176C161.69 23.5176 161.57 23.5877 161.57 23.6738V26.0956C161.57 26.1818 161.69 26.2518 161.837 26.2518C161.984 26.2518 162.104 26.1818 162.104 26.0956V23.6738C162.104 23.5877 161.984 23.5176 161.837 23.5176Z" fill="#3F3D56"/>
<path d="M176.713 23.9551C176.634 23.964 176.562 24.0033 176.513 24.0646C176.463 24.1258 176.439 24.2041 176.446 24.2827V29.3615C176.438 29.4011 176.438 29.4421 176.448 29.4814C176.458 29.5207 176.476 29.5573 176.501 29.5887C176.527 29.6201 176.559 29.6454 176.596 29.6628C176.632 29.6801 176.672 29.6892 176.713 29.6892C176.753 29.6892 176.793 29.6801 176.83 29.6628C176.866 29.6454 176.898 29.6201 176.924 29.5887C176.949 29.5573 176.968 29.5207 176.977 29.4814C176.987 29.4421 176.988 29.4011 176.979 29.3615V24.2827C176.987 24.2041 176.963 24.1258 176.913 24.0646C176.863 24.0033 176.791 23.964 176.713 23.9551Z" fill="#3F3D56"/>
<path d="M161.4 27.3926C161.252 27.3926 161.133 27.4627 161.133 27.5488V29.9706C161.133 30.0568 161.252 30.1268 161.4 30.1268C161.547 30.1268 161.666 30.0568 161.666 29.9706V27.5488C161.666 27.4627 161.547 27.3926 161.4 27.3926Z" fill="#3F3D56"/>
<path d="M208.166 25.8977C214.232 25.8977 219.15 20.9802 219.15 14.9142C219.15 8.84814 214.232 3.93066 208.166 3.93066C202.1 3.93066 197.183 8.84814 197.183 14.9142C197.183 20.9802 202.1 25.8977 208.166 25.8977Z" fill="#A0616A"/>
<path d="M220.43 19.9608C219.572 21.6768 218.756 22.7501 217.274 23.7093C217.198 23.4907 217.137 23.2672 217.092 23.0405C216.934 23.3932 216.78 23.7452 216.618 24.0987C215.68 24.6224 216.693 23.8144 215.157 24.4L213.866 22.1837C213.512 21.1316 214.013 19.9858 214.651 19.0754C215.289 18.1686 216.083 17.3373 216.429 16.2832C216.775 15.229 216.468 13.8325 215.431 13.4401C214.41 13.0483 213.282 13.7916 212.196 13.6625C210.943 13.5147 210.091 12.2039 210.023 10.9428C209.955 9.68173 210.469 8.47087 210.973 7.31684C209.456 8.40413 204.756 10.3521 202.197 10.4452C202.128 9.64711 201.759 8.90484 201.165 8.36782C201.269 9.09439 201.092 9.83332 200.67 10.434C198.165 10.3055 197.694 13.9439 196.401 12.6264C196.805 12.4232 195.317 7.9016 195.721 7.69844C195.41 6.84717 195.1 5.99837 194.79 5.15204C195.366 5.2971 195.946 5.44508 196.525 5.58934C196.561 5.27989 196.655 4.98 196.802 4.70541C197.215 4.46999 197.655 4.28449 198.111 4.1528C198.258 4.11349 198.409 4.07339 198.562 4.04072C198.787 3.99046 199.016 3.95323 199.246 3.92922C198.913 3.73611 198.577 3.54749 198.243 3.35068C198.203 3.3281 198.167 3.30471 198.127 3.28213C198.596 2.9598 199.086 2.66907 199.593 2.41185C201.734 1.2922 203.955 0.151319 206.367 0.0117597C207.935 -0.0880374 209.489 0.359216 210.763 1.27721C211.863 2.0666 213.193 2.46696 214.546 2.41495C215.203 2.40994 215.854 2.55477 216.447 2.83844C216.175 3.11219 215.878 3.3595 215.559 3.57702C216.255 3.59512 216.948 3.61402 217.645 3.63585C218.425 4.34614 219.083 5.18008 219.593 6.10422C222.034 10.2754 222.592 15.6396 220.43 19.9608Z" fill="#2F2E41"/>
<path d="M185.158 191.075C185.075 190.527 184.862 190.006 184.537 189.557C184.212 189.107 183.784 188.742 183.29 188.491C178.646 186.115 173.78 184.203 168.761 182.782L164.064 188.974L167.536 182.441C154.688 178.994 141.184 178.802 128.244 181.883L130.05 186.863L127.099 182.168C121.272 183.633 115.631 185.755 110.282 188.491C109.79 188.744 109.364 189.109 109.039 189.557C108.714 190.005 108.5 190.523 108.414 191.07C108.328 191.616 108.372 192.175 108.543 192.701C108.714 193.228 109.007 193.706 109.398 194.098C111.428 194.222 112.769 196.109 114.107 198.807C114.62 199.313 115.277 199.649 115.988 199.767C116.698 199.885 117.428 199.781 118.077 199.468C127.047 195.202 136.854 192.989 146.786 192.989C156.718 192.989 166.525 195.202 175.494 199.468C176.143 199.781 176.873 199.885 177.584 199.767C178.295 199.649 178.951 199.313 179.464 198.807C180.268 196.626 181.927 195.336 184.174 194.098C184.567 193.709 184.861 193.231 185.032 192.706C185.204 192.18 185.247 191.621 185.158 191.075Z" fill="#D81919"/>
<path d="M159.21 212.397C158.182 212.236 157.147 212.095 156.106 211.974L152.026 218.467L155.066 211.864C150.126 211.359 145.15 211.307 140.2 211.707L143.312 218.467L139.123 211.801C137.524 211.952 135.937 212.151 134.362 212.397C133.822 212.477 133.316 212.708 132.902 213.062C132.488 213.417 132.182 213.881 132.019 214.401C131.846 214.926 131.823 215.489 131.951 216.027C132.079 216.564 132.355 217.055 132.746 217.446C134.431 219.096 136.288 221.388 139.341 224.041C139.639 224.343 139.999 224.576 140.396 224.725C140.793 224.875 141.217 224.936 141.64 224.905C143.332 224.78 145.063 224.716 146.786 224.716C148.508 224.716 150.24 224.78 151.931 224.905C152.354 224.935 152.779 224.874 153.176 224.725C153.572 224.575 153.932 224.342 154.231 224.041C157.383 221.35 158.976 218.882 160.826 217.446C161.217 217.055 161.493 216.564 161.621 216.027C161.749 215.489 161.726 214.926 161.553 214.401C161.39 213.881 161.084 213.416 160.67 213.062C160.256 212.707 159.75 212.477 159.21 212.397Z" fill="#D81919"/>
</g>
<defs>
<clipPath id="clip0_715_25202">
<rect width="313.994" height="226.138" fill="white"/>
</clipPath>
</defs>
</svg>
