<svg version="1.1" id="Layer_1" xmlns="http://www.w3.org/2000/svg" xmlns:xlink="http://www.w3.org/1999/xlink" x="0px" y="0px"
	 width="100%" viewBox="0 0 142 82" enable-background="new 0 0 142 82" xml:space="preserve">
<path fill="#000000" opacity="1.000000" stroke="none" 
	d="
M1.000000,53.000000 
	C1.000000,35.722195 1.000000,18.444391 1.000000,1.000000 
	C29.020674,1.000000 57.041679,1.000000 85.825958,1.300384 
	C82.741226,4.888039 78.922897,8.211235 75.021782,11.434233 
	C74.175812,12.133153 73.067879,12.565323 72.020630,12.962014 
	C65.824547,15.309039 59.610783,17.609369 52.826492,20.140482 
	C45.291946,13.695277 30.626343,14.546046 24.583073,21.068129 
	C23.151098,22.434963 22.020132,23.693909 20.573849,25.084562 
	C19.800243,26.464560 19.341957,27.712849 18.567078,29.097893 
	C17.889217,30.488375 17.527954,31.742105 17.088680,33.399689 
	C16.633205,36.184860 16.255743,38.566181 15.508248,40.970364 
	C13.077875,41.955925 11.017534,42.918621 8.642153,44.008137 
	C7.181431,45.743397 6.035749,47.351845 4.566155,49.089592 
	C3.793767,50.465218 3.345290,51.711540 2.541591,53.093513 
	C1.790913,53.152782 1.395456,53.076393 1.000000,53.000000 
z"/>
<path fill="#FAF3FB" opacity="1.000000" stroke="none" 
	d="
M24.884081,20.960239 
	C30.626343,14.546046 45.291946,13.695277 52.826492,20.140482 
	C59.610783,17.609369 65.824547,15.309039 72.020630,12.962014 
	C73.067879,12.565323 74.175812,12.133153 75.021782,11.434233 
	C78.922897,8.211235 82.741226,4.888039 86.294617,1.300384 
	C90.356903,1.000000 94.713799,1.000000 99.238747,1.307215 
	C102.620255,4.039263 105.833717,6.464097 108.858292,9.171078 
	C105.252960,11.979420 101.836533,14.505615 98.221909,17.178364 
	C99.905235,19.369562 101.583488,21.584591 103.293892,23.774508 
	C107.322884,28.933020 108.142471,29.013523 114.495636,24.947405 
	C123.437218,24.408405 131.173340,25.880219 136.450211,33.059814 
	C133.440933,33.459122 130.799850,33.659939 128.215820,34.157154 
	C117.549423,36.209564 107.134811,36.588448 96.828003,31.944992 
	C91.128532,29.377254 84.684807,28.453394 79.003853,25.854523 
	C69.902779,21.691046 61.388531,22.997971 52.701603,26.748060 
	C50.828529,27.556652 48.401031,28.292006 46.577473,27.791401 
	C39.271805,25.785860 32.103306,23.280657 24.884081,20.960239 
z"/>
<path fill="#000000" opacity="1.000000" stroke="none" 
	d="
M109.047188,8.888929 
	C105.833717,6.464097 102.620255,4.039263 99.703400,1.307215 
	C114.259155,1.000000 128.518311,1.000000 143.000000,1.000000 
	C143.000000,14.686758 143.000000,28.374720 142.667786,42.449821 
	C141.896866,41.875404 141.458176,40.913845 141.000916,39.586449 
	C140.002609,38.108593 139.022858,36.996582 138.021851,35.557404 
	C137.615295,34.486034 137.229965,33.741825 136.844650,32.997620 
	C131.173340,25.880219 123.437218,24.408405 114.611549,24.584267 
	C115.012405,18.233952 113.041283,13.215728 109.047188,8.888929 
z"/>
<path fill="#F0E9F1" opacity="1.000000" stroke="none" 
	d="
M141.019470,39.952290 
	C141.458176,40.913845 141.896866,41.875404 142.667786,42.918480 
	C143.000000,43.750000 143.000000,44.500000 142.614395,45.631187 
	C136.962479,47.008453 131.651260,48.984402 126.441521,48.745697 
	C120.311852,48.464840 114.241928,46.374481 108.204727,44.838390 
	C105.898109,44.251503 104.269226,44.053284 103.859253,47.319580 
	C103.480522,48.760780 103.242241,49.881939 103.001984,51.001656 
	C103.000000,51.000214 102.997559,50.998219 102.562027,50.998734 
	C90.897850,49.587845 79.746216,48.574516 69.653244,42.152264 
	C64.925926,39.144234 58.644238,38.486481 52.991573,37.063133 
	C50.039246,36.319733 48.289047,37.937141 47.621590,41.003685 
	C45.334232,41.007504 43.045681,41.690632 41.576164,40.883175 
	C35.235600,37.399216 27.441393,36.734657 22.284924,30.926439 
	C21.459959,29.997204 20.032566,29.602797 18.883673,28.961140 
	C19.341957,27.712849 19.800243,26.464560 20.915787,25.231657 
	C27.870144,28.078501 34.220928,30.797968 40.445137,33.781487 
	C44.474651,35.713001 48.305641,38.154648 50.843277,31.933449 
	C51.054661,31.415228 52.257694,31.301504 53.461735,31.000172 
	C59.008919,31.541277 64.368362,31.243937 69.122505,32.798149 
	C78.876198,35.986809 88.359512,40.038692 97.840691,44.006279 
	C101.441399,45.513065 103.178932,44.530239 104.250557,41.000164 
	C104.500198,40.999718 104.999474,40.998474 105.444702,40.999008 
	C110.385689,41.747726 114.902481,42.388920 119.372498,43.267956 
	C127.012146,44.770302 134.276718,44.148449 141.019470,39.952290 
z"/>
<path fill="#C7BDC8" opacity="1.000000" stroke="none" 
	d="
M86.000000,83.000000 
	C80.645073,83.000000 75.290138,83.000000 69.765572,82.681442 
	C64.594376,80.205315 59.929939,75.452896 54.002758,80.434616 
	C53.456020,80.894142 52.469154,80.863167 51.675529,80.990685 
	C43.470432,82.309021 36.634441,80.023781 31.832294,73.113846 
	C18.287117,80.247559 7.253749,77.070045 3.256068,65.070541 
	C7.854269,67.339691 12.097521,69.552345 16.300190,71.839584 
	C20.574026,74.165550 27.106363,73.379829 31.239805,69.989075 
	C31.482197,69.982346 31.966721,69.961548 32.317444,70.010223 
	C33.726753,70.818993 34.788330,71.574966 35.843391,72.339928 
	C40.295444,75.567810 44.848122,78.966759 50.709274,77.866264 
	C54.114464,77.226906 58.834698,77.566833 58.989182,71.655075 
	C58.989052,70.881485 58.985958,70.439438 59.423412,69.997841 
	C64.550575,69.453491 68.577835,70.827644 72.425545,73.589851 
	C78.685989,78.084114 85.409874,78.258743 92.071220,74.415840 
	C95.788727,72.271217 99.229546,69.646118 102.952644,67.512527 
	C104.412102,66.676163 106.551056,65.830475 107.955887,66.289291 
	C116.565331,69.101105 125.188812,70.391533 133.966644,68.367241 
	C127.015373,74.694939 117.791222,73.707787 109.964821,76.866234 
	C104.599251,79.031586 98.209282,74.551498 92.784630,78.955627 
	C91.270737,80.184723 88.877029,80.285736 86.980591,81.117737 
	C86.475647,81.339264 86.317413,82.351044 86.000000,83.000000 
z"/>
<path fill="#000000" opacity="1.000000" stroke="none" 
	d="
M86.468658,83.000000 
	C86.317413,82.351044 86.475647,81.339264 86.980591,81.117737 
	C88.877029,80.285736 91.270737,80.184723 92.784630,78.955627 
	C98.209282,74.551498 104.599251,79.031586 109.964821,76.866234 
	C117.791222,73.707787 127.015373,74.694939 134.281158,68.233932 
	C136.146011,66.175453 137.557678,64.580627 138.986755,62.987980 
	C139.004150,62.990162 138.983475,62.961739 139.195023,62.883156 
	C139.727417,62.626217 139.819290,62.366772 139.859543,61.728832 
	C140.367447,60.624409 140.697968,59.817402 141.392181,58.843979 
	C142.170578,58.785046 142.585281,58.892521 143.000000,59.000000 
	C143.000000,66.956543 143.000000,74.913078 143.000000,83.000000 
	C124.312614,83.000000 105.624969,83.000000 86.468658,83.000000 
z"/>
<path fill="#000000" opacity="1.000000" stroke="none" 
	d="
M2.883313,65.046768 
	C7.253749,77.070045 18.287117,80.247559 31.832294,73.113846 
	C36.634441,80.023781 43.470432,82.309021 51.675529,80.990685 
	C52.469154,80.863167 53.456020,80.894142 54.002758,80.434616 
	C59.929939,75.452896 64.594376,80.205315 69.297966,82.681442 
	C46.449821,83.000000 23.899643,83.000000 1.000000,83.000000 
	C1.000000,77.317909 1.000000,71.628662 1.249661,65.179596 
	C1.960652,64.628777 2.421983,64.837769 2.883313,65.046768 
z"/>
<path fill="#DDD6DE" opacity="1.000000" stroke="none" 
	d="
M58.982864,69.997391 
	C58.985958,70.439438 58.989052,70.881485 58.606529,71.706230 
	C52.261555,75.020485 46.537994,74.823677 40.941051,71.037819 
	C39.054962,69.762039 36.896282,68.886581 34.852280,67.847641 
	C32.517868,66.661079 31.909847,67.865883 31.966721,69.961548 
	C31.966721,69.961548 31.482197,69.982346 30.785009,69.988914 
	C21.652119,70.993858 14.644971,67.914742 8.136542,62.796371 
	C6.213796,61.284279 3.403544,60.900719 1.000000,60.000000 
	C1.000000,58.933483 1.000000,57.866962 1.370191,56.336727 
	C3.616729,56.863838 5.656281,57.634731 7.340497,58.884483 
	C13.806757,63.682705 21.042915,67.764091 28.943357,65.615799 
	C34.158749,64.197624 37.719810,65.575104 41.913158,67.370834 
	C44.332031,68.406677 46.987331,69.582802 49.501549,69.509331 
	C52.028713,69.435478 54.512875,67.890083 57.260910,67.180252 
	C57.998253,68.246445 58.490559,69.121918 58.982864,69.997391 
z"/>
<path fill="#E7E0E8" opacity="1.000000" stroke="none" 
	d="
M57.015877,66.989540 
	C54.512875,67.890083 52.028713,69.435478 49.501549,69.509331 
	C46.987331,69.582802 44.332031,68.406677 41.913158,67.370834 
	C37.719810,65.575104 34.158749,64.197624 28.943357,65.615799 
	C21.042915,67.764091 13.806757,63.682705 7.340497,58.884483 
	C5.656281,57.634731 3.616729,56.863838 1.370191,55.936504 
	C1.000000,55.250000 1.000000,54.500000 1.000000,53.375000 
	C1.395456,53.076393 1.790913,53.152782 2.867975,53.233650 
	C13.633554,59.095989 23.824120,64.479324 36.182827,62.076508 
	C37.344128,61.850723 38.828144,62.430706 39.954990,63.027847 
	C45.177334,65.795265 50.431068,67.044044 56.242138,64.204002 
	C56.675491,65.269203 56.845684,66.129372 57.015877,66.989540 
z"/>
<path fill="#E0D9E1" opacity="1.000000" stroke="none" 
	d="
M143.000000,58.600006 
	C142.585281,58.892521 142.170578,58.785046 141.000351,58.846039 
	C131.039917,63.379318 122.078438,61.598476 113.046562,58.224461 
	C109.863083,57.035217 106.355591,56.713345 102.993790,55.743858 
	C102.987663,55.324593 102.983788,55.156910 102.984337,54.590179 
	C102.991692,53.126823 102.994629,52.062523 102.997559,50.998219 
	C102.997559,50.998219 103.000000,51.000214 103.399323,51.001503 
	C105.368080,51.413486 107.003769,51.660091 108.495735,52.262611 
	C115.860596,55.236870 123.335152,57.757984 131.425156,56.950283 
	C135.309631,56.562462 139.143311,55.666077 143.000000,55.000000 
	C143.000000,56.066669 143.000000,57.133339 143.000000,58.600006 
z"/>
<path fill="#E7E0E8" opacity="1.000000" stroke="none" 
	d="
M143.000000,54.571537 
	C139.143311,55.666077 135.309631,56.562462 131.425156,56.950283 
	C123.335152,57.757984 115.860596,55.236870 108.495735,52.262611 
	C107.003769,51.660091 105.368080,51.413486 103.401306,51.002945 
	C103.242241,49.881939 103.480522,48.760780 104.256828,47.320831 
	C106.067596,47.277294 107.448936,47.322311 108.596268,47.863461 
	C119.915710,53.202377 131.296600,55.681736 143.000000,49.000000 
	C143.000000,50.714359 143.000000,52.428715 143.000000,54.571537 
z"/>
<path fill="#EBE4EC" opacity="1.000000" stroke="none" 
	d="
M143.000000,48.625000 
	C131.296600,55.681736 119.915710,53.202377 108.596268,47.863461 
	C107.448936,47.322311 106.067596,47.277294 104.397278,47.000793 
	C104.269226,44.053284 105.898109,44.251503 108.204727,44.838390 
	C114.241928,46.374481 120.311852,48.464840 126.441521,48.745697 
	C131.651260,48.984402 136.962479,47.008453 142.614395,46.006187 
	C143.000000,46.750000 143.000000,47.500000 143.000000,48.625000 
z"/>
<path fill="#D1C8D2" opacity="1.000000" stroke="none" 
	d="
M1.000000,60.416664 
	C3.403544,60.900719 6.213796,61.284279 8.136542,62.796371 
	C14.644971,67.914742 21.652119,70.993858 30.542618,69.995644 
	C27.106363,73.379829 20.574026,74.165550 16.300190,71.839584 
	C12.097521,69.552345 7.854269,67.339691 3.256068,65.070541 
	C2.421983,64.837769 1.960652,64.628777 1.249661,64.709892 
	C1.000000,63.611111 1.000000,62.222221 1.000000,60.416664 
z"/>
<path fill="#F6EFF7" opacity="1.000000" stroke="none" 
	d="
M104.999474,40.998474 
	C104.999474,40.998474 104.500198,40.999718 103.857056,40.999184 
	C93.811089,37.671711 84.289986,34.637943 75.049110,30.909620 
	C69.361938,28.615074 63.816204,27.052019 57.791328,28.646639 
	C56.104755,29.093027 54.592316,30.197336 53.000000,30.999847 
	C52.257694,31.301504 51.054661,31.415228 50.843277,31.933449 
	C48.305641,38.154648 44.474651,35.713001 40.445137,33.781487 
	C34.220928,30.797968 27.870144,28.078501 21.231104,25.099951 
	C22.020132,23.693909 23.151098,22.434963 24.583073,21.068129 
	C32.103306,23.280657 39.271805,25.785860 46.577473,27.791401 
	C48.401031,28.292006 50.828529,27.556652 52.701603,26.748060 
	C61.388531,22.997971 69.902779,21.691046 79.003853,25.854523 
	C84.684807,28.453394 91.128532,29.377254 96.828003,31.944992 
	C107.134811,36.588448 117.549423,36.209564 128.215820,34.157154 
	C130.799850,33.659939 133.440933,33.459122 136.450211,33.059814 
	C137.229965,33.741825 137.615295,34.486034 137.964691,35.941750 
	C136.821960,37.434383 135.819916,38.505039 134.591309,38.949722 
	C126.513268,41.873520 118.480957,40.271900 110.376335,38.798786 
	C108.770378,38.506882 106.801170,40.213486 104.999474,40.998474 
z"/>
<path fill="#F5EEF5" opacity="1.000000" stroke="none" 
	d="
M4.890068,48.960289 
	C6.035749,47.351845 7.181431,45.743397 8.688776,44.366131 
	C13.132244,49.876148 21.867029,52.872700 27.417818,50.567074 
	C28.568594,50.089081 29.148043,48.235619 30.301590,47.166283 
	C33.621422,52.226215 37.209240,53.010597 41.794903,49.191528 
	C42.816772,48.340481 44.577213,48.376259 46.239853,48.007782 
	C46.482105,48.011837 46.966614,48.011955 47.015682,48.357964 
	C48.709442,51.470188 50.354134,54.236408 51.825977,57.332581 
	C49.785694,58.441483 47.891212,59.931961 46.056030,59.862213 
	C41.107365,59.674129 36.195534,58.686928 31.248081,58.260616 
	C21.639481,57.432659 13.191635,53.430508 4.890068,48.960289 
z"/>
<path fill="#EBE4EC" opacity="1.000000" stroke="none" 
	d="
M45.997604,48.003731 
	C44.577213,48.376259 42.816772,48.340481 41.794903,49.191528 
	C37.209240,53.010597 33.621422,52.226215 30.008307,47.016907 
	C27.602575,45.146214 25.800913,43.575100 23.998835,41.614067 
	C23.941433,36.637966 21.567280,33.975655 17.166691,32.995834 
	C17.527954,31.742105 17.889217,30.488375 18.567078,29.097893 
	C20.032566,29.602797 21.459959,29.997204 22.284924,30.926439 
	C27.441393,36.734657 35.235600,37.399216 41.576164,40.883175 
	C43.045681,41.690632 45.334232,41.007504 47.622948,41.005127 
	C47.999989,40.999985 48.000763,41.000763 47.956764,41.366211 
	C47.274376,43.822353 46.635990,45.913040 45.997604,48.003731 
z"/>
<path fill="#F0E9F1" opacity="1.000000" stroke="none" 
	d="
M4.566156,49.089592 
	C13.191635,53.430508 21.639481,57.432659 31.248081,58.260616 
	C36.195534,58.686928 41.107365,59.674129 46.056030,59.862213 
	C47.891212,59.931961 49.785694,58.441483 52.072311,57.333801 
	C52.491497,57.005070 52.984154,57.005165 53.025658,57.338608 
	C54.028904,59.115372 54.990646,60.558689 55.961456,62.334785 
	C55.973339,63.111359 55.976158,63.555164 55.978973,63.998966 
	C50.431068,67.044044 45.177334,65.795265 39.954990,63.027847 
	C38.828144,62.430706 37.344128,61.850723 36.182827,62.076508 
	C23.824120,64.479324 13.633554,59.095989 3.223196,53.097992 
	C3.345290,51.711540 3.793767,50.465218 4.566156,49.089592 
z"/>
<path fill="#FAF3FB" opacity="1.000000" stroke="none" 
	d="
M23.999252,42.003983 
	C25.800913,43.575100 27.602575,45.146214 29.697521,46.866703 
	C29.148043,48.235619 28.568594,50.089081 27.417818,50.567074 
	C21.867029,52.872700 13.132244,49.876148 9.003817,44.239315 
	C11.017534,42.918621 13.077875,41.955925 15.931635,40.985641 
	C19.149786,41.320030 21.574520,41.662006 23.999252,42.003983 
z"/>
<path fill="#E7E0E8" opacity="1.000000" stroke="none" 
	d="
M23.998835,41.614067 
	C21.574520,41.662006 19.149786,41.320030 16.301666,40.962776 
	C16.255743,38.566181 16.633205,36.184860 17.088680,33.399689 
	C21.567280,33.975655 23.941433,36.637966 23.998835,41.614067 
z"/>
<path fill="#F5EEF5" opacity="1.000000" stroke="none" 
	d="
M108.858292,9.171076 
	C113.041283,13.215728 115.012405,18.233952 114.157074,24.541740 
	C108.142471,29.013523 107.322884,28.933020 103.293892,23.774508 
	C101.583488,21.584591 99.905235,19.369562 98.221909,17.178364 
	C101.836533,14.505615 105.252960,11.979420 108.858292,9.171076 
z"/>
<path fill="#F5EEF5" opacity="1.000000" stroke="none" 
	d="
M105.444702,40.999008 
	C106.801170,40.213486 108.770378,38.506882 110.376335,38.798786 
	C118.480957,40.271900 126.513268,41.873520 134.591309,38.949722 
	C135.819916,38.505039 136.821960,37.434383 137.985931,36.268913 
	C139.022858,36.996582 140.002609,38.108593 141.000916,39.586449 
	C134.276718,44.148449 127.012146,44.770302 119.372498,43.267956 
	C114.902481,42.388920 110.385689,41.747726 105.444702,40.999008 
z"/>
<path fill="#EBE4EC" opacity="1.000000" stroke="none" 
	d="
M102.562027,50.998734 
	C102.994629,52.062523 102.991692,53.126823 102.519867,54.593510 
	C87.812149,56.056721 74.959381,52.136204 62.645630,45.074497 
	C58.386143,42.631752 52.917236,42.297901 48.000763,41.000763 
	C48.000763,41.000763 47.999989,40.999985 47.998631,40.998543 
	C48.289047,37.937141 50.039246,36.319733 52.991573,37.063133 
	C58.644238,38.486481 64.925926,39.144234 69.653244,42.152264 
	C79.746216,48.574516 90.897850,49.587845 102.562027,50.998734 
z"/>
<path fill="#F5EEF5" opacity="1.000000" stroke="none" 
	d="
M53.461735,31.000172 
	C54.592316,30.197336 56.104755,29.093027 57.791328,28.646639 
	C63.816204,27.052019 69.361938,28.615074 75.049110,30.909620 
	C84.289986,34.637943 93.811089,37.671711 103.607414,40.999630 
	C103.178932,44.530239 101.441399,45.513065 97.840691,44.006279 
	C88.359512,40.038692 78.876198,35.986809 69.122505,32.798149 
	C64.368362,31.243937 59.008919,31.541277 53.461735,31.000172 
z"/>
<path fill="#D1C8D2" opacity="1.000000" stroke="none" 
	d="
M56.242134,64.204002 
	C55.976158,63.555164 55.973339,63.111359 56.360825,62.287281 
	C63.121765,59.008266 68.275291,63.066372 72.989006,65.764114 
	C81.955261,70.895660 90.225403,70.819504 98.547195,65.216255 
	C100.372688,63.987099 101.526268,61.760014 102.991730,59.744293 
	C102.994186,59.496090 102.999695,58.999695 103.407463,59.001053 
	C104.947105,59.194950 106.082741,59.367767 107.210236,59.583218 
	C114.574471,60.990421 120.898308,66.593849 129.006073,64.997177 
	C132.330276,64.342529 135.648438,63.657181 138.969345,62.985794 
	C137.557678,64.580627 136.146011,66.175453 134.419830,67.903595 
	C125.188812,70.391533 116.565331,69.101105 107.955887,66.289291 
	C106.551056,65.830475 104.412102,66.676163 102.952644,67.512527 
	C99.229546,69.646118 95.788727,72.271217 92.071220,74.415840 
	C85.409874,78.258743 78.685989,78.084114 72.425545,73.589851 
	C68.577835,70.827644 64.550575,69.453491 59.423416,69.997841 
	C58.490559,69.121918 57.998253,68.246445 57.260910,67.180252 
	C56.845684,66.129372 56.675491,65.269203 56.242134,64.204002 
z"/>
<path fill="#D1C8D2" opacity="1.000000" stroke="none" 
	d="
M32.317444,70.010223 
	C31.909847,67.865883 32.517868,66.661079 34.852280,67.847641 
	C36.896282,68.886581 39.054962,69.762039 40.941051,71.037819 
	C46.537994,74.823677 52.261555,75.020485 58.603569,72.037766 
	C58.834698,77.566833 54.114464,77.226906 50.709274,77.866264 
	C44.848122,78.966759 40.295444,75.567810 35.843391,72.339928 
	C34.788330,71.574966 33.726753,70.818993 32.317444,70.010223 
z"/>
<path fill="#DAD1DB" opacity="1.000000" stroke="none" 
	d="
M138.986755,62.987976 
	C135.648438,63.657181 132.330276,64.342529 129.006073,64.997177 
	C120.898308,66.593849 114.574471,60.990421 107.210236,59.583218 
	C106.082741,59.367767 104.947105,59.194950 103.403267,58.746834 
	C102.985725,58.321838 102.980141,58.152420 102.978867,57.651783 
	C102.987457,56.878853 102.991745,56.437149 102.996033,55.995441 
	C106.355591,56.713345 109.863083,57.035217 113.046562,58.224461 
	C122.078438,61.598476 131.039917,63.379318 140.636658,59.012451 
	C140.697968,59.817402 140.367447,60.624409 139.684479,61.834511 
	C139.124451,62.434978 139.008255,62.676357 138.983475,62.961739 
	C138.983475,62.961739 139.004150,62.990162 138.986755,62.987976 
z"/>
<path fill="#D1C8D2" opacity="1.000000" stroke="none" 
	d="
M139.195023,62.883156 
	C139.008255,62.676357 139.124451,62.434978 139.507111,62.131927 
	C139.819290,62.366772 139.727417,62.626217 139.195023,62.883156 
z"/>
<path fill="#E7E0E8" opacity="1.000000" stroke="none" 
	d="
M102.993790,55.743858 
	C102.991745,56.437149 102.987457,56.878853 102.566925,57.667046 
	C94.187790,59.631496 86.176941,61.482544 78.291618,57.911209 
	C72.393715,55.239998 66.697502,52.123623 60.800728,49.449707 
	C56.412949,47.460049 51.859856,45.741951 46.966614,48.011955 
	C46.966614,48.011955 46.482105,48.011837 46.239853,48.007782 
	C46.635990,45.913040 47.274376,43.822353 47.956764,41.366211 
	C52.917236,42.297901 58.386143,42.631752 62.645630,45.074497 
	C74.959381,52.136204 87.812149,56.056721 102.515457,54.992561 
	C102.983788,55.156910 102.987663,55.324593 102.993790,55.743858 
z"/>
<path fill="#E0D9E1" opacity="1.000000" stroke="none" 
	d="
M47.015682,48.357964 
	C51.859856,45.741951 56.412949,47.460049 60.800728,49.449707 
	C66.697502,52.123623 72.393715,55.239998 78.291618,57.911209 
	C86.176941,61.482544 94.187790,59.631496 102.562622,57.998268 
	C102.980141,58.152420 102.985725,58.321838 102.995499,58.745476 
	C102.999695,58.999695 102.994186,59.496090 102.642113,59.806023 
	C99.547379,61.411060 96.902176,63.000851 94.043846,63.946224 
	C85.333809,66.826981 78.000343,63.241058 70.468063,59.201340 
	C65.200111,56.376022 59.609234,51.062817 52.984154,57.005165 
	C52.984154,57.005165 52.491497,57.005070 52.245163,57.003845 
	C50.354134,54.236408 48.709442,51.470188 47.015682,48.357964 
z"/>
<path fill="#DAD1DB" opacity="1.000000" stroke="none" 
	d="
M53.025658,57.338608 
	C59.609234,51.062817 65.200111,56.376022 70.468063,59.201340 
	C78.000343,63.241058 85.333809,66.826981 94.043846,63.946224 
	C96.902176,63.000851 99.547379,61.411060 102.639656,60.054226 
	C101.526268,61.760014 100.372688,63.987099 98.547195,65.216255 
	C90.225403,70.819504 81.955261,70.895660 72.989006,65.764114 
	C68.275291,63.066372 63.121765,59.008266 56.351761,61.954506 
	C54.990646,60.558689 54.028904,59.115372 53.025658,57.338608 
z"/>
</svg>